# Blender 4.0.1
# www.blender.org
mtllib bathtub_1.mtl
o bathtub_1
v -1.500000 0.000000 -3.000000
v 1.500000 0.000000 -3.000000
v -1.216152 0.000000 3.000000
v -1.500000 0.000000 2.716152
v 1.500000 0.000000 2.716152
v 1.216152 0.000000 3.000000
v -1.500000 1.870550 -3.000000
v -1.157540 2.000000 -2.786990
v 1.157540 2.000000 -2.786990
v 1.500000 1.870550 -3.000000
v -1.157540 2.000000 2.632592
v -1.500000 1.870550 2.716152
v -1.216152 1.870550 3.000000
v 1.216152 1.870550 3.000000
v 1.500000 1.870550 2.716152
v 1.157540 2.000000 2.632592
v -1.370550 2.000000 2.845603
v -1.370550 2.000000 -3.000000
v 1.370550 2.000000 -3.000000
v 1.370550 2.000000 2.845603
v -0.902528 0.373439 2.035612
v -0.902528 0.373439 -2.190010
v 0.902528 0.373439 -2.190010
v 0.902528 0.373439 2.035612
v -0.112509 1.941841 -2.785933
v -0.112509 2.582991 -2.785933
v -0.112509 1.941841 -2.998524
v -0.112509 2.582991 -2.998524
v 0.112509 1.941841 -2.785933
v 0.112509 2.582991 -2.785933
v 0.112509 1.941841 -2.998524
v 0.112509 2.582991 -2.998524
v -0.112509 2.470886 -2.785933
v 0.112509 2.475986 -2.785933
v -0.077085 2.488535 -2.289578
v -0.077085 2.565342 -2.289578
v 0.077085 2.565342 -2.289578
v 0.077085 2.492029 -2.289578
v -0.192073 2.157781 -2.948897
v 0.184725 2.157781 -2.948897
v -0.192073 2.104088 -2.909887
v 0.184725 2.104088 -2.909887
v -0.192073 2.124597 -2.846766
v 0.184725 2.124597 -2.846766
v -0.192073 2.190965 -2.846766
v 0.184725 2.190965 -2.846766
v -0.192073 2.211474 -2.909887
v 0.184725 2.211474 -2.909887
v -0.192073 2.157781 -2.986947
v -0.192073 2.067900 -2.921645
v 0.184725 2.067900 -2.921645
v 0.184725 2.157781 -2.986947
v -0.192073 2.102232 -2.815984
v 0.184725 2.102232 -2.815984
v -0.192073 2.213330 -2.815984
v 0.184725 2.213330 -2.815984
v -0.192073 2.247662 -2.921645
v 0.184725 2.247662 -2.921645
v 0.000000 0.386830 1.435400
v 0.125124 0.386830 1.526308
v 0.077331 0.386830 1.673400
v -0.077331 0.386830 1.673400
v -0.125124 0.386830 1.526308
vn 0.5049 0.7147 0.4840
vn 0.2962 0.3391 0.8929
vn 0.2971 -0.6303 0.7173
vn 0.7173 -0.6303 0.2971
vn 0.9054 0.3002 0.3002
vn -0.2125 0.9484 0.2352
vn 0.2125 0.9484 0.2352
vn 0.5418 0.7030 0.4607
vn -0.5418 0.7030 0.4607
vn 0.5774 -0.5774 -0.5774
vn 0.7173 0.2971 -0.6303
vn -0.5774 -0.5774 -0.5774
vn -0.7173 0.2971 -0.6303
vn -0.2971 0.7173 -0.6303
vn 0.2971 0.7173 -0.6303
vn -0.2971 -0.6303 0.7173
vn -0.2962 0.3391 0.8929
vn -0.5049 0.7147 0.4840
vn -0.9054 0.3002 0.3002
vn -0.7173 -0.6303 0.2971
vn 0.2125 0.9484 -0.2352
vn -0.2125 0.9484 -0.2352
vn 0.5418 0.7030 -0.4607
vn -0.5418 0.7030 -0.4607
vn -1.0000 -0.0000 -0.0000
vn -0.0000 -0.0000 -1.0000
vn 1.0000 -0.0000 -0.0000
vn -0.0000 -0.0000 1.0000
vn -0.0000 -1.0000 -0.0000
vn -0.0000 1.0000 -0.0000
vn 0.9975 -0.0000 0.0712
vn -0.0000 0.9994 0.0355
vn 0.0226 -0.9992 0.0339
vn -0.9975 -0.0000 0.0712
vn -0.5957 -0.0000 -0.8032
vn 0.5957 -0.0000 -0.8032
vn 0.5957 -0.7639 -0.2482
vn -0.5957 -0.7639 -0.2482
vn 0.5957 -0.4721 0.6498
vn -0.5957 -0.4721 0.6498
vn 0.5957 0.4721 0.6498
vn -0.5957 0.4721 0.6498
vn 0.5957 0.7639 -0.2482
vn -0.5957 0.7639 -0.2482
vt 0.625000 0.757473
vt 0.608819 0.773654
vt 0.375000 0.773654
vt 0.375000 0.738173
vt 0.608819 0.738173
vt 0.653519 0.508885
vt 0.846405 0.508904
vt 0.375000 0.500000
vt 0.608819 0.500000
vt 0.375000 0.250000
vt 0.608819 0.250000
vt 0.625000 0.260788
vt 0.625000 0.489212
vt 0.375000 0.000000
vt 0.608819 0.000000
vt 0.625000 0.006433
vt 0.608819 0.011827
vt 0.375000 0.011827
vt 0.608819 0.976346
vt 0.375000 0.976346
vt 0.125000 0.500000
vt 0.351346 0.750000
vt 0.148654 0.750000
vt 0.125000 0.738173
vt 0.625000 0.011827
vt 0.625000 0.250000
vt 0.608819 0.011827
vt 0.625000 0.773654
vt 0.625000 0.976346
vt 0.635787 0.500000
vt 0.635788 0.743567
vt 0.844601 0.735622
vt 0.864212 0.500000
vt 0.862134 0.744606
vt 0.653396 0.734762
vt 0.581288 0.000000
vt 0.625000 0.000000
vt 0.625000 0.500000
vt 0.625000 0.750000
vt 0.583276 0.750000
vt 0.375000 0.750000
vt 0.581288 1.000000
vt 0.375000 1.000000
vt 0.125000 0.750000
vt 0.875000 0.500000
vt 0.875000 0.750000
vt 0.625000 1.000000
vt 1.000000 0.500000
vt 1.000000 1.000000
vt 0.800000 1.000000
vt 0.800000 0.500000
vt 0.600000 1.000000
vt 0.600000 0.500000
vt 0.400000 1.000000
vt 0.400000 0.500000
vt 0.386354 0.294304
vt 0.250000 0.393372
vt 0.113646 0.294304
vt 0.165728 0.134010
vt 0.334272 0.134010
vt 0.200000 1.000000
vt 0.200000 0.500000
vt 0.000000 1.000000
vt 0.000000 0.500000
vt 0.750000 0.393372
vt 0.886354 0.294304
vt 0.834272 0.134010
vt 0.665728 0.134010
vt 0.613646 0.294304
vt 0.750000 0.490000
vt 0.978254 0.324164
vt 0.478254 0.324164
vt 0.250000 0.490000
vt 0.891068 0.055836
vt 0.391068 0.055836
vt 0.608932 0.055836
vt 0.108932 0.055836
vt 0.521746 0.324164
vt 0.021746 0.324164
s 1
usemtl Material
f 20/1/1 14/2/2 6/3/3 5/4/4 15/5/5
f 9/6/6 8/7/7 22/7/8 23/6/9
f 2/8/10 10/9/11 15/5/5 5/4/4
f 1/10/12 7/11/13 18/12/14 19/13/15 10/9/11 2/8/10
f 3/14/16 13/15/17 17/16/18 12/17/19 4/18/20
f 6/3/3 14/2/2 13/19/17 3/20/16
f 1/21/12 2/8/10 5/4/4 6/22/3 3/23/16 4/24/20
f 17/25/18 18/26/14 7/11/13 12/27/19
f 20/28/1 17/29/18 13/19/17 14/2/2
f 15/5/5 10/9/11 19/30/15 20/31/1
f 4/18/20 12/27/19 7/11/13 1/10/12
f 11/32/21 8/7/7 18/33/14 17/34/18
f 9/6/6 16/35/22 20/31/1 19/30/15
f 8/7/7 9/6/6 19/30/15 18/33/14
f 16/35/22 11/32/21 17/34/18 20/31/1
f 23/6/9 22/7/8 21/32/23 24/35/24
f 8/7/7 11/32/21 21/32/23 22/7/8
f 11/32/21 16/35/22 24/35/24 21/32/23
f 16/35/22 9/6/6 23/6/9 24/35/24
s 0
f 27/21/29 31/8/29 29/41/29 25/44/29
usemtl Material.010
f 25/14/25 33/36/25 26/37/25 28/26/25 27/10/25
f 27/10/26 28/26/26 32/38/26 31/8/26
f 31/8/27 32/38/27 30/39/27 34/40/27 29/41/27
f 29/41/28 34/40/28 33/42/28 25/43/28
f 32/38/30 28/45/30 26/46/30 30/39/30
f 35/42/28 38/40/28 37/39/28 36/47/28
f 34/40/31 30/39/31 37/39/31 38/40/31
f 30/39/32 26/46/32 36/46/32 37/39/32
f 33/42/33 34/40/33 38/40/33 35/42/33
f 26/37/34 33/36/34 35/36/34 36/37/34
s 1
f 49/48/35 52/49/36 51/50/37 50/51/38
f 50/51/38 51/50/37 54/52/39 53/53/40
f 53/53/40 54/52/39 56/54/41 55/55/42
f 55/55/42 56/54/41 58/61/43 57/62/44
f 57/62/44 58/61/43 52/63/36 49/64/35
f 41/66/25 39/65/25 49/70/35 50/71/38
f 40/57/27 42/56/27 51/72/37 52/73/36
f 43/67/25 41/66/25 50/71/38 53/74/40
f 42/56/27 44/60/27 54/75/39 51/72/37
f 45/68/25 43/67/25 53/74/40 55/76/42
f 44/60/27 46/59/27 56/77/41 54/75/39
f 47/69/25 45/68/25 55/76/42 57/78/44
f 46/59/27 48/58/27 58/79/43 56/77/41
f 39/65/25 47/69/25 57/78/44 49/70/35
f 48/58/27 40/57/27 52/73/36 58/79/43
s 0
f 60/72/30 59/73/30 63/79/30 62/77/30 61/75/30
s 1
usemtl Material.012
f 42/56/27 40/57/27 48/58/27 46/59/27 44/60/27
usemtl Material.013
f 39/65/25 41/66/25 43/67/25 45/68/25 47/69/25
