# Blender 4.0.1
# www.blender.org
mtllib bed_01.mtl
o bed_1
v -2.000000 0.200000 4.000000
v -1.785329 1.200000 3.785329
v -2.000000 0.200000 -4.000000
v -1.785329 1.200000 -3.785329
v 2.000000 0.200000 4.000000
v 1.785329 1.200000 3.785329
v 2.000000 0.200000 -4.000000
v 1.785329 1.200000 -3.785329
v -2.000000 1.200000 4.000000
v -2.000000 1.200000 -4.000000
v 2.000000 1.200000 -4.000000
v 2.000000 1.200000 4.000000
v 2.000000 1.200000 -3.784354
v 1.786934 1.200000 -4.000000
v -1.786371 1.200000 -4.000000
v -2.000000 1.200000 -3.787518
v -2.000000 2.800000 -3.787518
v -2.000000 2.800000 -4.000000
v 1.786934 2.800000 -4.000000
v 2.000000 2.800000 -4.000000
v -1.785329 2.800000 -3.785329
v 1.785329 2.800000 -3.785329
v 2.000000 2.800000 -3.784354
v -1.786371 2.800000 -4.000000
v -1.785329 1.409012 3.785329
v -1.785329 1.409012 -3.785329
v 1.785329 1.409012 -3.785329
v 1.785329 1.409012 3.785329
v 1.700000 -0.000000 3.900000
v 1.700000 0.200000 3.900000
v 1.700000 -0.000000 3.700000
v 1.700000 0.200000 3.700000
v 1.900000 -0.000000 3.900000
v 1.900000 0.200000 3.900000
v 1.900000 -0.000000 3.700000
v 1.900000 0.200000 3.700000
v 1.700000 -0.000000 -3.700000
v 1.700000 0.200000 -3.700000
v 1.700000 -0.000000 -3.900000
v 1.700000 0.200000 -3.900000
v 1.900000 -0.000000 -3.700000
v 1.900000 0.200000 -3.700000
v 1.900000 -0.000000 -3.900000
v 1.900000 0.200000 -3.900000
v -1.900000 -0.000000 -3.700000
v -1.900000 0.200000 -3.700000
v -1.900000 -0.000000 -3.900000
v -1.900000 0.200000 -3.900000
v -1.700000 -0.000000 -3.700000
v -1.700000 0.200000 -3.700000
v -1.700000 -0.000000 -3.900000
v -1.700000 0.200000 -3.900000
v -1.900000 -0.000000 3.900000
v -1.900000 0.200000 3.900000
v -1.900000 -0.000000 3.700000
v -1.900000 0.200000 3.700000
v -1.700000 -0.000000 3.900000
v -1.700000 0.200000 3.900000
v -1.700000 -0.000000 3.700000
v -1.700000 0.200000 3.700000
v -0.959560 1.264220 -2.806885
v -0.959560 1.660564 -2.608808
v -0.959560 1.845524 -3.846948
v -0.959560 2.121871 -3.500601
v 0.959560 1.264220 -2.806885
v 0.959560 1.660564 -2.608808
v 0.959560 1.845524 -3.846948
v 0.959560 2.121871 -3.500601
v -0.959560 1.394409 -3.408385
v -0.959560 1.790753 -3.210308
v 0.959560 1.394409 -3.408385
v 0.959560 1.790753 -3.210308
v -1.250453 1.380268 -2.543520
v -1.250453 2.127294 -3.788348
v 1.250453 2.127294 -3.788348
v 1.250453 1.380268 -2.543520
v 1.250453 1.592581 -3.309347
v -1.250453 1.592581 -3.309347
v 2.000000 1.200000 -0.006485
v 2.000000 0.200000 -0.006485
v 2.000000 1.200000 2.016925
v 2.000000 0.200000 2.016925
v 2.000000 0.200000 -1.978013
v 2.000000 1.200000 -1.978014
v -2.000000 0.200000 -0.009383
v -2.000000 1.200000 -0.003128
v -2.000000 0.200000 1.977113
v -2.000000 1.200000 1.977113
v -2.000000 1.200000 -1.995128
v -2.000000 0.200000 -1.995128
v -2.000000 0.408572 4.000000
v 2.000000 0.408574 4.000000
vn -1.0000 -0.0000 -0.0000
vn -0.0000 -0.0000 -1.0000
vn 1.0000 -0.0000 -0.0000
vn -0.0000 -0.0000 1.0000
vn -0.0000 -1.0000 -0.0000
vn 0.3015 0.9045 0.3015
vn 0.4069 0.4076 0.8175
vn 0.7071 0.7071 -0.0000
vn 0.5774 0.5774 0.5774
vn -0.0000 1.0000 -0.0000
vn -0.0045 -0.0000 1.0000
vn -0.0102 -0.0000 0.9999
vn -0.7071 0.7071 -0.0000
vn -0.5774 0.5774 0.5774
vn -0.4113 0.4098 0.8142
vn -0.3015 0.9045 0.3015
vn -0.9878 -0.1346 -0.0778
vn -0.3530 0.8002 0.4849
vn -0.2275 0.8533 0.4691
vn -0.7445 0.5090 -0.4320
vn -0.2990 -0.8314 -0.4683
vn 0.2990 -0.8314 -0.4683
vn 0.2181 -0.9754 0.0326
vn -0.2181 -0.9754 0.0326
vn -0.2376 -0.3349 -0.9118
vn 0.2376 -0.3349 -0.9118
vn 0.7482 -0.2320 0.6216
vn 0.2496 0.7352 0.6302
vn -0.2496 0.7352 0.6302
vn -0.7482 -0.2320 0.6216
vn 0.7445 0.5090 -0.4320
vn 0.2275 0.8533 0.4691
vn 0.3530 0.8002 0.4849
vn 0.9878 -0.1346 -0.0778
vt 2.154141 5.115868
vt 2.154141 5.204153
vt 2.154141 5.539149
vt 1.297890 5.539148
vt 1.297890 5.115868
vt 0.461015 -3.936284
vt 0.461015 -3.513113
vt 0.370590 -3.513113
vt -1.141925 -3.513113
vt -1.232112 -3.513113
vt -1.232112 -3.936285
vt 2.154141 0.604903
vt 2.154141 1.028185
vt 2.062862 1.028185
vt 1.298272 1.028185
vt 1.298271 0.604903
vt 1.000000 0.156250
vt 1.000000 0.250000
vt 0.359375 0.250000
vt 0.359375 0.156250
vt -1.232112 0.459550
vt 0.461015 0.459551
vt 0.461015 1.313547
vt 0.461015 2.146233
vt 0.461015 3.000830
vt 0.461015 3.838392
vt -1.232112 3.838393
vt -1.232112 2.984015
vt -1.232112 2.145009
vt -1.232112 1.306319
vt -1.232112 3.926863
vt 1.972408 3.926864
vt 1.972408 4.015335
vt -1.232112 4.015334
vt 0.370148 0.368705
vt 0.370148 -2.835110
vt 0.461015 -2.836035
vt 0.461015 -2.077516
vt 0.461015 -1.234525
vt 0.461015 -0.396511
vt 0.461015 0.459552
vt -1.232112 5.539148
vt -1.142172 5.539148
vt -1.142172 6.216399
vt -1.232112 6.216398
vt 0.461015 -2.836037
vt 0.370590 -2.836037
vt -1.141245 0.368705
vt -1.232112 0.459551
vt -1.141245 -5.127488
vt -1.141686 -5.036643
vt -1.232111 -5.036643
vt -1.232112 -2.834697
vt -1.141245 -2.835111
vt -1.232112 -0.379663
vt -1.232112 -1.235947
vt -1.232112 -2.070275
vt -1.141245 -3.936338
vt -1.232112 -3.936331
vt -1.232112 -4.613408
vt -1.141245 -4.613414
vt -1.141925 -2.836037
vt -1.232112 -2.836037
vt 0.461015 -3.936304
vt 0.370147 -3.936287
vt 0.370147 -4.613363
vt 0.461015 -4.613379
vt 0.370149 -5.127489
vt 0.461015 -5.127900
vt 0.461015 -5.036642
vt 0.370828 -5.036642
vt -1.232111 -5.126563
vt 2.062862 4.438616
vt 2.154141 4.438616
vt 2.062862 5.115868
vt 0.005666 1.002242
vt 0.005666 -0.006213
vt 0.995144 -0.006213
vt 0.995143 1.002242
vt -1.232112 3.838392
vt 1.972408 3.838393
vt 0.279280 -5.127900
vt -1.232112 -5.127953
vt -1.232112 -5.216399
vt 0.279280 -5.216348
vt 1.519601 -0.181744
vt 1.396410 -0.264656
vt 1.396592 -0.407570
vt 1.519901 -0.412631
vt 0.630328 -1.079716
vt 0.630328 -0.995060
vt 0.545671 -0.995060
vt 0.545671 -1.079716
vt 0.545671 -1.333664
vt 0.545671 -1.249030
vt 0.461015 -1.249030
vt 0.461015 -1.333664
vt 0.545671 -0.995060
vt 0.545671 -0.910405
vt 0.461015 -0.910405
vt 0.461015 -0.995060
vt 0.545671 -1.418303
vt 0.545671 -1.502937
vt 0.630328 -1.502934
vt 0.630328 -1.418300
vt 0.584144 0.450721
vt 1.396473 0.450721
vt 1.396473 0.701124
vt 0.584144 0.701124
vt 1.396473 0.004946
vt 0.584144 0.004947
vt 0.584144 -0.181745
vt 1.396473 -0.181744
vt 0.545671 -1.079716
vt 0.461015 -1.079716
vt 0.630328 -1.333664
vt 0.630328 -1.249030
vt 0.630328 -1.164373
vt 0.630328 -1.079718
vt 0.545671 -1.079718
vt 0.545671 -1.164373
vt 0.461015 -1.418303
vt 0.461015 -1.502937
vt 0.545671 -1.502934
vt 0.545671 -1.418300
vt 0.461015 -0.534523
vt 0.584185 -0.653759
vt 1.396513 -0.653732
vt 1.519601 -0.534486
vt 0.461314 -0.412666
vt 0.584264 -0.407598
vt 0.584082 -0.264683
vt 0.461015 -0.181780
vt 0.545671 -1.164373
vt 0.545671 -1.079718
vt 0.461015 -1.079718
vt 0.461015 -1.164373
vt 0.545671 -1.333664
vt 0.461015 -1.333664
vt 0.461015 -1.418300
vt 0.545671 -1.249030
vt 0.461015 -1.249030
vt 0.630328 -0.910406
vt 0.630328 -0.995041
vt 0.714984 -0.995037
vt 0.714984 -0.910403
vt 1.519602 0.450721
vt 1.396473 0.410569
vt 1.396473 0.154865
vt 1.519602 0.124747
vt -0.095230 1.000000
vt -0.095230 0.000000
vt 0.373119 0.000000
vt 0.373119 1.000000
vt 0.630328 -1.249030
vt 0.545671 -1.249030
vt 0.630328 -1.333664
vt 0.545671 -1.418300
vt 0.630328 -0.910405
vt 0.545671 -0.910405
vt 0.630328 -0.995044
vt 0.630328 -1.079678
vt 0.714984 -1.079676
vt 0.714984 -0.995040
vt 0.461015 -0.412666
vt 0.584144 -0.534487
vt 1.396473 -0.534487
vt 1.519602 -0.412666
vt 1.009503 0.000000
vt 1.009503 1.000000
vt 0.461015 0.124746
vt 0.584144 0.154865
vt 0.584144 0.410569
vt 0.461015 0.450721
vt 0.461015 0.815606
vt 0.461015 0.498097
vt 1.519602 0.498097
vt 1.519602 0.815606
vt 0.468420 -0.653759
vt 0.461015 -0.782080
vt 0.693211 -0.782080
vt 0.677048 -0.667972
vt 0.677047 -0.896189
vt 0.693211 -0.782080
vt 0.461015 -0.782080
vt 0.468420 -0.910402
vt 1.000000 0.656250
vt 1.000000 1.000000
vt 0.359375 1.000000
vt 0.359375 0.656250
vt -0.392713 0.604903
vt -0.392713 1.028184
vt -1.232112 1.028184
vt -1.232112 0.693189
vt -1.232112 0.604903
vt 1.000000 0.625000
vt 1.000000 1.000000
vt 0.359375 0.625000
vt -0.383486 5.115868
vt -0.383486 5.539148
vt -1.232112 5.115868
vt 0.359375 0.625000
vt 1.000000 0.625000
s 0
usemtl Material.001
f 1/1/1 91/2/1 9/3/1 88/4/1 87/5/1
f 3/6/2 10/7/2 15/8/2 14/9/2 11/10/2 7/11/2
f 7/12/3 11/13/3 13/14/3 84/15/3 83/16/3
f 3/21/5 7/22/5 83/23/5 80/24/5 82/25/5 5/26/5 1/27/5 87/28/5 85/29/5 90/30/5
f 2/35/10 4/36/10 16/37/10 89/38/10 86/39/10 88/40/10 9/41/10
f 10/42/1 16/43/1 17/44/1 18/45/1
f 15/8/2 10/7/2 18/46/2 24/47/2
f 6/48/10 2/35/10 9/41/10 12/49/10
f 21/50/10 24/51/10 18/52/10
f 13/53/10 8/54/10 6/48/10 12/49/10 81/55/10 79/56/10 84/57/10
f 8/58/11 13/59/11 23/60/11 22/61/11
f 11/10/2 14/9/2 19/62/2 20/63/2
f 16/64/12 4/65/12 21/66/12 17/67/12
f 22/68/10 23/69/10 20/70/10
f 19/71/10 22/68/10 20/70/10
f 24/51/10 21/50/10 22/68/10 19/71/10
f 17/72/10 21/50/10 18/52/10
f 4/65/4 8/58/4 22/61/4 21/66/4
f 14/9/2 15/8/2 24/47/2 19/62/2
f 13/73/3 11/74/3 20/1/3 23/75/3
f 29/90/1 30/91/1 32/92/1 31/93/1
f 31/94/2 32/95/2 36/96/2 35/97/2
f 35/98/3 36/99/3 34/100/3 33/101/3
f 33/102/4 34/103/4 30/104/4 29/105/4
f 37/114/1 38/98/1 40/101/1 39/115/1
f 39/116/2 40/117/2 44/95/2 43/94/2
f 43/118/3 44/119/3 42/120/3 41/121/3
f 41/122/4 42/123/4 38/124/4 37/125/4
f 45/134/1 46/135/1 48/136/1 47/137/1
f 47/125/2 48/138/2 52/139/2 51/140/2
f 51/141/3 52/134/3 50/137/3 49/142/3
f 49/143/4 50/144/4 46/145/4 45/146/4
f 53/155/1 54/118/1 56/121/1 55/156/1
f 55/105/2 56/157/2 60/94/2 59/158/2
f 59/91/3 60/159/3 58/160/3 57/92/3
f 57/161/4 58/162/4 54/163/4 53/164/4
f 82/191/3 81/192/3 12/193/3 92/194/3 5/195/3
f 90/199/1 89/200/1 16/43/1 10/42/1 3/201/1
s 1
usemtl Material.002
f 6/31/6 8/32/7 27/33/8 28/34/9
f 4/80/15 2/81/16 25/32/14 26/31/13
f 2/82/16 6/83/6 28/84/9 25/85/14
usemtl Material.003
f 78/86/17 70/87/18 64/88/19 74/89/20
f 69/106/21 71/107/22 65/108/23 61/109/24
f 63/110/25 67/111/26 71/112/22 69/113/21
f 76/126/27 66/127/28 62/128/29 73/129/30
f 75/130/31 68/131/32 72/132/33 77/133/34
f 77/147/34 72/148/33 66/149/28 76/150/27
f 74/165/20 64/166/19 68/167/32 75/168/31
f 73/171/30 62/172/29 70/173/18 78/174/17
f 61/109/24 73/175/30 78/176/17 69/106/21
f 63/110/25 74/150/20 75/171/31 67/111/26
f 71/107/22 77/177/34 76/178/27 65/108/23
f 67/179/26 75/180/31 77/181/34 71/182/22
f 65/108/23 76/178/27 73/175/30 61/109/24
f 69/183/21 78/184/17 74/185/20 63/186/25
s 0
usemtl Material.004
f 5/17/4 92/18/4 91/19/4 1/20/4
f 80/187/3 79/188/3 81/189/3 82/190/3
f 83/187/3 84/188/3 79/189/3 80/190/3
f 85/196/1 86/197/1 89/189/1 90/198/1
f 87/196/1 88/197/1 86/189/1 85/198/1
f 91/202/4 92/203/4 12/188/4 9/189/4
s 1
usemtl Material.005
f 27/76/8 26/77/13 25/78/14 28/79/9
f 68/151/32 64/152/19 70/153/18 72/154/33
f 72/154/33 70/153/18 62/169/29 66/170/28
