# Blender 4.0.1
# www.blender.org
mtllib bin_2.mtl
o bin_2
v 0.000000 0.000000 -0.777258
v 0.000000 2.000000 -0.901273
v 0.549604 0.000000 -0.549604
v 0.637296 2.000000 -0.637296
v 0.777258 0.000000 0.000000
v 0.901273 2.000000 0.000000
v 0.549604 0.000000 0.549604
v 0.637296 2.000000 0.637296
v 0.000000 0.000000 0.777258
v 0.000000 2.000000 0.901273
v -0.549604 0.000000 0.549604
v -0.637296 2.000000 0.637296
v -0.777258 0.000000 0.000000
v -0.901273 2.000000 0.000000
v -0.549604 0.000000 -0.549604
v -0.637296 2.000000 -0.637296
v 0.707107 2.000000 -0.707107
v 0.000000 2.000000 -1.000000
v 1.000000 2.000000 0.000000
v 0.707107 2.000000 0.707107
v 0.000000 2.000000 1.000000
v -0.707107 2.000000 0.707107
v -1.000000 2.000000 0.000000
v -0.707107 2.000000 -0.707107
v 0.516516 0.052977 -0.516516
v 0.000000 0.052977 -0.730463
v 0.730463 0.052977 0.000000
v 0.516516 0.052977 0.516516
v 0.000000 0.052977 0.730463
v -0.516516 0.052977 0.516516
v -0.730463 0.052977 0.000000
v -0.516516 0.052977 -0.516516
vn -0.0000 -0.6714 -0.7411
vn -0.0000 0.5882 -0.8087
vn 0.5718 0.5882 -0.5718
vn 0.5240 -0.6714 -0.5240
vn 0.8087 0.5882 -0.0000
vn 0.7411 -0.6714 -0.0000
vn 0.5718 0.5882 0.5718
vn 0.5240 -0.6714 0.5240
vn -0.0000 0.5882 0.8087
vn -0.0000 -0.6714 0.7411
vn -0.5718 0.5882 0.5718
vn -0.5240 -0.6714 0.5240
vn -0.8087 0.5882 -0.0000
vn -0.7411 -0.6714 -0.0000
vn -0.0000 0.8277 0.5612
vn 0.3969 0.8277 0.3969
vn 0.5295 0.6628 0.5295
vn -0.0000 0.6628 0.7488
vn -0.5718 0.5882 -0.5718
vn -0.5240 -0.6714 -0.5240
vn -0.3969 0.8277 0.3969
vn -0.5612 0.8277 -0.0000
vn -0.3969 0.8277 -0.3969
vn -0.0000 0.8277 -0.5612
vn 0.3969 0.8277 -0.3969
vn 0.5612 0.8277 -0.0000
vn -0.5295 0.6628 0.5295
vn 0.7488 0.6628 -0.0000
vn 0.5295 0.6628 -0.5295
vn -0.0000 0.6628 -0.7488
vn -0.5295 0.6628 -0.5295
vn -0.7488 0.6628 -0.0000
vt 1.000000 0.500000
vt 1.000000 1.000000
vt 0.875000 1.000000
vt 0.875000 0.500000
vt 0.750000 1.000000
vt 0.750000 0.500000
vt 0.625000 1.000000
vt 0.625000 0.500000
vt 0.500000 1.000000
vt 0.500000 0.500000
vt 0.375000 1.000000
vt 0.375000 0.500000
vt 0.250000 1.000000
vt 0.250000 0.500000
vt 0.250000 0.466306
vt 0.097049 0.402951
vt 0.125000 1.000000
vt 0.125000 0.500000
vt 0.000000 1.000000
vt 0.000000 0.500000
vt 0.750000 0.490000
vt 0.919706 0.419706
vt 0.990000 0.250000
vt 0.919706 0.080294
vt 0.750000 0.010000
vt 0.580294 0.080294
vt 0.510000 0.250000
vt 0.580294 0.419706
vt 0.402951 0.402951
vt 0.419706 0.419706
vt 0.250000 0.490000
vt 0.466306 0.250000
vt 0.490000 0.250000
vt 0.402951 0.097049
vt 0.419706 0.080294
vt 0.250000 0.033694
vt 0.250000 0.010000
vt 0.097049 0.097049
vt 0.080294 0.080294
vt 0.033694 0.250000
vt 0.010000 0.250000
vt 0.080294 0.419706
s 1
f 1/1/1 18/2/2 17/3/3 3/4/4
f 3/4/4 17/3/3 19/5/5 5/6/6
f 5/6/6 19/5/5 20/7/7 7/8/8
f 7/8/8 20/7/7 21/9/9 9/10/10
f 9/10/10 21/9/9 22/11/11 11/12/12
f 11/12/12 22/11/11 23/13/13 13/14/14
f 2/15/15 16/16/16 32/16/17 26/15/18
f 13/14/14 23/13/13 24/17/19 15/18/20
f 15/18/20 24/17/19 18/19/2 1/20/1
f 1/21/1 3/22/4 5/23/6 7/24/8 9/25/10 11/26/12 13/27/14 15/28/20
f 2/15/15 4/29/21 17/30/3 18/31/2
f 4/29/21 6/32/22 19/33/5 17/30/3
f 6/32/22 8/34/23 20/35/7 19/33/5
f 8/34/23 10/36/24 21/37/9 20/35/7
f 10/36/24 12/38/25 22/39/11 21/37/9
f 12/38/25 14/40/26 23/41/13 22/39/11
f 14/40/26 16/16/16 24/42/19 23/41/13
f 16/16/16 2/15/15 18/31/2 24/42/19
f 25/29/27 26/15/18 32/16/17 31/40/28 30/38/29 29/36/30 28/34/31 27/32/32
f 14/40/26 12/38/25 30/38/29 31/40/28
f 10/36/24 8/34/23 28/34/31 29/36/30
f 6/32/22 4/29/21 25/29/27 27/32/32
f 16/16/16 14/40/26 31/40/28 32/16/17
f 12/38/25 10/36/24 29/36/30 30/38/29
f 8/34/23 6/32/22 27/32/32 28/34/31
f 4/29/21 2/15/15 26/15/18 25/29/27
