# Blender 4.0.1
# www.blender.org
mtllib box_detergent.mtl
o box_detergent
v -0.402687 0.000000 1.000000
v -0.376025 2.000000 0.973338
v -0.402687 0.000000 -1.000000
v -0.376025 2.000000 -0.973338
v 0.402687 0.000000 1.000000
v 0.376025 2.000000 0.973338
v 0.402687 0.000000 -1.000000
v 0.376025 2.000000 -0.973338
v -0.402687 2.000000 1.000000
v -0.402687 2.000000 -1.000000
v 0.402687 2.000000 -1.000000
v 0.402687 2.000000 1.000000
v -0.376025 1.145116 0.973338
v -0.376025 1.145116 -0.973338
v 0.376025 1.145116 -0.973338
v 0.376025 1.145116 0.973338
v -0.402687 1.619706 1.339041
v -0.402687 1.609853 -1.300101
v 0.402687 1.609853 -1.300101
v 0.402687 1.619706 1.339041
v -0.002781 2.084489 1.000000
v -0.002781 2.084489 -1.000000
v 0.613502 1.731077 -1.000000
v 0.613502 1.731077 1.000000
vn -1.0000 -0.0000 -0.0000
vn -0.0000 -0.0000 -1.0000
vn 1.0000 -0.0000 -0.0000
vn -0.0000 -0.0000 1.0000
vn -0.0000 -1.0000 -0.0000
vn -0.0000 1.0000 -0.0000
vn -0.0000 0.6655 0.7464
vn -0.0000 0.6097 -0.7926
vn 0.7870 0.6169 -0.0000
vn -0.2067 0.9784 -0.0000
vt 1.000000 0.000000
vt 1.000000 1.000000
vt 0.000000 1.000000
vt 0.000000 0.000000
vt 0.799754 1.000000
vt 0.799754 0.000000
vt 1.000000 0.000000
vt 1.000000 1.000000
vt 0.000000 1.000000
vt 0.000000 0.000000
vt 0.430264 0.610862
vt 0.591422 0.610862
vt 0.591422 0.772020
vt 0.430264 0.772020
vt 0.866724 0.746667
vt 0.633276 0.746667
vt 0.866724 0.503333
vt 0.875000 0.500000
vt 0.875000 0.750000
vt 0.633276 0.503333
vt 0.625000 0.500000
vt 0.625000 0.750000
vt 0.625000 1.000000
vt 0.625000 0.250000
vt 0.625000 0.000000
s 0
usemtl Material.024
f 1/1/1 9/2/1 10/3/1 3/4/1
f 3/1/2 10/2/2 11/5/2 7/6/2
f 7/7/3 11/8/3 12/9/3 5/10/3
f 5/1/4 12/2/4 9/5/4 1/6/4
f 3/11/5 7/12/5 5/13/5 1/14/5
usemtl Material.025
f 15/20/6 14/17/6 13/15/6 16/16/6
usemtl Material.026
f 2/15/2 6/16/2 16/16/2 13/15/2
f 2/15/6 4/17/6 10/18/6 9/19/6
f 4/17/6 8/20/6 11/21/6 10/18/6
f 8/20/6 6/16/6 12/22/6 11/21/6
f 6/16/6 2/15/6 9/19/6 12/22/6
f 8/20/4 4/17/4 14/17/4 15/20/4
f 6/16/1 8/20/1 15/20/1 16/16/1
f 4/17/3 2/15/3 13/15/3 14/17/3
f 12/22/7 9/23/7 17/23/7 20/22/7
f 10/24/8 11/21/8 19/21/8 18/24/8
f 11/21/9 12/22/9 24/22/9 23/21/9
f 9/25/10 21/25/10 22/24/10 10/24/10
