# Blender 4.0.1
# www.blender.org
mtllib chair_3.mtl
o chair_03
v -0.322751 0.496712 0.320450
v -0.322751 0.544160 0.320450
v -0.322751 0.496712 -0.358612
v -0.322751 0.544160 -0.358612
v 0.322751 0.496712 0.320450
v 0.322751 0.544160 0.320450
v 0.322751 0.496712 -0.358612
v 0.322751 0.544160 -0.358612
v -0.358612 0.490416 0.394473
v -0.358612 0.562139 0.394473
v -0.358612 0.490416 -0.394473
v -0.358612 0.562139 -0.394473
v -0.286890 0.490416 0.394473
v -0.286890 0.562139 0.394473
v -0.286890 0.490416 -0.394473
v -0.286890 0.562139 -0.394473
v 0.286890 0.490416 0.394473
v 0.286890 0.562139 0.394473
v 0.286890 0.490416 -0.394473
v 0.286890 0.562139 -0.394473
v 0.358612 0.490416 0.394473
v 0.358612 0.562139 0.394473
v 0.358612 0.490416 -0.394473
v 0.358612 0.562139 -0.394473
v 0.286890 0.490416 0.315579
v 0.286890 0.562139 0.315579
v 0.358612 0.490416 0.315579
v 0.358612 0.562139 0.315579
v -0.358612 0.490416 0.315579
v -0.358612 0.562139 0.315579
v -0.286890 0.490416 0.315579
v -0.286890 0.562139 0.315579
v -0.286890 1.189263 0.428663
v -0.286890 1.189263 0.507558
v -0.358612 1.189263 0.507558
v 0.358612 1.189263 0.428663
v 0.358612 1.189263 0.507558
v 0.286890 1.141733 0.489318
v 0.286890 1.141733 0.441406
v -0.358612 1.189263 0.428663
v 0.286890 0.890947 0.390361
v 0.358612 0.875701 0.372121
v 0.358612 0.875701 0.451016
v 0.286890 0.890947 0.438273
v -0.286890 0.875701 0.372121
v -0.286890 0.875701 0.451016
v -0.358612 0.875701 0.451016
v -0.358612 0.875701 0.372121
v 0.286890 1.189263 0.507558
v 0.286890 1.189263 0.428663
v 0.286890 0.875701 0.372121
v 0.286890 0.875701 0.451016
v -0.300225 1.141733 0.489318
v -0.287884 1.141733 0.441406
v -0.287884 0.890947 0.390361
v -0.300225 0.890947 0.438273
v 0.358612 1.260985 0.441856
v 0.358612 1.260985 0.520751
v 0.286890 1.260985 0.520751
v 0.286890 1.260985 0.441856
v -0.358612 1.189263 0.507558
v -0.358612 1.189263 0.428663
v -0.358612 1.260985 0.520751
v -0.358612 1.260985 0.441856
v 0.286890 0.891826 0.355873
v 0.286890 1.142613 0.406917
v -0.287884 0.891826 0.355873
v -0.287884 1.142613 0.406917
v -0.358612 0.562139 -0.323468
v -0.286890 0.490416 -0.323468
v -0.358612 0.490416 -0.323468
v -0.286890 0.562139 -0.323468
v 0.286890 0.562139 -0.323468
v 0.358612 0.490416 -0.323468
v 0.286890 0.490416 -0.323468
v 0.358612 0.562139 -0.323468
v -0.358612 0.000632 0.395074
v -0.358612 0.000632 0.473969
v -0.286890 0.000632 -0.438432
v -0.358612 0.000632 -0.438432
v -0.286890 0.000632 -0.367427
v -0.286890 0.000632 0.473969
v 0.286890 0.000632 0.395074
v 0.286890 0.000632 0.473969
v 0.358612 0.000632 -0.438432
v 0.286890 0.000632 -0.438432
v 0.358612 0.000632 -0.367427
v 0.358612 0.000632 0.473969
v 0.358612 0.000632 0.395074
v -0.286890 0.000632 0.395074
v -0.358612 0.000632 -0.367427
v 0.286890 0.000632 -0.367427
vn -1.0000 -0.0000 -0.0000
vn 1.0000 -0.0000 -0.0000
vn -0.0000 -0.0000 -1.0000
vn -0.0000 -0.0000 1.0000
vn -0.0000 0.1775 -0.9841
vn -0.0000 0.0894 -0.9960
vn -0.0000 1.0000 -0.0000
vn -0.0000 -1.0000 -0.0000
vn -0.0000 0.1809 -0.9835
vn -0.0000 -0.1775 0.9841
vn -0.9671 0.0507 -0.2491
vn -0.0000 -0.1809 0.9835
vn -0.0000 -0.0894 0.9960
vn -0.0000 -0.1602 -0.9871
vn -0.0000 0.1602 0.9871
vn -0.0000 -0.9999 -0.0106
vn -0.0000 -0.1995 0.9799
vn -0.0000 0.1994 -0.9799
vn -0.0000 0.9999 0.0106
vt 0.271863 0.625927
vt 0.286908 0.625927
vt 0.286901 0.841217
vt 0.271857 0.841217
vt 0.286901 0.625927
vt 0.271857 0.625927
vt 0.271857 0.410620
vt 0.286901 0.410620
vt 0.773603 0.228941
vt 0.774245 0.206209
vt 0.796748 0.206846
vt 0.796106 0.229577
vt 0.882410 0.457817
vt 0.882410 0.435152
vt 0.905150 0.435152
vt 0.905150 0.457817
vt 0.812832 0.622708
vt 0.812190 0.599977
vt 0.837194 0.599270
vt 0.837837 0.622002
vt 0.060458 0.522767
vt 0.060458 0.500101
vt 0.083198 0.500101
vt 0.083198 0.522767
vt 0.008168 0.254916
vt 0.030666 0.254081
vt 0.022498 0.409785
vt 0.000000 0.410620
vt 0.146294 0.410620
vt 0.146294 0.433360
vt 0.045746 0.433360
vt 0.045746 0.410620
vt 0.546196 0.628438
vt 0.546839 0.605707
vt 0.569341 0.606343
vt 0.568699 0.629075
vt 0.927891 0.435152
vt 0.927891 0.457817
vt 0.233146 0.246565
vt 0.232302 0.223840
vt 0.257300 0.222913
vt 0.258143 0.245638
vt 0.289091 0.246767
vt 0.289091 0.224101
vt 0.311832 0.224101
vt 0.311832 0.246767
vt 0.890161 0.422163
vt 0.912901 0.422163
vt 0.912901 0.578076
vt 0.890161 0.578076
vt 0.790299 0.511785
vt 0.765294 0.512492
vt 0.780406 0.412606
vt 0.805411 0.411899
vt 0.798937 0.042666
vt 0.821678 0.042666
vt 0.821678 0.245285
vt 0.798937 0.245285
vt 0.703099 0.452204
vt 0.725840 0.452204
vt 0.725838 0.654824
vt 0.703098 0.654823
vt 0.029822 0.231356
vt 0.318671 0.622002
vt 0.319313 0.599271
vt 0.344316 0.599978
vt 0.343674 0.622709
vt 0.805650 0.022513
vt 0.828391 0.022513
vt 0.828391 0.225133
vt 0.805650 0.225133
vt 0.701807 0.052707
vt 0.724548 0.052707
vt 0.724546 0.255326
vt 0.701805 0.255326
vt 0.610293 0.628432
vt 0.609651 0.605700
vt 0.546078 0.222505
vt 0.546720 0.199773
vt 0.571723 0.200480
vt 0.571080 0.223212
vt 0.439272 0.784700
vt 0.462013 0.784700
vt 0.462013 0.809715
vt 0.439272 0.809715
vt 0.022741 0.433360
vt 0.022741 0.410620
vt 0.556612 0.100594
vt 0.531609 0.099886
vt 0.516498 -0.000000
vt 0.541501 0.000707
vt 0.022741 0.511168
vt 0.000000 0.511168
vt 0.271527 0.122896
vt 0.246530 0.123824
vt 0.260757 0.023808
vt 0.285755 0.022880
vt 0.814200 0.499589
vt 0.791459 0.499589
vt 0.791459 0.399041
vt 0.814200 0.399041
vt 0.311832 0.123553
vt 0.289091 0.123553
vt 0.289091 0.023005
vt 0.311832 0.023005
vt 0.304202 0.499384
vt 0.329205 0.500091
vt 0.246842 0.410620
vt 0.246842 0.433360
vt 0.814200 0.600137
vt 0.791459 0.600137
vt 0.022741 0.611715
vt 0.000000 0.611715
vt 0.827302 0.500090
vt 0.852306 0.499384
vt 0.294446 0.414725
vt 0.308377 0.494666
vt 0.289091 0.399497
vt 0.323561 0.495096
vt 0.349507 0.868876
vt 0.334573 0.865846
vt 0.334573 0.784700
vt 0.349507 0.787730
vt 0.309630 0.415155
vt 0.314094 0.400205
vt 0.270095 0.579119
vt 0.270095 0.556378
vt 0.295109 0.556378
vt 0.295109 0.579119
vt 0.289091 0.000000
vt 0.311832 0.000000
vt 0.022741 0.241136
vt 0.045746 0.241136
vt 0.045746 0.445802
vt 0.022741 0.445802
vt 0.264094 0.000928
vt 0.371049 0.621671
vt 0.371049 0.596658
vt 0.393790 0.592476
vt 0.393789 0.617489
vt 0.271857 0.615286
vt 0.246842 0.615286
vt 0.252423 0.842693
vt 0.227408 0.842693
vt 0.227410 0.638027
vt 0.252425 0.638027
vt 0.516498 0.023005
vt 0.587789 0.629068
vt 0.587147 0.606336
vt 0.289091 0.399889
vt 0.264094 0.400817
vt 0.805650 0.000000
vt 0.828391 0.000000
vt 0.007324 0.232191
vt 0.505891 0.612936
vt 0.528394 0.613573
vt 0.537938 0.769198
vt 0.515436 0.768562
vt 0.798937 0.020153
vt 0.821678 0.020153
vt 0.393790 0.784700
vt 0.416531 0.784700
vt 0.416531 0.809715
vt 0.393790 0.809715
vt 0.484526 0.784700
vt 0.484526 0.807441
vt 0.462012 0.807441
vt 0.507039 0.784700
vt 0.507039 0.807441
vt 0.828334 0.413432
vt 0.853339 0.412725
vt 0.882920 0.567245
vt 0.857916 0.567952
vt 0.314094 0.777228
vt 0.289091 0.776520
vt 0.828391 0.381045
vt 0.805650 0.381045
vt 0.789636 0.231333
vt 0.812377 0.231333
vt 0.812377 0.387246
vt 0.789636 0.387246
vt 0.311832 0.784700
vt 0.334573 0.937431
vt 0.311832 0.937431
vt 0.536633 0.540707
vt 0.559137 0.540071
vt 0.549591 0.695696
vt 0.527087 0.696332
vt 0.311832 0.399498
vt 0.289091 0.399498
vt 0.541501 0.377730
vt 0.516498 0.377023
vt 0.289091 0.784700
vt 0.289091 0.937431
vt 0.935642 0.422163
vt 0.935642 0.578076
vt 0.015502 0.425104
vt 0.038243 0.425104
vt 0.038243 0.577835
vt 0.015502 0.577835
vt 0.805650 0.385203
vt 0.783148 0.384566
vt 0.267419 0.842693
vt 0.252425 0.842693
vt 0.267419 0.638027
vt 0.866126 0.204666
vt 0.851132 0.204666
vt 0.851132 0.000000
vt 0.866126 0.000000
vt 0.022742 0.638027
vt 0.227408 0.638028
vt 0.227407 0.853335
vt 0.022741 0.853334
vt 0.000000 0.000000
vt 1.000000 0.000000
vt 1.000000 1.000000
vt 0.000000 1.000000
vt 0.371049 0.784700
vt 0.371049 0.865846
vt 0.360278 0.867754
vt 0.360278 0.786608
vt 0.904061 0.003913
vt 0.914996 0.003913
vt 0.914995 0.186154
vt 0.904060 0.186154
vt 0.888869 0.186154
vt 0.888870 -0.000000
vt 0.931700 0.390820
vt 0.851132 0.390820
vt 0.931700 0.204666
vt 0.360277 0.789638
vt 0.360277 0.870784
vt 0.901095 0.788271
vt 0.890159 0.788271
vt 0.890159 0.606030
vt 0.901095 0.606030
vt 0.916286 0.602117
vt 0.916286 0.788271
s 0
usemtl office_chair
f 1/1/1 2/2/1 4/3/1 3/4/1
f 7/5/2 8/6/2 6/7/2 5/8/2
f 71/9/1 69/10/1 12/11/1 11/12/1
f 11/13/3 12/14/3 16/15/3 15/16/3
f 31/17/2 32/18/2 14/19/2 13/20/2
f 13/21/4 14/22/4 10/23/4 9/24/4
f 23/25/2 74/26/2 87/27/2 85/28/2
f 42/29/5 51/30/5 50/31/5 36/32/5
f 75/33/1 73/34/1 20/35/1 19/36/1
f 19/16/3 20/15/3 24/37/3 23/38/3
f 27/39/2 28/40/2 22/41/2 21/42/2
f 21/43/4 22/44/4 18/45/4 17/46/4
f 11/47/6 15/48/6 79/49/6 80/50/6
f 46/51/2 45/52/2 33/53/2 34/54/2
f 76/55/7 73/56/7 26/57/7 28/58/7
f 75/59/8 74/60/8 27/61/8 25/62/8
f 74/26/2 76/63/2 28/40/2 27/39/2
f 17/64/1 18/65/1 26/66/1 25/67/1
f 72/68/7 69/69/7 30/70/7 32/71/7
f 71/72/8 70/73/8 31/74/8 29/75/8
f 70/76/2 72/77/2 32/18/2 31/17/2
f 9/78/1 10/79/1 30/80/1 29/81/1
f 33/82/7 40/83/7 35/84/7 34/85/7
f 36/32/9 50/31/9 60/86/9 57/87/9
f 48/88/1 47/89/1 35/90/1 40/91/1
f 47/92/10 46/93/10 34/28/10 35/87/10
f 43/94/2 42/95/2 36/96/2 37/97/2
f 45/98/5 48/99/5 40/100/5 33/101/5
f 52/102/10 43/103/10 37/104/10 49/105/10
f 18/45/10 22/44/10 43/103/10 52/102/10
f 26/66/1 18/65/1 52/106/1 51/107/1
f 22/41/2 28/40/2 42/95/2 43/94/2
f 28/108/5 26/109/5 51/30/5 42/29/5
f 32/110/5 30/111/5 48/99/5 45/98/5
f 10/112/10 14/113/10 46/93/10 47/92/10
f 30/80/1 10/79/1 47/89/1 48/88/1
f 14/19/2 32/18/2 45/114/2 46/115/2
f 38/116/1 44/117/1 52/106/1 49/118/1
f 44/117/1 41/119/1 51/107/1 52/106/1
f 55/120/11 56/121/11 53/122/11 54/123/11
f 41/119/1 39/124/1 38/116/1 49/118/1 50/125/1 51/107/1
f 57/126/7 60/127/7 59/128/7 58/129/7
f 49/105/12 37/104/12 58/130/12 59/131/12
f 60/132/9 50/133/9 62/134/9 64/135/9
f 37/97/2 36/96/2 57/136/2 58/130/2
f 62/137/1 61/138/1 63/139/1 64/140/1
f 59/141/7 60/142/7 64/108/7 63/7/7
f 50/143/8 49/144/8 61/145/8 62/146/8
f 49/105/12 59/131/12 63/90/12 61/147/12
f 15/148/2 16/149/2 72/77/2 70/76/2
f 27/39/2 21/42/2 88/150/2 89/151/2
f 16/152/7 12/153/7 69/69/7 72/68/7
f 29/81/1 30/80/1 69/10/1 71/9/1
f 23/25/2 24/154/2 76/63/2 74/26/2
f 75/155/1 19/156/1 86/157/1 92/158/1
f 24/159/7 20/160/7 73/56/7 76/55/7
f 25/67/1 26/66/1 73/34/1 75/33/1
f 77/161/8 90/162/8 82/163/8 78/164/8
f 83/162/8 89/82/8 88/85/8 84/163/8
f 80/165/8 79/166/8 81/167/8 91/83/8
f 86/168/8 85/169/8 87/166/8 92/165/8
f 31/170/2 13/171/2 82/172/2 90/173/2
f 17/64/1 25/67/1 83/174/1 84/175/1
f 70/71/13 71/70/13 91/176/13 81/177/13
f 74/178/13 75/179/13 92/180/13 87/181/13
f 25/182/14 27/122/14 89/183/14 83/184/14
f 15/185/2 70/186/2 81/187/2 79/188/2
f 21/43/15 17/46/15 84/189/15 88/190/15
f 9/78/1 29/81/1 77/191/1 78/192/1
f 29/193/14 31/182/14 90/184/14 77/194/14
f 19/48/6 23/195/6 85/196/6 86/49/6
f 13/197/15 9/198/15 78/199/15 82/200/15
f 71/9/1 11/12/1 80/201/1 91/202/1
usemtl Material.011
f 3/203/3 4/204/3 8/146/3 7/205/3
f 5/206/4 6/207/4 2/208/4 1/209/4
f 3/210/8 7/211/8 5/212/8 1/213/8
f 8/214/7 4/215/7 2/216/7 6/217/7
f 39/218/2 41/219/2 65/220/2 66/221/2
f 55/222/16 67/223/16 65/224/16 41/225/16 44/226/16 56/227/16
f 44/228/17 38/229/17 53/207/17 56/230/17
f 66/214/18 65/215/18 67/216/18 68/217/18
f 55/120/1 54/123/1 68/231/1 67/232/1
f 39/233/19 66/234/19 68/235/19 54/236/19 53/237/19 38/238/19
