# Blender 4.0.1
# www.blender.org
mtllib fridge.mtl
o fridge
v -1.000000 0.000000 1.000000
v -1.000000 4.000000 1.000000
v -1.000000 0.000000 -1.000000
v -1.000000 4.000000 -1.000000
v 1.000000 0.000000 1.000000
v 1.000000 4.000000 1.000000
v 1.000000 0.000000 -1.000000
v 1.000000 4.000000 -1.000000
v -1.000000 2.707381 1.000000
v -1.000000 2.707381 -1.000000
v 1.000000 2.707381 -1.000000
v 1.000000 2.707381 1.000000
v 1.089955 2.779627 -0.927754
v 1.089955 3.927754 -0.927754
v 1.089955 3.927754 0.927754
v 1.089955 2.779627 0.927754
v 1.089955 0.072246 -0.927754
v 1.089955 2.635134 -0.927754
v 1.089955 2.635134 0.927754
v 1.089955 0.072246 0.927754
v 1.181562 3.112254 -0.769745
v 1.181562 3.178948 -0.769745
v 1.181562 3.112254 -0.836439
v 1.181562 3.178948 -0.836439
v 1.248256 3.112254 -0.769745
v 1.248256 3.178948 -0.769745
v 1.248256 3.112254 -0.836439
v 1.248256 3.178948 -0.836439
v 1.181562 3.569513 -0.769745
v 1.181562 3.569513 -0.836439
v 1.248256 3.569513 -0.836439
v 1.248256 3.569513 -0.769745
v 1.181562 3.626958 -0.769745
v 1.181562 3.626958 -0.836439
v 1.248256 3.626958 -0.836439
v 1.248256 3.626958 -0.769745
v 1.068887 3.112254 -0.836439
v 1.068887 3.112254 -0.769745
v 1.068887 3.178948 -0.769745
v 1.068887 3.178948 -0.836439
v 1.068887 3.569513 -0.769745
v 1.068887 3.569513 -0.836439
v 1.068887 3.626958 -0.769745
v 1.068887 3.626958 -0.836439
v 1.181562 1.895730 -0.769745
v 1.181562 1.962424 -0.769745
v 1.181562 1.895730 -0.836439
v 1.181562 1.962424 -0.836439
v 1.248256 1.895730 -0.769745
v 1.248256 1.962424 -0.769745
v 1.248256 1.895730 -0.836439
v 1.248256 1.962424 -0.836439
v 1.181562 2.352989 -0.769745
v 1.181562 2.352989 -0.836439
v 1.248256 2.352989 -0.836439
v 1.248256 2.352989 -0.769745
v 1.181562 2.410434 -0.769745
v 1.181562 2.410434 -0.836439
v 1.248256 2.410434 -0.836439
v 1.248256 2.410434 -0.769745
v 1.068887 1.895730 -0.836439
v 1.068887 1.895730 -0.769745
v 1.068887 1.962424 -0.769745
v 1.068887 1.962424 -0.836439
v 1.068887 2.352989 -0.769745
v 1.068887 2.352989 -0.836439
v 1.068887 2.410434 -0.769745
v 1.068887 2.410434 -0.836439
vn -1.0000 -0.0000 -0.0000
vn -0.0000 -0.0000 -1.0000
vn 0.8747 -0.3427 -0.3427
vn 0.8747 0.3427 -0.3427
vn 0.8747 0.3427 0.3427
vn 0.8747 -0.3427 0.3427
vn -0.0000 -0.0000 1.0000
vn -0.0000 -1.0000 -0.0000
vn -0.0000 1.0000 -0.0000
vn 0.4730 -0.0000 -0.8811
vn 0.3549 0.6611 -0.6611
vn 0.3549 0.6611 0.6611
vn 0.4730 -0.0000 0.8811
vn 0.3549 -0.6611 -0.6611
vn 0.3549 -0.6611 0.6611
vn -0.3015 0.3015 0.9045
vn -0.3015 0.3015 -0.9045
vn -0.5774 0.5774 -0.5774
vn -0.5774 0.5774 0.5774
vn -0.0000 -0.7071 -0.7071
vn 0.7071 -0.0000 -0.7071
vn 0.5774 -0.5774 -0.5774
vn 0.7071 -0.0000 0.7071
vn 0.5774 -0.5774 0.5774
vn -0.0000 -0.7071 0.7071
vn -0.3015 -0.3015 0.9045
vn -0.3015 -0.3015 -0.9045
vn 0.5774 0.5774 0.5774
vn -0.0000 0.7071 0.7071
vn 0.5774 0.5774 -0.5774
vn -0.0000 0.7071 -0.7071
vn -0.5774 -0.5774 -0.5774
vn -0.5774 -0.5774 0.5774
vt 0.544211 0.000000
vt 0.625000 0.000000
vt 0.625000 0.250000
vt 0.544211 0.250000
vt 0.625000 0.500000
vt 0.544211 0.500000
vt 0.548727 0.509031
vt 0.620485 0.509031
vt 0.620485 0.740969
vt 0.548727 0.740969
vt 0.544211 0.750000
vt 0.625000 0.750000
vt 0.625000 1.000000
vt 0.544211 1.000000
vt 0.125000 0.500000
vt 0.375000 0.500000
vt 0.375000 0.750000
vt 0.125000 0.750000
vt 0.875000 0.500000
vt 0.875000 0.750000
vt 0.375000 1.000000
vt 0.379515 0.509031
vt 0.539696 0.509031
vt 0.539696 0.740969
vt 0.379515 0.740969
vt 0.375000 0.250000
vt 0.375000 0.000000
s 0
usemtl Material.036
f 9/1/1 2/2/1 4/3/1 10/4/1
f 10/4/2 4/3/2 8/5/2 11/6/2
s 1
f 13/7/3 14/8/4 15/9/5 16/10/6
s 0
f 12/11/7 6/12/7 2/13/7 9/14/7
f 3/15/8 7/16/8 5/17/8 1/18/8
f 8/5/9 4/19/9 2/20/9 6/12/9
f 5/17/7 12/11/7 9/14/7 1/21/7
s 1
f 17/22/3 18/23/4 19/24/5 20/25/6
s 0
f 3/26/2 10/4/2 11/6/2 7/16/2
f 1/27/1 9/1/1 10/4/1 3/26/1
s 1
f 11/6/10 8/5/11 14/8/4 13/7/3
f 8/5/11 6/12/12 15/9/5 14/8/4
f 6/12/12 12/11/13 16/10/6 15/9/5
f 12/11/13 11/6/10 13/7/3 16/10/6
f 7/16/14 11/6/10 18/23/4 17/22/3
f 11/6/10 12/11/13 19/24/5 18/23/4
f 12/11/13 5/17/15 20/25/6 19/24/5
f 5/17/15 7/16/14 17/22/3 20/25/6
usemtl Material.038
f 22/2/16 24/3/17 40/3/18 39/2/19
f 23/26/20 24/3/17 28/5/21 27/16/22
f 27/16/22 28/5/21 26/12/23 25/17/24
f 25/17/24 26/12/23 22/13/16 21/21/25
f 23/15/20 27/16/22 25/17/24 21/18/25
f 24/3/17 22/2/16 29/2/26 30/3/27
f 29/13/26 32/12/23 36/12/28 33/13/29
f 22/13/16 26/12/23 32/12/23 29/13/26
f 28/5/21 24/3/17 30/3/27 31/5/21
f 26/12/23 28/5/21 31/5/21 32/12/23
f 35/5/30 34/19/31 33/20/29 36/12/28
f 31/5/21 30/3/27 34/3/31 35/5/30
f 32/12/23 31/5/21 35/5/30 36/12/28
f 34/3/31 30/3/27 42/3/32 44/3/18
f 38/27/33 39/2/19 40/3/18 37/26/32
f 42/3/32 41/2/33 43/2/19 44/3/18
f 23/15/20 21/18/25 38/18/33 37/15/32
f 33/20/29 34/19/31 44/19/18 43/20/19
f 29/13/26 33/13/29 43/13/19 41/13/33
f 24/3/17 23/26/20 37/26/32 40/3/18
f 30/3/27 29/2/26 41/2/33 42/3/32
f 21/21/25 22/13/16 39/13/19 38/21/33
f 46/2/16 48/3/17 64/3/18 63/2/19
f 47/26/20 48/3/17 52/5/21 51/16/22
f 51/16/22 52/5/21 50/12/23 49/17/24
f 49/17/24 50/12/23 46/13/16 45/21/25
f 47/15/20 51/16/22 49/17/24 45/18/25
f 48/3/17 46/2/16 53/2/26 54/3/27
f 53/13/26 56/12/23 60/12/28 57/13/29
f 46/13/16 50/12/23 56/12/23 53/13/26
f 52/5/21 48/3/17 54/3/27 55/5/21
f 50/12/23 52/5/21 55/5/21 56/12/23
f 59/5/30 58/19/31 57/20/29 60/12/28
f 55/5/21 54/3/27 58/3/31 59/5/30
f 56/12/23 55/5/21 59/5/30 60/12/28
f 58/3/31 54/3/27 66/3/32 68/3/18
f 62/27/33 63/2/19 64/3/18 61/26/32
f 66/3/32 65/2/33 67/2/19 68/3/18
f 47/15/20 45/18/25 62/18/33 61/15/32
f 57/20/29 58/19/31 68/19/18 67/20/19
f 53/13/26 57/13/29 67/13/19 65/13/33
f 48/3/17 47/26/20 61/26/32 64/3/18
f 54/3/27 53/2/26 65/2/33 66/3/32
f 45/21/25 46/13/16 63/13/19 62/21/33
