# Blender 4.0.1
# www.blender.org
mtllib hamper_empty.mtl
o hamper_empty
v 0.000000 0.000000 -0.768798
v 0.000000 2.000000 -1.000000
v 0.543622 0.000000 -0.543622
v 0.707107 2.000000 -0.707107
v 0.768798 0.000000 0.000000
v 1.000000 2.000000 0.000000
v 0.543622 0.000000 0.543622
v 0.707107 2.000000 0.707107
v 0.000000 0.000000 0.768798
v 0.000000 2.000000 1.000000
v -0.543622 0.000000 0.543622
v -0.707107 2.000000 0.707107
v -0.768798 0.000000 0.000000
v -1.000000 2.000000 0.000000
v -0.543622 0.000000 -0.543622
v -0.707107 2.000000 -0.707107
v 0.000000 0.006843 -0.763537
v 0.000000 1.993157 -0.993157
v 0.539902 0.006843 -0.539902
v 0.702268 1.993157 -0.702268
v 0.763537 0.006843 0.000000
v 0.993157 1.993157 0.000000
v 0.539902 0.006843 0.539902
v 0.702268 1.993157 0.702268
v 0.000000 0.006843 0.763537
v 0.000000 1.993157 0.993157
v -0.539902 0.006843 0.539902
v -0.702268 1.993157 0.702268
v -0.763537 0.006843 0.000000
v -0.993157 1.993157 0.000000
v -0.539902 0.006843 -0.539902
v -0.702268 1.993157 -0.702268
vn 0.3805 -0.1062 -0.9187
vn 0.9187 -0.1062 -0.3805
vn 0.9187 -0.1062 0.3805
vn 0.3805 -0.1062 0.9187
vn -0.3805 -0.1062 0.9187
vn -0.9187 -0.1062 0.3805
vn -0.9187 -0.1062 -0.3805
vn -0.3805 -0.1062 -0.9187
vn -0.0000 -1.0000 -0.0000
vn -0.3805 0.1062 0.9187
vn -0.9187 0.1062 0.3805
vn -0.9187 0.1062 -0.3805
vn -0.3805 0.1062 -0.9187
vn 0.3805 0.1062 -0.9187
vn 0.9187 0.1062 -0.3805
vn 0.9187 0.1062 0.3805
vn 0.3805 0.1062 0.9187
vn -0.0000 1.0000 -0.0000
vt 0.000000 1.000000
vt 0.017155 -0.024803
vt 0.413653 -0.024803
vt 0.375000 1.000000
vt 0.500000 0.901389
vt 0.783825 0.783825
vt 0.901389 0.500000
vt 0.783825 0.216175
vt 0.500000 0.098611
vt 0.216175 0.216175
vt 0.098611 0.500000
vt 0.216175 0.783825
s 0
usemtl Material.022
f 1/1/1 2/2/1 4/3/1 3/4/1
f 3/1/2 4/2/2 6/3/2 5/4/2
f 5/1/3 6/2/3 8/3/3 7/4/3
f 7/1/4 8/2/4 10/3/4 9/4/4
f 9/1/5 10/2/5 12/3/5 11/4/5
f 11/1/6 12/2/6 14/3/6 13/4/6
f 13/1/7 14/2/7 16/3/7 15/4/7
f 15/1/8 16/2/8 2/3/8 1/4/8
f 1/5/9 3/6/9 5/7/9 7/8/9 9/9/9 11/10/9 13/11/9 15/12/9
f 17/1/10 19/4/10 20/3/10 18/2/10
f 19/1/11 21/4/11 22/3/11 20/2/11
f 21/1/12 23/4/12 24/3/12 22/2/12
f 23/1/13 25/4/13 26/3/13 24/2/13
f 25/1/14 27/4/14 28/3/14 26/2/14
f 27/1/15 29/4/15 30/3/15 28/2/15
f 29/1/16 31/4/16 32/3/16 30/2/16
f 31/1/17 17/4/17 18/3/17 32/2/17
f 17/5/18 31/12/18 29/11/18 27/10/18 25/9/18 23/8/18 21/7/18 19/6/18
