# Blender 4.0.1
# www.blender.org
mtllib kitchen_counter_sink.mtl
o kitchen_counter_sink
v -1.000000 0.000000 1.000000
v -1.000000 1.800000 1.000000
v -1.000000 0.000000 -1.000000
v -1.000000 1.800000 -1.000000
v 0.800000 0.000000 1.000000
v 0.800000 1.800000 1.000000
v 0.800000 0.000000 -1.000000
v 0.800000 1.800000 -1.000000
v -0.818957 2.000000 0.818957
v -0.818957 2.000000 -0.818957
v 0.618957 2.000000 -0.818957
v 0.618957 2.000000 0.818957
v 1.000000 1.800000 -1.000000
v 1.000000 1.800000 1.000000
v 1.000000 2.000000 -1.000000
v 1.000000 2.000000 1.000000
v 0.800000 0.000000 -0.003648
v 0.800000 1.800000 0.001794
v -1.000000 2.000000 1.000000
v -1.000000 2.000000 -1.000000
v 0.800000 2.000000 -1.000000
v 0.800000 2.000000 1.000000
v -0.659116 1.471651 0.636884
v -0.659116 1.471651 -0.636884
v 0.459116 1.471651 -0.636884
v 0.459116 1.471651 0.636884
v -0.830482 1.975298 0.077808
v -0.830482 2.693282 0.077808
v -0.984385 1.975298 0.077808
v -0.984385 2.583189 0.077808
v -0.830482 1.975298 -0.085091
v -0.830482 2.693282 -0.085091
v -0.984385 1.975298 -0.085091
v -0.984385 2.583189 -0.085091
v -0.830482 2.564309 0.077808
v -0.830482 2.568000 -0.085091
v -0.471152 2.624902 0.052163
v -0.471152 2.680506 0.052163
v -0.471152 2.680506 -0.059446
v -0.471152 2.627431 -0.059446
v -0.948458 2.131625 0.203193
v -0.948458 2.131625 -0.205157
v -0.920217 2.092755 0.203193
v -0.920217 2.092755 -0.205157
v -0.874522 2.107602 0.203193
v -0.874522 2.107602 -0.205157
v -0.874522 2.155649 0.203193
v -0.874522 2.155649 -0.205157
v -0.920217 2.170496 0.203193
v -0.920217 2.170496 -0.205157
v -0.976004 2.131625 0.203193
v -0.928729 2.066557 0.203193
v -0.928729 2.066557 -0.205157
v -0.976004 2.131625 -0.205157
v -0.852237 2.091411 0.203193
v -0.852237 2.091411 -0.205157
v -0.852237 2.171840 0.203193
v -0.852237 2.171840 -0.205157
v -0.928729 2.196694 0.203193
v -0.928729 2.196694 -0.205157
v 0.007596 1.476349 -0.113449
v 0.132720 1.476349 -0.022541
v 0.084927 1.476349 0.124551
v -0.069735 1.476349 0.124551
v -0.117528 1.476349 -0.022541
vn -1.0000 -0.0000 -0.0000
vn -0.0000 -0.0000 -1.0000
vn -0.0000 -0.0000 1.0000
vn -0.0000 -1.0000 -0.0000
vn -0.9572 0.2896 -0.0000
vn 1.0000 -0.0000 -0.0000
vn -0.0000 1.0000 -0.0000
vn 0.9572 0.2896 -0.0000
vn -0.0000 0.3258 -0.9454
vn -0.0000 0.3258 0.9454
vn 0.7071 -0.0000 0.7071
vn 0.3785 -0.2880 0.8797
vn -0.1978 0.7309 0.6532
vn -0.6997 0.3598 0.6172
vn -0.7071 -0.0000 0.7071
vn -0.6997 0.3598 -0.6172
vn -0.7071 -0.0000 -0.7071
vn -0.1978 0.7309 -0.6532
vn 0.3665 -0.2867 -0.8851
vn 0.7071 -0.0000 -0.7071
vn 0.6377 -0.5324 0.5568
vn 0.6387 -0.5191 -0.5679
vn 0.6052 0.5696 -0.5561
vn 0.6052 0.5696 0.5561
vn -0.8032 -0.0000 0.5957
vn -0.8032 -0.0000 -0.5957
vn -0.2482 -0.7639 -0.5957
vn -0.2482 -0.7639 0.5957
vn 0.6498 -0.4721 -0.5957
vn 0.6498 -0.4721 0.5957
vn 0.6498 0.4721 -0.5957
vn 0.6498 0.4721 0.5957
vn -0.2482 0.7639 -0.5957
vn -0.2482 0.7639 0.5957
vt -0.241018 -0.241018
vt 1.241018 -0.241018
vt 1.241018 1.241018
vt -0.241018 1.241018
vt 0.830472 1.164340
vt -0.205472 1.164340
vt -0.205472 -0.164340
vt 0.830472 -0.164340
vt 0.787882 1.158377
vt -0.162882 1.158377
vt -0.162882 -0.158377
vt 0.787882 -0.158377
vt 0.125000 0.500000
vt 0.375000 0.500000
vt 0.375000 0.624544
vt 0.375000 0.750000
vt 0.125000 0.750000
vt 0.409565 -0.135355
vt 0.409565 1.294194
vt 0.389710 1.294194
vt 0.389710 -0.135355
vt 0.209134 0.008428
vt 0.371737 0.008428
vt 0.409565 1.135355
vt 0.429419 1.135355
vt 0.429419 1.294194
vt 0.409565 1.294194
vt 0.449274 -0.294194
vt 0.449274 1.294194
vt 0.429419 -0.294194
vt 0.409565 -0.294194
vt 0.469129 -0.294194
vt 0.469129 1.294194
vt 0.449274 1.294194
vt 0.449274 -0.294194
vt 0.389710 -0.135355
vt 0.191161 -0.135355
vt 0.191161 -0.294194
vt 0.389710 -0.294194
vt 0.508839 -0.294194
vt 0.508839 0.102191
vt 0.508839 0.500000
vt 0.469129 0.500000
vt 0.469129 -0.294194
vt 0.389710 -0.294194
vt 0.409565 -0.294194
vt -0.007311 -0.003803
vt -0.007311 1.003803
vt 0.350028 1.003803
vt 0.350028 -0.003803
vt 0.348477 -0.003803
vt 0.348477 1.003803
vt -0.008861 1.003803
vt -0.008861 -0.003803
vt 0.209134 1.150411
vt 0.371737 1.150411
vt 0.191161 1.294194
vt 0.375000 0.000000
vt 0.581288 0.000000
vt 0.625000 0.000000
vt 0.625000 0.250000
vt 0.375000 0.250000
vt 0.625000 0.500000
vt 0.625000 0.750000
vt 0.583276 0.750000
vt 0.581288 1.000000
vt 0.375000 1.000000
vt 0.875000 0.500000
vt 0.875000 0.750000
vt 0.625000 1.000000
vt 1.000000 0.500000
vt 1.000000 1.000000
vt 0.800000 1.000000
vt 0.800000 0.500000
vt 0.600000 1.000000
vt 0.600000 0.500000
vt 0.400000 1.000000
vt 0.400000 0.500000
vt 0.386354 0.294304
vt 0.250000 0.393372
vt 0.113646 0.294304
vt 0.165728 0.134010
vt 0.334272 0.134010
vt 0.200000 1.000000
vt 0.200000 0.500000
vt 0.000000 1.000000
vt 0.000000 0.500000
vt 0.750000 0.393372
vt 0.886354 0.294304
vt 0.834272 0.134010
vt 0.665728 0.134010
vt 0.613646 0.294304
vt 0.750000 0.490000
vt 0.978254 0.324164
vt 0.478254 0.324164
vt 0.250000 0.490000
vt 0.891068 0.055836
vt 0.391068 0.055836
vt 0.608932 0.055836
vt 0.108932 0.055836
vt 0.521746 0.324164
vt 0.021746 0.324164
s 0
usemtl Material.035
f 3/13/4 7/14/4 17/15/4 5/16/4 1/17/4
f 7/47/6 8/48/6 18/49/6 17/50/6
f 17/51/6 18/52/6 6/53/6 5/54/6
usemtl Material.037
f 8/18/2 4/19/2 20/20/2 21/21/2
f 22/24/3 6/25/3 14/26/3 16/27/3
f 4/28/1 2/29/1 19/26/1 20/30/1
f 2/30/3 6/25/3 22/24/3 19/31/3
f 14/32/6 13/33/6 15/34/6 16/35/6
f 21/36/7 22/37/7 16/38/7 15/39/7
f 6/40/4 18/41/4 8/42/4 13/43/4 14/44/4
f 8/18/2 21/21/2 15/45/2 13/46/2
usemtl Material.001
f 1/1/1 2/2/1 4/3/1 3/4/1
f 3/5/2 4/6/2 8/7/2 7/8/2
f 5/9/3 6/10/3 2/11/3 1/12/3
usemtl Material.039
f 12/22/5 11/23/5 25/23/5 26/22/5
f 9/55/7 10/56/7 20/20/7 19/57/7
f 10/56/7 11/23/7 21/36/7 20/20/7
f 11/23/7 12/22/7 22/37/7 21/36/7
f 12/22/7 9/55/7 19/57/7 22/37/7
f 25/23/7 24/56/7 23/55/7 26/22/7
f 10/56/8 9/55/8 23/55/8 24/56/8
f 9/55/9 12/22/9 26/22/9 23/55/9
f 11/23/10 10/56/10 24/56/10 25/23/10
s 1
usemtl Material.010
f 27/58/11 35/59/12 28/60/13 30/61/14 29/62/15
f 29/62/15 30/61/14 34/63/16 33/14/17
f 33/14/17 34/63/16 32/64/18 36/65/19 31/16/20
f 31/16/20 36/65/19 35/66/12 27/67/11
f 34/63/16 30/68/14 28/69/13 32/64/18
f 37/66/21 40/65/22 39/64/23 38/70/24
f 36/65/19 32/64/18 39/64/23 40/65/22
f 32/64/18 28/69/13 38/69/24 39/64/23
f 35/66/12 36/65/19 40/65/22 37/66/21
f 28/60/13 35/59/12 37/59/21 38/60/24
f 51/71/25 54/72/26 53/73/27 52/74/28
f 52/74/28 53/73/27 56/75/29 55/76/30
f 55/76/30 56/75/29 58/77/31 57/78/32
f 57/78/32 58/77/31 60/84/33 59/85/34
f 59/85/34 60/84/33 54/86/26 51/87/25
f 43/89/3 41/88/3 51/93/25 52/94/28
f 42/80/2 44/79/2 53/95/27 54/96/26
f 45/90/3 43/89/3 52/94/28 55/97/30
f 44/79/2 46/83/2 56/98/29 53/95/27
f 47/91/3 45/90/3 55/97/30 57/99/32
f 46/83/2 48/82/2 58/100/31 56/98/29
f 49/92/3 47/91/3 57/99/32 59/101/34
f 48/82/2 50/81/2 60/102/33 58/100/31
f 41/88/3 49/92/3 59/101/34 51/93/25
f 50/81/2 42/80/2 54/96/26 60/102/33
f 62/95/7 61/96/7 65/102/7 64/100/7 63/98/7
usemtl Material.012
f 44/79/2 42/80/2 50/81/2 48/82/2 46/83/2
usemtl Material.013
f 41/88/3 43/89/3 45/90/3 47/91/3 49/92/3
