# Blender 4.0.1
# www.blender.org
mtllib portable_tv.mtl
o portable_tv
v -0.800000 0.000000 1.500000
v -0.800000 2.000000 1.500000
v -0.800000 0.000000 -1.477887
v -0.800000 2.000000 -1.477887
v 0.900000 0.360420 1.340797
v 0.900000 1.840797 1.340797
v 0.900000 0.000000 -1.477887
v 0.900000 2.000000 -1.477887
v -0.800000 0.000000 -0.733415
v -0.800000 2.000000 -0.733415
v 0.900000 0.360420 -0.574212
v 0.900000 1.840797 -0.574212
v 0.900000 2.000000 -0.733415
v 0.900000 2.000000 1.500000
v 0.900000 0.000000 1.500000
v 0.900000 0.000000 -0.733415
v 0.722721 1.840797 -0.574212
v 0.722721 1.840797 1.340797
v 0.722721 0.360420 1.340797
v 0.722721 0.360420 -0.574212
v -0.202004 1.965113 0.644211
v -0.202004 2.226145 0.644211
v -0.202004 1.965113 -0.311657
v -0.202004 2.226145 -0.311657
v 0.202004 1.965113 0.644211
v 0.202004 2.226145 0.644211
v 0.202004 1.965113 -0.311657
v 0.202004 2.226145 -0.311657
v 0.039750 3.783045 1.034532
v 0.039750 2.188595 0.365301
v 0.039750 3.752277 1.107837
v 0.039750 2.157827 0.438606
v -0.039750 3.783045 1.034532
v -0.039750 2.188595 0.365301
v -0.039750 3.752277 1.107837
v -0.039750 2.157827 0.438606
v 0.039750 3.695894 -0.121580
v 0.039750 2.001653 0.224381
v 0.039750 3.711800 -0.043687
v 0.039750 2.017558 0.302274
v -0.039750 3.695894 -0.121580
v -0.039750 2.001653 0.224381
v -0.039750 3.711800 -0.043687
v -0.039750 2.017558 0.302274
vn -1.0000 -0.0000 -0.0000
vn -0.0000 -0.0000 -1.0000
vn -0.0000 -0.0000 1.0000
vn -0.0000 -1.0000 -0.0000
vn -0.0000 1.0000 -0.0000
vn 1.0000 -0.0000 -0.0000
vn -0.0000 0.3870 -0.9221
vn -0.0000 -0.3870 0.9221
vn -0.0000 -0.9221 -0.3870
vn -0.0000 0.9221 0.3870
vn -0.0000 -0.2001 -0.9798
vn -0.0000 0.2001 0.9798
vt 0.263672 0.523438
vt 0.513672 0.523438
vt 0.513672 0.585938
vt 0.263672 0.585938
vt 0.576172 0.343750
vt 0.996094 0.343750
vt 0.996094 0.953125
vt 0.576172 0.953125
vt 0.394900 0.575865
vt 0.605100 0.575865
vt 0.576172 0.347656
vt 0.986328 0.347656
vt 0.986328 0.953125
vt 0.125000 0.562500
vt 0.375000 0.562500
vt 0.375000 0.750000
vt 0.125000 0.750000
vt 0.625000 0.562500
vt 0.875000 0.562500
vt 0.875000 0.750000
vt 0.625000 0.750000
vt 0.625000 0.500000
vt 0.875000 0.500000
vt 0.125000 0.500000
vt 0.375000 0.500000
vt 0.156250 0.281250
vt 0.156250 1.015625
vt -0.001953 1.015625
vt -0.001953 0.281250
vt 0.574219 0.335937
vt 0.988281 0.335937
vt 0.988281 0.960937
vt 0.574219 0.960937
vt 0.505490 0.752260
vt 0.505490 0.591490
vt 0.525391 0.578125
vt 0.525391 0.765625
vt 0.295291 0.752260
vt 0.275391 0.765625
vt 1.183418 0.198789
vt 0.680233 0.198789
vt 0.638401 -0.050352
vt 1.225249 -0.050352
vt 0.464475 0.595397
vt 0.254275 0.595397
vt 0.234375 0.582031
vt 0.484375 0.582031
vt 0.605100 0.736635
vt 0.394900 0.736635
vt 0.375000 0.000000
vt 0.625000 0.000000
vt 0.625000 0.250000
vt 0.375000 0.250000
vt 0.625000 1.000000
vt 0.375000 1.000000
s 0
usemtl Material.032
f 9/1/1 10/2/1 4/3/1 3/4/1
f 3/5/2 4/6/2 8/7/2 7/8/2
f 11/9/3 12/10/3 17/10/3 20/9/3
f 15/11/3 14/12/3 2/13/3 1/8/3
f 9/14/4 16/15/4 15/16/4 1/17/4
f 13/18/5 10/19/5 2/20/5 14/21/5
f 8/22/5 4/23/5 10/19/5 13/18/5
f 3/24/4 7/25/4 16/15/4 9/14/4
f 7/26/6 8/27/6 13/28/6 16/29/6
f 1/30/1 2/31/1 10/32/1 9/33/1
f 6/34/6 12/35/6 13/36/6 14/37/6
f 5/38/6 6/34/6 14/37/6 15/39/6
f 11/40/6 5/41/6 15/42/6 16/43/6
f 12/44/6 11/45/6 16/46/6 13/47/6
f 6/48/2 5/49/2 19/49/2 18/48/2
f 5/49/5 11/9/5 20/9/5 19/49/5
f 12/10/4 6/48/4 18/48/4 17/10/4
usemtl Material.033
f 20/9/6 17/10/6 18/48/6 19/49/6
usemtl Material.034
f 21/50/1 22/51/1 24/52/1 23/53/1
f 23/53/2 24/52/2 28/22/2 27/25/2
f 27/25/6 28/22/6 26/21/6 25/16/6
f 25/16/3 26/21/3 22/54/3 21/55/3
f 23/24/4 27/25/4 25/16/4 21/17/4
f 28/22/5 24/23/5 22/20/5 26/21/5
f 29/50/1 30/51/1 32/52/1 31/53/1
f 31/53/7 32/52/7 36/22/7 35/25/7
f 35/25/6 36/22/6 34/21/6 33/16/6
f 33/16/8 34/21/8 30/54/8 29/55/8
f 31/24/9 35/25/9 33/16/9 29/17/9
f 36/22/10 32/23/10 30/20/10 34/21/10
f 37/50/1 38/51/1 40/52/1 39/53/1
f 39/53/11 40/52/11 44/22/11 43/25/11
f 43/25/6 44/22/6 42/21/6 41/16/6
f 41/16/12 42/21/12 38/54/12 37/55/12
