# Blender 4.0.1
# www.blender.org
mtllib shelf_1.mtl
o shelf_1
v -3.000000 0.000000 0.600000
v -3.000000 3.000000 0.600000
v -3.000000 0.000000 -0.600000
v -3.000000 3.000000 -0.600000
v 3.000000 0.000000 0.600000
v 3.000000 3.000000 0.600000
v 3.000000 0.000000 -0.600000
v 3.000000 3.000000 -0.600000
v 0.000000 0.000000 -0.600000
v 0.000000 3.000000 -0.600000
v 0.000000 0.000000 0.600000
v 0.000000 3.000000 0.600000
v -3.000000 1.500000 0.600000
v -3.000000 1.500000 -0.600000
v 3.000000 1.500000 -0.600000
v 3.000000 1.500000 0.600000
v 0.000000 1.500000 0.600000
v 0.000000 1.500000 -0.600000
v -1.491586 0.000000 -0.600000
v -1.491586 3.000000 0.600000
v -1.491586 3.000000 -0.600000
v -1.491586 0.000000 0.600000
v -1.491586 1.500000 -0.600000
v -1.491586 1.500000 0.600000
v 1.500000 3.000000 -0.600000
v 1.500000 0.000000 0.600000
v 1.500000 0.000000 -0.600000
v 1.500000 3.000000 0.600000
v 1.500000 1.500000 0.600000
v 1.500000 1.500000 -0.600000
v 1.626358 1.626358 -0.600000
v 1.626358 2.873642 -0.600000
v 2.873642 2.873642 -0.600000
v 2.873642 1.626358 -0.600000
v -1.365228 1.626358 -0.600000
v -1.365228 2.873642 -0.600000
v -0.126358 2.873642 -0.600000
v -0.126358 1.626358 -0.600000
v -1.365228 0.126358 -0.600000
v -1.365228 1.373642 -0.600000
v -0.126358 1.373642 -0.600000
v -0.126358 0.126358 -0.600000
v 1.626358 0.126358 -0.600000
v 1.626358 1.373642 -0.600000
v 2.873642 1.373642 -0.600000
v 2.873642 0.126358 -0.600000
v -2.873642 0.126358 -0.600000
v -2.873642 1.373642 -0.600000
v -1.617944 1.373642 -0.600000
v -1.617944 0.126358 -0.600000
v -2.873642 1.626358 -0.600000
v -2.873642 2.873642 -0.600000
v -1.617944 2.873642 -0.600000
v -1.617944 1.626358 -0.600000
v 0.126358 0.126358 -0.600000
v 0.126358 1.373642 -0.600000
v 1.373642 1.373642 -0.600000
v 1.373642 0.126358 -0.600000
v 0.126358 1.626358 -0.600000
v 0.126358 2.873642 -0.600000
v 1.373642 2.873642 -0.600000
v 1.373642 1.626358 -0.600000
v 1.626358 2.873642 0.474218
v 1.626358 1.626358 0.474218
v 2.873642 1.626358 0.474218
v 2.873642 2.873642 0.474218
v -1.365228 2.873642 0.474218
v -1.365228 1.626358 0.474218
v -0.126358 1.626358 0.474218
v -0.126358 2.873642 0.474218
v -1.365228 1.373642 0.474218
v -1.365228 0.126358 0.474218
v -0.126358 0.126358 0.474218
v -0.126358 1.373642 0.474218
v 1.626358 1.373642 0.474218
v 1.626358 0.126358 0.474218
v 2.873642 0.126358 0.474218
v 2.873642 1.373642 0.474218
v -2.873642 1.373642 0.474218
v -2.873642 0.126358 0.474218
v -1.617944 0.126358 0.474218
v -1.617944 1.373642 0.474218
v -2.873642 2.873642 0.474218
v -2.873642 1.626358 0.474218
v -1.617944 1.626358 0.474218
v -1.617944 2.873642 0.474218
v 0.126358 1.373642 0.474218
v 0.126358 0.126358 0.474218
v 1.373642 0.126358 0.474218
v 1.373642 1.373642 0.474218
v 0.126358 2.873642 0.474218
v 0.126358 1.626358 0.474218
v 1.373642 1.626358 0.474218
v 1.373642 2.873642 0.474218
vn -1.0000 -0.0000 -0.0000
vn 1.0000 -0.0000 -0.0000
vn -0.0000 -0.0000 1.0000
vn -0.0000 -1.0000 -0.0000
vn -0.0000 1.0000 -0.0000
vn -0.0000 -0.0000 -1.0000
vt 0.035878 -2.298355
vt 0.035878 -3.231139
vt 0.408992 -3.231139
vt 0.408992 -2.298355
vt 0.990716 2.779600
vt 0.796808 2.779600
vt 0.796808 1.443581
vt 0.990716 1.443581
vt 0.035878 -0.432785
vt 0.035878 -1.365570
vt 0.408992 -1.365570
vt 0.408992 -0.432785
vt -1.036825 -1.355105
vt -1.270021 -1.355105
vt -1.270021 -3.231139
vt -1.036825 -3.231139
vt -0.150679 2.365570
vt -0.150679 4.231139
vt -0.337236 4.231139
vt -0.337236 2.365570
vt 0.035878 2.355105
vt 0.035878 4.231139
vt -0.150679 2.355105
vt 0.035878 -1.365569
vt 0.035878 0.500000
vt -0.150679 0.500000
vt -0.150679 -1.365569
vt -0.150679 -1.355105
vt -0.337236 0.500000
vt -0.337236 -1.355105
vt -1.036825 2.365570
vt -1.270021 2.365570
vt -1.270021 0.500000
vt -1.036825 0.500000
vt 1.103908 -1.679876
vt 1.103908 -0.128613
vt 0.936905 -0.128613
vt 0.936905 -1.679876
vt 1.157719 -0.107682
vt 1.157719 1.443581
vt 0.990716 -0.107682
vt -0.803628 2.365570
vt -0.803628 0.500000
vt -0.803628 -1.355105
vt -0.803628 -3.231139
vt 0.035878 0.500000
vt 0.408992 0.500000
vt 0.990716 1.443581
vt 1.184624 1.443581
vt 1.184624 2.779600
vt 1.658726 -3.231139
vt 1.852633 -3.231139
vt 1.852633 -1.895120
vt 1.658726 -1.895120
vt 1.518629 2.769135
vt 1.324721 2.769135
vt 1.324721 1.433116
vt 1.518629 1.433116
vt -0.150679 -3.231139
vt -0.337236 -3.231139
vt 1.604915 -1.679876
vt 1.604915 -0.139077
vt 1.437912 -0.139077
vt 1.437912 -1.679876
vt -0.803628 4.231139
vt -1.036825 4.231139
vt -1.270021 4.231139
vt 0.035878 -3.231139
vt 1.270910 -1.679876
vt 1.270910 -0.128613
vt -0.570432 -1.365569
vt -0.803628 -1.365569
vt -0.783984 -1.522722
vt -0.590076 -1.522722
vt -0.803628 -3.231139
vt -0.783984 -3.073986
vt -0.570432 -3.231139
vt -0.590076 -3.073986
vt -0.570432 2.355105
vt -0.803628 2.355105
vt -0.783984 2.197952
vt -0.590076 2.197952
vt -0.803628 0.500000
vt -0.783984 0.657153
vt -0.570432 0.500000
vt -0.590076 0.657153
vt -0.337236 2.355105
vt -0.550788 2.197952
vt -0.356880 2.197952
vt -0.550788 0.657153
vt -0.337236 0.500000
vt -0.356880 0.657153
vt -0.337236 -1.365569
vt -0.550788 -1.522722
vt -0.356880 -1.522722
vt -0.550788 -3.073986
vt -0.356880 -3.073986
vt -0.570432 4.231139
vt -0.550788 4.073986
vt -0.356880 4.073986
vt -0.550788 2.512259
vt -0.356880 2.512259
vt -0.803628 4.231139
vt -0.783984 4.073986
vt -0.590076 4.073986
vt -0.783984 2.512259
vt -0.590076 2.512259
vt -0.550788 0.342847
vt -0.356880 0.342847
vt -0.550788 -1.208416
vt -0.356880 -1.208416
vt -0.783984 0.342847
vt -0.590076 0.342847
vt -0.783984 -1.208416
vt -0.590076 -1.208416
vt 0.602900 1.443581
vt 0.408992 1.443581
vt 0.408992 -0.107682
vt 0.602900 -0.107682
vt 1.491723 -1.690341
vt 1.297815 -1.690341
vt 1.297815 -3.231139
vt 1.491723 -3.231139
vt 1.518629 1.433116
vt 1.324721 1.433116
vt 1.324721 -0.107683
vt 1.518629 -0.107683
vt 0.796808 -0.107682
vt 0.602900 -1.669411
vt 0.408992 -1.669411
vt 0.408992 -3.231139
vt 0.602900 -3.231139
vt 0.602900 -0.107683
vt 0.408992 -0.107683
vt 0.408992 -1.669411
vt 0.602900 -1.669411
vt 1.130813 -1.679876
vt 0.936905 -3.231139
vt 1.130813 -3.231139
vt 0.796808 1.443581
vt 0.602900 1.443581
vt 0.796808 -0.107683
vt 1.879539 1.228336
vt 1.685632 1.228336
vt 1.685632 -0.107683
vt 1.879539 -0.107683
vt 1.712537 1.433116
vt 1.906445 1.433116
vt 1.906445 2.769135
vt 1.712537 2.769135
vt 0.769902 -3.231139
vt 0.769902 -1.669411
vt 1.297815 -3.231139
vt 1.297815 -1.679876
vt 1.130813 -1.679876
vt 0.769903 -0.107683
vt 1.324721 1.443581
vt 1.157718 1.443581
vt 1.157718 -0.107683
vt 1.965825 -0.343857
vt 1.771917 -0.343857
vt 1.771917 -1.679876
vt 1.965825 -1.679876
vt 1.712537 2.769135
vt 0.035878 2.051264
vt 0.229786 2.051263
vt 0.229786 3.387283
vt 0.035878 3.387283
vt 2.046542 -3.231139
vt 2.046542 -1.895120
vt 0.202881 0.500000
vt 0.202881 2.051263
vt 0.035878 2.051263
vt 0.035878 0.500000
vt 1.658726 -3.231139
vt 1.658726 -1.690341
vt 0.369883 0.500000
vt 0.369883 2.051263
vt 0.202881 2.051263
vt 0.202881 0.500000
vt 1.685632 -0.107683
vt 1.685632 1.433116
vt 0.602900 2.779600
vt 0.408992 2.779600
vt 1.879539 -0.107683
vt 2.073447 -0.107683
vt 2.073447 1.228336
vt 2.100353 1.433116
vt 2.100353 2.769135
vt 0.936905 -1.669411
vt 0.936905 -1.669411
vt 0.936905 -0.107683
vt 0.769902 -0.107683
vt 2.159733 -0.343857
vt 2.159733 -1.679876
vt 2.240450 -3.231139
vt 2.240450 -1.895120
vt 1.437912 -0.128612
vt 1.270910 -0.128612
vt 1.771917 -0.139077
s 0
usemtl Material.001
f 13/1/1 2/2/1 4/3/1 14/4/1
f 51/5/2 52/6/2 83/7/2 84/8/2
f 15/9/2 8/10/2 6/11/2 16/12/2
f 24/13/3 20/14/3 2/15/3 13/16/3
f 27/17/4 7/18/4 5/19/4 26/20/4
f 21/21/5 4/22/5 2/18/5 20/23/5
f 25/24/5 10/25/5 12/26/5 28/27/5
f 19/28/4 9/26/4 11/29/4 22/30/4
f 29/31/3 28/32/3 12/33/3 17/34/3
f 44/35/4 45/36/4 78/37/4 75/38/4
f 46/39/5 43/40/5 76/8/5 77/41/5
f 26/42/3 29/31/3 17/34/3 11/43/3
f 22/44/3 24/13/3 13/16/3 1/45/3
f 7/46/2 15/9/2 16/12/2 5/47/2
f 37/48/1 38/49/1 69/50/1 70/5/1
f 1/10/1 13/1/1 14/4/1 3/11/1
f 11/43/3 17/34/3 24/13/3 22/44/3
f 57/51/1 58/52/1 89/53/1 90/54/1
f 43/55/2 44/56/2 75/57/2 76/58/2
f 3/59/4 19/28/4 22/30/4 1/60/4
f 10/25/5 21/21/5 20/23/5 12/26/5
f 17/34/3 12/33/3 20/14/3 24/13/3
f 36/61/4 37/62/4 70/63/4 67/64/4
f 5/65/3 16/66/3 29/31/3 26/42/3
f 16/66/3 6/67/3 28/32/3 29/31/3
f 8/68/5 25/24/5 28/27/5 6/59/5
f 9/26/4 27/17/4 26/20/4 11/29/4
f 56/69/4 57/70/4 90/36/4 87/35/4
f 30/71/6 25/72/6 32/73/6 31/74/6
f 25/72/6 8/75/6 33/76/6 32/73/6
f 8/75/6 15/77/6 34/78/6 33/76/6
f 15/77/6 30/71/6 31/74/6 34/78/6
f 23/79/6 21/80/6 36/81/6 35/82/6
f 21/80/6 10/83/6 37/84/6 36/81/6
f 10/83/6 18/85/6 38/86/6 37/84/6
f 18/85/6 23/79/6 35/82/6 38/86/6
f 19/87/6 23/79/6 40/88/6 39/89/6
f 23/79/6 18/85/6 41/90/6 40/88/6
f 18/85/6 9/91/6 42/92/6 41/90/6
f 9/91/6 19/87/6 39/89/6 42/92/6
f 27/93/6 30/71/6 44/94/6 43/95/6
f 30/71/6 15/77/6 45/96/6 44/94/6
f 15/77/6 7/60/6 46/97/6 45/96/6
f 7/60/6 27/93/6 43/95/6 46/97/6
f 3/19/6 14/98/6 48/99/6 47/100/6
f 14/98/6 23/79/6 49/101/6 48/99/6
f 23/79/6 19/87/6 50/102/6 49/101/6
f 19/87/6 3/19/6 47/100/6 50/102/6
f 14/98/6 4/103/6 52/104/6 51/105/6
f 4/103/6 21/80/6 53/106/6 52/104/6
f 21/80/6 23/79/6 54/107/6 53/106/6
f 23/79/6 14/98/6 51/105/6 54/107/6
f 9/91/6 18/85/6 56/108/6 55/109/6
f 18/85/6 30/71/6 57/110/6 56/108/6
f 30/71/6 27/93/6 58/111/6 57/110/6
f 27/93/6 9/91/6 55/109/6 58/111/6
f 18/85/6 10/83/6 60/112/6 59/113/6
f 10/83/6 25/72/6 61/114/6 60/112/6
f 25/72/6 30/71/6 62/115/6 61/114/6
f 30/71/6 18/85/6 59/113/6 62/115/6
f 64/116/6 63/117/6 66/118/6 65/119/6
f 68/120/6 67/121/6 70/122/6 69/123/6
f 72/124/6 71/125/6 74/126/6 73/127/6
f 76/8/6 75/7/6 78/128/6 77/41/6
f 80/129/6 79/130/6 82/131/6 81/132/6
f 84/133/6 83/134/6 86/135/6 85/136/6
f 88/137/6 87/38/6 90/138/6 89/139/6
f 92/140/6 91/141/6 94/133/6 93/142/6
f 31/143/2 32/144/2 63/145/2 64/146/2
f 45/147/1 46/148/1 77/149/1 78/150/1
f 54/151/5 51/152/5 84/129/5 85/132/5
f 34/153/5 31/154/5 64/155/5 65/139/5
f 52/152/4 53/156/4 86/119/4 83/129/4
f 32/126/4 33/157/4 66/158/4 63/159/4
f 59/160/2 60/161/2 91/162/2 92/163/2
f 39/164/2 40/55/2 71/58/2 72/147/2
f 53/165/1 54/166/1 85/167/1 86/168/1
f 33/52/1 34/169/1 65/170/1 66/53/1
f 62/171/5 59/172/5 92/173/5 93/174/5
f 42/175/5 39/176/5 72/120/5 73/123/5
f 60/177/4 61/178/4 94/179/4 91/180/4
f 40/181/4 41/182/4 74/124/4 71/127/4
f 47/183/2 48/184/2 79/117/2 80/116/2
f 61/185/1 62/186/1 93/187/1 94/143/1
f 41/148/1 42/188/1 73/189/1 74/149/1
f 50/138/5 47/190/5 80/152/5 81/151/5
f 48/191/4 49/192/4 82/193/4 79/152/4
f 55/6/2 56/183/2 87/116/2 88/7/2
f 35/194/2 36/160/2 67/163/2 68/195/2
f 49/169/1 50/196/1 81/197/1 82/170/1
f 58/64/5 55/198/5 88/199/5 89/69/5
f 38/162/5 35/200/5 68/62/5 69/61/5
