# Blender 4.0.1
# www.blender.org
mtllib shelf_2.mtl
o shelf_2
v -1.500000 0.000000 0.500000
v -1.500000 4.000000 0.500000
v -1.500000 0.000000 -0.500000
v -1.500000 4.000000 -0.500000
v 1.500000 0.000000 0.500000
v 1.500000 4.000000 0.500000
v 1.500000 0.000000 -0.500000
v 1.500000 4.000000 -0.500000
v -1.500000 2.000000 0.500000
v -1.500000 2.000000 -0.500000
v 1.500000 2.000000 -0.500000
v 1.500000 2.000000 0.500000
v -1.500000 2.991009 0.500000
v -1.500000 2.991009 -0.500000
v 1.500000 2.991009 -0.500000
v 1.500000 2.991009 0.500000
v -1.500000 1.000000 -0.500000
v 1.500000 1.000000 -0.500000
v 1.500000 1.000000 0.500000
v -1.500000 1.000000 0.500000
v -1.403991 3.087018 -0.500000
v -1.403991 3.903991 -0.500000
v 1.403991 3.903991 -0.500000
v 1.403991 3.087018 -0.500000
v -1.403991 1.096009 -0.500000
v -1.403991 1.903991 -0.500000
v 1.403991 1.903991 -0.500000
v 1.403991 1.096009 -0.500000
v -1.403991 2.096009 -0.500000
v -1.403991 2.895001 -0.500000
v 1.403991 2.895001 -0.500000
v 1.403991 2.096009 -0.500000
v -1.403991 0.096008 -0.500000
v -1.403991 0.903992 -0.500000
v 1.403991 0.903992 -0.500000
v 1.403991 0.096008 -0.500000
v -1.403991 3.903991 0.435776
v -1.403991 3.087018 0.435776
v 1.403991 3.087018 0.435776
v 1.403991 3.903991 0.435776
v -1.403991 1.903991 0.435776
v -1.403991 1.096009 0.435776
v 1.403991 1.096009 0.435776
v 1.403991 1.903991 0.435776
v -1.403991 2.895001 0.435776
v -1.403991 2.096009 0.435776
v 1.403991 2.096009 0.435776
v 1.403991 2.895001 0.435776
v -1.403991 0.903992 0.435776
v -1.403991 0.096008 0.435776
v 1.403991 0.096008 0.435776
v 1.403991 0.903992 0.435776
vn -1.0000 -0.0000 -0.0000
vn -0.0000 1.0000 -0.0000
vn 1.0000 -0.0000 -0.0000
vn -0.0000 -0.0000 1.0000
vn -0.0000 -1.0000 -0.0000
vn -0.0000 -0.0000 -1.0000
vt 0.436173 1.756034
vt 0.436173 1.038623
vt 0.791682 1.038623
vt 0.791682 1.756034
vt 0.602511 -2.954431
vt 0.602511 1.038623
vt 0.436173 1.038623
vt 0.436173 -2.954431
vt 1.147192 1.038623
vt 1.147192 1.756034
vt -1.162020 1.311679
vt -1.341372 1.311679
vt -1.341372 -2.954431
vt -1.162020 -2.954431
vt 0.258419 -2.954431
vt 0.258419 1.311678
vt 0.080664 1.311678
vt 0.080664 -2.954431
vt 0.436173 -2.954431
vt 0.436173 1.311678
vt -0.808109 1.311678
vt -0.985863 1.311678
vt -0.985863 -2.954431
vt -0.808109 -2.954431
vt 0.791682 3.171678
vt 0.791682 2.460660
vt 1.147192 2.460660
vt 1.147192 3.171678
vt -1.054127 2.642386
vt -1.197749 2.642386
vt -1.197749 1.311678
vt -1.054127 1.311678
vt 0.436173 3.171678
vt 0.436173 2.460660
vt 1.437633 2.369331
vt 1.292412 2.369331
vt 1.292412 1.038623
vt 1.437633 1.038623
vt 0.436173 3.882696
vt 0.791682 3.882696
vt -1.341372 1.311678
vt -1.197749 2.642386
vt -1.341372 2.642386
vt 1.147192 3.882696
vt -0.630354 1.311678
vt -0.630354 -2.954431
vt -0.451001 1.311678
vt -0.613288 1.175151
vt -0.468067 1.175151
vt -0.630354 -2.954431
vt -0.613288 -2.817903
vt -0.451001 -2.954431
vt -0.468067 -2.817903
vt -0.097090 1.311678
vt -0.274845 1.311678
vt -0.257779 1.175151
vt -0.114156 1.175151
vt -0.274845 -2.954431
vt -0.257779 -2.817903
vt -0.097090 -2.954431
vt -0.114156 -2.817903
vt -0.433935 1.175151
vt -0.291911 1.175151
vt -0.433935 -2.817903
vt -0.291911 -2.817903
vt -0.080024 1.175151
vt 0.063598 1.175150
vt -0.080024 -2.817903
vt 0.063598 -2.817903
vt 1.912102 1.038623
vt 1.766881 1.038623
vt 1.766881 -2.954431
vt 1.912102 -2.954431
vt 2.199347 1.038623
vt 2.055725 1.038623
vt 2.055725 -2.954431
vt 2.199347 -2.954431
vt 2.341372 1.038623
vt 2.341372 -2.954431
vt 1.912102 1.038623
vt 1.912102 -2.954431
vt 2.055725 -2.954431
vt -0.624857 2.642386
vt -0.766882 2.642386
vt -0.766882 1.311679
vt -0.624857 1.311679
vt 0.768850 -2.954431
vt 0.768850 1.038623
vt -0.910504 2.642386
vt -0.910504 1.311678
vt 0.935189 -2.954431
vt 0.935189 1.038623
vt 1.101527 -2.954431
vt 1.101527 1.038623
vt 0.935189 1.038623
vt 0.935189 -2.954431
vt 1.267866 -2.954431
vt 1.267866 1.038623
vt 1.434204 -2.954431
vt 1.434204 1.038623
vt 1.147192 1.038623
vt 1.147192 2.369331
vt 1.600543 -2.954431
vt 1.600543 1.038623
vt -0.910504 1.311678
vt -0.766882 1.311678
vt -0.766882 2.642386
vt -0.910504 2.642386
vt -0.482833 1.311679
vt -0.482833 2.642386
s 0
usemtl Material.001
f 13/1/1 2/2/1 4/3/1 14/4/1
f 24/5/2 21/6/2 38/7/2 39/8/2
f 15/4/3 8/3/3 6/9/3 16/10/3
f 16/11/4 6/12/4 2/13/4 13/14/4
f 3/15/5 7/16/5 5/17/5 1/18/5
f 8/19/2 4/20/2 2/16/2 6/15/2
f 19/21/4 12/22/4 9/23/4 20/24/4
f 18/25/3 11/26/3 12/27/3 19/28/3
f 25/29/3 26/30/3 41/31/3 42/32/3
f 20/33/1 9/34/1 10/26/1 17/25/1
f 12/22/4 16/11/4 13/14/4 9/23/4
f 11/26/3 15/4/3 16/10/3 12/27/3
f 21/35/3 22/36/3 37/37/3 38/38/3
f 9/34/1 13/1/1 14/4/1 10/26/1
f 1/39/1 20/33/1 17/25/1 3/40/1
f 35/41/1 36/31/1 51/42/1 52/43/1
f 7/40/3 18/25/3 19/28/3 5/44/3
f 5/45/4 19/21/4 20/24/4 1/46/4
f 14/47/6 4/45/6 22/48/6 21/49/6
f 4/45/6 8/50/6 23/51/6 22/48/6
f 8/50/6 15/52/6 24/53/6 23/51/6
f 15/52/6 14/47/6 21/49/6 24/53/6
f 17/54/6 10/55/6 26/56/6 25/57/6
f 10/55/6 11/58/6 27/59/6 26/56/6
f 11/58/6 18/60/6 28/61/6 27/59/6
f 18/60/6 17/54/6 25/57/6 28/61/6
f 10/55/6 14/47/6 30/62/6 29/63/6
f 14/47/6 15/52/6 31/64/6 30/62/6
f 15/52/6 11/58/6 32/65/6 31/64/6
f 11/58/6 10/55/6 29/63/6 32/65/6
f 3/17/6 17/54/6 34/66/6 33/67/6
f 17/54/6 18/60/6 35/68/6 34/66/6
f 18/60/6 7/18/6 36/69/6 35/68/6
f 7/18/6 3/17/6 33/67/6 36/69/6
f 38/70/6 37/71/6 40/72/6 39/73/6
f 42/74/6 41/75/6 44/76/6 43/77/6
f 46/78/6 45/74/6 48/77/6 47/79/6
f 50/75/6 49/80/6 52/81/6 51/82/6
f 29/83/3 30/84/3 45/85/3 46/86/3
f 28/87/2 25/88/2 42/6/2 43/5/2
f 33/89/3 34/29/3 49/32/3 50/90/3
f 22/91/5 23/92/5 40/88/5 37/87/5
f 32/93/2 29/94/2 46/95/2 47/96/2
f 26/97/5 27/98/5 44/94/5 41/93/5
f 36/99/2 33/100/2 50/98/2 51/97/2
f 23/101/1 24/37/1 39/36/1 40/102/1
f 30/103/5 31/104/5 48/100/5 45/99/5
f 27/105/1 28/106/1 43/107/1 44/108/1
f 34/72/5 35/71/5 52/104/5 49/103/5
f 31/86/1 32/109/1 47/110/1 48/83/1
