# Blender 4.0.1
# www.blender.org
mtllib sink_1.mtl
o sink_1
v -0.061361 0.000000 0.400000
v -0.061361 2.000000 0.400000
v -0.061361 0.000000 -0.400000
v -0.061361 2.000000 -0.400000
v 0.738639 0.000000 0.400000
v 0.738639 2.000000 0.400000
v 0.738639 0.000000 -0.400000
v 0.738639 2.000000 -0.400000
v -1.066496 2.373491 1.395359
v -1.066496 2.373491 -1.395359
v 1.066496 2.373491 -1.395359
v 1.066496 2.373491 1.395359
v -0.864061 2.623991 1.192924
v -0.864061 2.623991 -1.192924
v 0.864061 2.623991 -1.192924
v 0.864061 2.623991 1.192924
v -1.066496 2.623991 1.395359
v -1.066496 2.623991 -1.395359
v 1.066496 2.623991 -1.395359
v 1.066496 2.623991 1.395359
v -0.503642 2.160403 0.695329
v -0.503642 2.160403 -0.695329
v 0.503642 2.160403 -0.695329
v 0.503642 2.160403 0.695329
v 0.882624 2.605069 -0.088974
v 0.882624 3.123254 -0.088974
v 1.054443 2.605069 -0.088974
v 1.054443 3.123254 -0.088974
v 0.882624 2.605069 0.092888
v 0.882624 3.123254 0.092888
v 1.054443 2.605069 0.092888
v 1.054443 3.123254 0.092888
v 0.882624 3.032650 -0.088974
v 0.882624 3.036771 0.092888
v 0.481465 3.046913 -0.060344
v 0.481465 3.108990 -0.060344
v 0.481465 3.108990 0.064258
v 0.481465 3.049737 0.064258
v 1.014334 2.779594 -0.153279
v 1.014334 2.779594 0.151254
v 0.982805 2.736199 -0.153279
v 0.982805 2.736199 0.151254
v 0.931791 2.752774 -0.153279
v 0.931791 2.752774 0.151254
v 0.931791 2.806414 -0.153279
v 0.931791 2.806414 0.151254
v 0.982805 2.822989 -0.153279
v 0.982805 2.822989 0.151254
v 1.045086 2.779594 -0.153279
v 0.992308 2.706951 -0.153279
v 0.992308 2.706951 0.151254
v 1.045086 2.779594 0.151254
v 0.906912 2.734698 -0.153279
v 0.906912 2.734698 0.151254
v 0.906912 2.824490 -0.153279
v 0.906912 2.824490 0.151254
v 0.992308 2.852237 -0.153279
v 0.992308 2.852237 0.151254
v 0.114399 2.172516 0.012220
v 0.023491 2.172516 0.137344
v -0.123601 2.172516 0.089551
v -0.123601 2.172516 -0.065111
v 0.023491 2.172516 -0.112904
vn -0.5774 -0.5774 0.5774
vn -0.4320 -0.7907 0.4338
vn -0.4320 -0.7907 -0.4338
vn -0.5774 -0.5774 -0.5774
vn 0.6523 -0.6403 -0.4055
vn 0.5774 -0.5774 -0.5774
vn 0.6523 -0.6403 0.4055
vn 0.5774 -0.5774 0.5774
vn 0.6071 -0.4733 -0.6383
vn 0.6071 -0.4733 0.6383
vn -0.6108 -0.5041 0.6106
vn 0.5774 0.5774 0.5774
vn -0.5774 0.5774 0.5774
vn -0.6108 -0.5041 -0.6106
vn -0.1119 0.9864 -0.1207
vn -0.1119 0.9864 0.1207
vn -0.3576 0.8910 0.2795
vn -0.3576 0.8910 -0.2795
vn -0.5774 0.5774 -0.5774
vn 0.5774 0.5774 -0.5774
vn 0.1119 0.9864 -0.1207
vn 0.1119 0.9864 0.1207
vn 0.3576 0.8910 0.2795
vn 0.3576 0.8910 -0.2795
vn -0.0000 -0.0000 -1.0000
vn 1.0000 -0.0000 -0.0000
vn -0.0000 -0.0000 1.0000
vn -1.0000 -0.0000 -0.0000
vn -0.0000 1.0000 -0.0000
vn -0.0712 -0.0000 0.9975
vn -0.0355 0.9994 -0.0000
vn -0.0339 -0.9992 0.0226
vn -0.0712 -0.0000 -0.9975
vn 0.8032 -0.0000 -0.5957
vn 0.8032 -0.0000 0.5957
vn 0.2482 -0.7639 0.5957
vn 0.2482 -0.7639 -0.5957
vn -0.6498 -0.4721 0.5957
vn -0.6498 -0.4721 -0.5957
vn -0.6498 0.4721 0.5957
vn -0.6498 0.4721 -0.5957
vn 0.2482 0.7639 0.5957
vn 0.2482 0.7639 -0.5957
vt 0.375000 0.000000
vt 0.625000 0.000000
vt 0.625000 0.250000
vt 0.375000 0.250000
vt 0.625000 0.500000
vt 0.375000 0.500000
vt 0.625000 0.750000
vt 0.375000 0.750000
vt 0.625000 1.000000
vt 0.375000 1.000000
vt 0.125000 0.500000
vt 0.125000 0.750000
vt 0.648727 0.731865
vt 0.648727 0.518135
vt 0.851273 0.731865
vt 0.851273 0.518135
vt 0.875000 0.500000
vt 0.875000 0.750000
vt 0.581288 0.000000
vt 0.583276 0.750000
vt 0.581288 1.000000
vt 1.000000 0.500000
vt 1.000000 1.000000
vt 0.800000 1.000000
vt 0.800000 0.500000
vt 0.600000 1.000000
vt 0.600000 0.500000
vt 0.400000 1.000000
vt 0.400000 0.500000
vt 0.386354 0.294304
vt 0.250000 0.393372
vt 0.113646 0.294304
vt 0.165728 0.134010
vt 0.334272 0.134010
vt 0.200000 1.000000
vt 0.200000 0.500000
vt 0.000000 1.000000
vt 0.000000 0.500000
vt 0.750000 0.393372
vt 0.886354 0.294304
vt 0.834272 0.134010
vt 0.665728 0.134010
vt 0.613646 0.294304
vt 0.750000 0.490000
vt 0.978254 0.324164
vt 0.478254 0.324164
vt 0.250000 0.490000
vt 0.891068 0.055836
vt 0.391068 0.055836
vt 0.608932 0.055836
vt 0.108932 0.055836
vt 0.521746 0.324164
vt 0.021746 0.324164
s 1
usemtl Material
f 1/1/1 2/2/2 4/3/3 3/4/4
f 3/4/4 4/3/3 8/5/5 7/6/6
f 7/6/6 8/5/5 6/7/7 5/8/8
f 5/8/8 6/7/7 2/9/2 1/10/1
f 3/11/4 7/6/6 5/8/8 1/12/1
f 6/7/7 8/5/5 11/5/9 12/7/10
f 9/9/11 12/7/10 20/7/12 17/9/13
f 4/3/3 2/2/2 9/2/11 10/3/14
f 2/9/2 6/7/7 12/7/10 9/9/11
f 8/5/5 4/3/3 10/3/14 11/5/9
f 16/13/15 15/14/16 23/14/17 24/13/18
f 11/5/9 10/3/14 18/3/19 19/5/20
f 12/7/10 11/5/9 19/5/20 20/7/12
f 10/3/14 9/2/11 17/2/13 18/3/19
f 13/15/21 14/16/22 18/17/19 17/18/13
f 14/16/22 15/14/16 19/5/20 18/17/19
f 15/14/16 16/13/15 20/7/12 19/5/20
f 16/13/15 13/15/21 17/18/13 20/7/12
f 23/14/17 22/16/23 21/15/24 24/13/18
f 14/16/22 13/15/21 21/15/24 22/16/23
f 13/15/21 16/13/15 24/13/18 21/15/24
f 15/14/16 14/16/22 22/16/23 23/14/17
s 0
usemtl Material.010
f 25/1/25 33/19/25 26/2/25 28/3/25 27/4/25
f 27/4/26 28/3/26 32/5/26 31/6/26
f 31/6/27 32/5/27 30/7/27 34/20/27 29/8/27
f 29/8/28 34/20/28 33/21/28 25/10/28
f 32/5/29 28/17/29 26/18/29 30/7/29
f 35/21/28 38/20/28 37/7/28 36/9/28
f 34/20/30 30/7/30 37/7/30 38/20/30
f 30/7/31 26/18/31 36/18/31 37/7/31
f 33/21/32 34/20/32 38/20/32 35/21/32
f 26/2/33 33/19/33 35/19/33 36/2/33
s 1
f 49/22/34 52/23/35 51/24/36 50/25/37
f 50/25/37 51/24/36 54/26/38 53/27/39
f 53/27/39 54/26/38 56/28/40 55/29/41
f 55/29/41 56/28/40 58/35/42 57/36/43
f 57/36/43 58/35/42 52/37/35 49/38/34
f 41/40/25 39/39/25 49/44/34 50/45/37
f 40/31/27 42/30/27 51/46/36 52/47/35
f 43/41/25 41/40/25 50/45/37 53/48/39
f 42/30/27 44/34/27 54/49/38 51/46/36
f 45/42/25 43/41/25 53/48/39 55/50/41
f 44/34/27 46/33/27 56/51/40 54/49/38
f 47/43/25 45/42/25 55/50/41 57/52/43
f 46/33/27 48/32/27 58/53/42 56/51/40
f 39/39/25 47/43/25 57/52/43 49/44/34
f 48/32/27 40/31/27 52/47/35 58/53/42
s 0
f 60/46/29 59/47/29 63/53/29 62/51/29 61/49/29
s 1
usemtl Material.012
f 42/30/27 40/31/27 48/32/27 46/33/27 44/34/27
usemtl Material.013
f 39/39/25 41/40/25 43/41/25 45/42/25 47/43/25
