# Blender 4.0.1
# www.blender.org
mtllib table_3.mtl
o table_3
v 0.000000 0.000000 -1.000000
v 0.000000 0.374923 -0.196519
v 0.707107 0.000000 -0.707107
v 0.138960 0.374923 -0.138960
v 1.000000 0.000000 0.000000
v 0.196519 0.374923 0.000000
v 0.707107 0.000000 0.707107
v 0.138960 0.374923 0.138960
v 0.000000 0.000000 1.000000
v 0.000000 0.374923 0.196519
v -0.707107 0.000000 0.707107
v -0.138960 0.374923 0.138960
v -1.000000 0.000000 0.000000
v -0.196519 0.374923 0.000000
v -0.707107 0.000000 -0.707107
v -0.138960 0.374923 -0.138960
v 0.138960 1.607172 -0.138960
v 0.000000 1.607172 -0.196519
v 0.196519 1.607172 0.000000
v 0.138960 1.607172 0.138960
v 0.000000 1.607172 0.196519
v -0.138960 1.607172 0.138960
v -0.196519 1.607172 0.000000
v -0.138960 1.607172 -0.138960
v 0.138960 1.760435 -0.138960
v 0.000000 1.760435 -0.196519
v 0.196519 1.760435 0.000000
v 0.138960 1.760435 0.138960
v 0.000000 1.760435 0.196519
v -0.138960 1.760435 0.138960
v -0.196519 1.760435 0.000000
v -0.138960 1.760435 -0.138960
v 1.527153 1.607172 -1.527153
v 0.000000 1.607172 -2.159721
v 2.159721 1.607172 0.000000
v 1.527153 1.607172 1.527153
v 0.000000 1.607172 2.159721
v -1.527153 1.607172 1.527153
v -2.159721 1.607172 0.000000
v -1.527153 1.607172 -1.527153
v 1.527153 1.760435 -1.527153
v 0.000000 1.760435 -2.159721
v 2.159721 1.760435 0.000000
v 1.527153 1.760435 1.527153
v 0.000000 1.760435 2.159721
v -1.527153 1.760435 1.527153
v -2.159721 1.760435 0.000000
v -1.527153 1.760435 -1.527153
vn 0.1725 0.8926 -0.4165
vn 0.4165 0.8926 -0.1725
vn 0.4165 0.8926 0.1725
vn 0.1725 0.8926 0.4165
vn -0.1725 0.8926 0.4165
vn -0.4165 0.8926 0.1725
vn -0.9239 -0.0000 -0.3827
vn -0.4165 0.8926 -0.1725
vn -0.1725 0.8926 -0.4165
vn -0.0000 -1.0000 -0.0000
vn 0.9239 -0.0000 -0.3827
vn -0.3827 -0.0000 0.9239
vn -0.3827 -0.0000 -0.9239
vn 0.3827 -0.0000 -0.9239
vn 0.9239 -0.0000 0.3827
vn -0.9239 -0.0000 0.3827
vn 0.3827 -0.0000 0.9239
vn -0.0000 1.0000 -0.0000
vt 0.781149 0.063419
vt 0.674885 -0.024613
vt 0.674885 -0.177944
vt 0.781149 -0.716816
vt 0.659660 -0.254068
vt 0.703676 -1.104180
vt 0.638129 -0.208394
vt 0.594113 -0.871762
vt 0.622904 -0.067676
vt 0.516640 -0.155708
vt 0.622904 0.085655
vt 0.516640 0.624526
vt 0.638129 0.161779
vt 0.594113 1.011891
vt 0.433391 1.263154
vt 0.373818 1.263154
vt 0.373818 -0.117280
vt 0.433391 -0.117280
vt 0.659660 0.116104
vt 0.703676 0.779472
vt 0.825492 0.002622
vt 0.791009 0.321334
vt 0.742243 0.424783
vt 0.707760 0.252369
vt 0.707760 -0.094911
vt 0.742243 -0.413624
vt 0.791009 -0.517073
vt 0.825492 -0.344658
vt 0.192554 0.441337
vt 0.185777 0.407454
vt 0.233646 -0.517073
vt 0.308120 -0.144705
vt 0.840177 1.263154
vt 0.780605 1.263154
vt 0.780605 -0.117280
vt 0.840177 -0.117280
vt 0.721032 1.263154
vt 0.636784 1.263154
vt 0.636784 -0.117280
vt 0.721032 -0.117280
vt 0.517639 1.263154
vt 0.517639 -0.117280
vt 0.577212 1.263154
vt 0.577212 -0.117280
vt 0.924425 1.263154
vt 0.924425 -0.117280
vt 0.446822 0.441337
vt 0.446822 0.509584
vt 0.440046 0.572217
vt 0.430462 0.592546
vt 0.423686 0.558664
vt 0.423686 0.490417
vt 0.430462 0.427784
vt 0.440046 0.407454
vt 0.308120 1.144706
vt 0.308120 0.394679
vt 0.176194 0.427784
vt 0.128325 -0.293652
vt 0.382593 -0.293652
vt 0.169417 0.490417
vt 0.053852 0.394679
vt 0.487915 -0.517073
vt 0.169417 0.558664
vt 0.053852 1.144706
vt 0.562388 -0.144705
vt 0.571601 0.045044
vt 0.571601 0.839997
vt 0.562388 0.839997
vt 0.562388 0.045044
vt 0.590028 -0.517073
vt 0.590028 0.045044
vt 0.580815 0.045044
vt 0.580815 -0.517073
vt 0.571601 0.045044
vt 0.571601 -0.517073
vt 0.580815 0.839997
vt 0.580815 1.402114
vt 0.571601 1.402114
vt 0.571601 0.839997
vt 0.562388 1.402114
vt 0.590028 0.839997
vt 0.562388 -0.517073
vt 0.382593 1.517073
vt 0.192554 0.509584
vt 0.308120 0.605321
vt 0.487915 1.293652
vt 0.185777 0.572217
vt 0.233646 1.293653
vt 0.562388 0.605321
vt 0.176194 0.592546
vt 0.128325 1.517073
s 0
usemtl Material.001
f 16/15/7 14/16/7 23/17/7 24/18/7
f 1/21/10 3/22/10 5/23/10 7/24/10 9/25/10 11/26/10 13/27/10 15/28/10
f 24/29/10 23/30/10 39/31/10 40/32/10
f 6/33/11 4/34/11 17/35/11 19/36/11
f 12/37/12 10/38/12 21/39/12 22/40/12
f 2/41/13 16/15/13 24/18/13 18/42/13
f 4/43/14 2/41/14 18/42/14 17/44/14
f 8/45/15 6/33/15 19/36/15 20/46/15
f 14/34/16 12/37/16 22/40/16 23/35/16
f 10/38/17 8/43/17 20/44/17 21/39/17
f 25/47/18 26/48/18 32/49/18 31/50/18 30/51/18 29/52/18 28/53/18 27/54/18
f 29/52/18 30/51/18 46/55/18 45/56/18
f 23/30/10 22/57/10 38/58/10 39/31/10
f 28/53/18 29/52/18 45/56/18 44/59/18
f 22/57/10 21/60/10 37/61/10 38/58/10
f 27/54/18 28/53/18 44/59/18 43/62/18
f 21/60/10 20/63/10 36/64/10 37/61/10
f 25/47/18 27/54/18 43/62/18 41/65/18
f 30/51/18 31/50/18 47/83/18 46/55/18
f 18/84/10 24/29/10 40/32/10 34/85/10
f 31/50/18 32/49/18 48/86/18 47/83/18
f 17/87/10 18/84/10 34/85/10 33/88/10
f 32/49/18 26/48/18 42/89/18 48/86/18
f 19/90/10 17/87/10 33/88/10 35/91/10
f 26/48/18 25/47/18 41/65/18 42/89/18
f 20/63/10 19/90/10 35/91/10 36/64/10
usemtl Material.031
f 1/1/1 2/2/1 4/3/1 3/4/1
f 3/4/2 4/3/2 6/5/2 5/6/2
f 5/6/3 6/5/3 8/7/3 7/8/3
f 7/8/4 8/7/4 10/9/4 9/10/4
f 9/10/5 10/9/5 12/11/5 11/12/5
f 11/12/6 12/11/6 14/13/6 13/14/6
f 13/14/8 14/13/8 16/19/8 15/20/8
f 15/20/9 16/19/9 2/2/9 1/1/9
f 34/66/13 40/67/13 48/68/13 42/69/13
f 39/70/16 38/71/16 46/72/16 47/73/16
f 37/73/17 36/72/17 44/74/17 45/75/17
f 35/76/11 33/77/11 41/78/11 43/79/11
f 40/67/7 39/78/7 47/80/7 48/68/7
f 38/71/12 37/81/12 45/76/12 46/72/12
f 36/72/15 35/76/15 43/79/15 44/74/15
f 33/75/14 34/66/14 42/69/14 41/82/14
