# Blender 4.0.1
# www.blender.org
mtllib table_1.mtl
o table_1
v -2.600000 1.300000 1.300000
v -2.600000 1.500000 1.300000
v -2.600000 1.300000 -1.300000
v -2.600000 1.500000 -1.300000
v 2.600000 1.300000 1.300000
v 2.600000 1.500000 1.300000
v 2.600000 1.300000 -1.300000
v 2.600000 1.500000 -1.300000
v -2.474560 0.000000 1.174561
v -2.500000 1.300000 1.200000
v -2.474560 0.000000 1.025440
v -2.500000 1.300000 1.000000
v -2.325440 0.000000 1.174561
v -2.300000 1.300000 1.200000
v -2.325440 0.000000 1.025440
v -2.300000 1.300000 1.000000
v -2.474560 0.000000 -1.025440
v -2.500000 1.300000 -1.000000
v -2.474560 0.000000 -1.174561
v -2.500000 1.300000 -1.200000
v -2.325440 0.000000 -1.025440
v -2.300000 1.300000 -1.000000
v -2.325440 0.000000 -1.174561
v -2.300000 1.300000 -1.200000
v 2.325440 0.000000 -1.025440
v 2.300000 1.300000 -1.000000
v 2.325440 0.000000 -1.174561
v 2.300000 1.300000 -1.200000
v 2.474560 0.000000 -1.025440
v 2.500000 1.300000 -1.000000
v 2.474560 0.000000 -1.174561
v 2.500000 1.300000 -1.200000
v 2.325440 0.000000 1.174561
v 2.300000 1.300000 1.200000
v 2.325440 0.000000 1.025440
v 2.300000 1.300000 1.000000
v 2.474560 0.000000 1.174561
v 2.500000 1.300000 1.200000
v 2.474560 0.000000 1.025440
v 2.500000 1.300000 1.000000
vn -1.0000 -0.0000 -0.0000
vn -0.0000 -0.0000 -1.0000
vn 1.0000 -0.0000 -0.0000
vn -0.0000 -0.0000 1.0000
vn -0.0000 -1.0000 -0.0000
vn -0.0000 1.0000 -0.0000
vn -0.9998 -0.0196 -0.0000
vn -0.0000 -0.0196 -0.9998
vn 0.9998 -0.0196 -0.0000
vn -0.0000 -0.0196 0.9998
vt 0.439515 0.500000
vt 0.428446 0.500000
vt 0.428446 -0.651190
vt 0.439515 -0.651190
vt 0.417376 1.651190
vt 0.406307 1.651190
vt 0.406307 -0.651190
vt 0.417376 -0.651190
vt 0.450584 0.500000
vt 0.450584 -0.651190
vt 0.428446 1.651190
vt 0.417376 1.651190
vt 0.428446 -0.651190
vt 0.262408 -0.651190
vt 0.262408 1.651190
vt 0.118510 1.651190
vt 0.118510 -0.651190
vt 0.406307 -0.651190
vt 0.406307 1.651190
vt 0.262408 1.651190
vt 0.450584 -0.363392
vt 0.472722 -0.651190
vt 0.472722 -0.363392
vt 0.450584 0.212203
vt 0.450584 -0.075595
vt 0.472722 -0.075595
vt 0.472722 0.212203
vt 0.450584 -0.075595
vt 0.450584 -0.363392
vt 0.472722 -0.075595
vt 0.494860 -0.075595
vt 0.494860 0.212203
vt 0.572344 -0.363392
vt 0.572344 -0.274839
vt 0.561275 -0.274839
vt 0.561275 -0.363392
vt 0.472722 -0.363392
vt 0.472722 -0.651190
vt 0.494860 -0.651190
vt 0.494860 -0.363392
vt 0.516999 -0.075595
vt 0.516999 0.212203
vt 0.494860 -0.363392
vt 0.494860 -0.075595
vt 0.539137 -0.075595
vt 0.539137 0.212203
vt 0.572344 -0.274839
vt 0.572344 -0.186286
vt 0.561275 -0.186286
vt 0.494860 -0.651190
vt 0.516999 -0.651190
vt 0.516999 -0.363392
vt 0.539137 -0.363392
vt 0.539137 -0.651190
vt 0.561275 -0.651190
vt 0.561275 -0.363392
vt 0.516999 -0.075595
vt 0.539137 -0.075595
vt 0.561275 -0.075595
vt 0.572344 -0.186286
vt 0.572344 -0.097733
vt 0.561275 -0.097733
vt 0.561275 -0.186286
vt 0.561275 -0.075595
vt 0.561275 0.212203
vt 0.583413 -0.651190
vt 0.583413 -0.363392
vt 0.572344 -0.097733
vt 0.572344 -0.009180
vt 0.561275 -0.009180
vt 0.561275 -0.097733
s 0
usemtl Material.001
f 1/1/1 2/2/1 4/3/1 3/4/1
f 3/5/2 4/6/2 8/7/2 7/8/2
f 7/9/3 8/1/3 6/4/3 5/10/3
f 5/11/4 6/12/4 2/8/4 1/13/4
f 3/14/5 7/15/5 5/16/5 1/17/5
f 8/18/6 4/19/6 2/20/6 6/14/6
f 9/21/7 10/10/7 12/22/7 11/23/7
f 11/24/8 12/25/8 16/26/8 15/27/8
f 15/28/9 16/29/9 14/23/9 13/30/9
f 13/27/10 14/26/10 10/31/10 9/32/10
f 11/33/5 15/34/5 13/35/5 9/36/5
f 17/37/7 18/38/7 20/39/7 19/40/7
f 19/32/8 20/31/8 24/41/8 23/42/8
f 23/30/9 24/23/9 22/43/9 21/44/9
f 21/42/10 22/41/10 18/45/10 17/46/10
f 19/47/5 23/48/5 21/49/5 17/35/5
f 25/43/7 26/50/7 28/51/7 27/52/7
f 27/53/8 28/54/8 32/55/8 31/56/8
f 31/44/9 32/43/9 30/52/9 29/57/9
f 29/58/10 30/53/10 26/56/10 25/59/10
f 27/60/5 31/61/5 29/62/5 25/63/5
f 33/52/7 34/51/7 36/54/7 35/53/7
f 35/46/8 36/45/8 40/64/8 39/65/8
f 39/57/9 40/52/9 38/53/9 37/58/9
f 37/56/10 38/55/10 34/66/10 33/67/10
f 35/68/5 39/69/5 37/70/5 33/71/5
