# Blender 4.0.1
# www.blender.org
mtllib table_2.mtl
o table_2
v -2.530000 1.300000 1.100000
v -2.530000 1.500000 1.100000
v -2.530000 1.300000 -1.100000
v -2.530000 1.500000 -1.100000
v 2.530000 1.300000 1.100000
v 2.530000 1.500000 1.100000
v 2.530000 1.300000 -1.100000
v 2.530000 1.500000 -1.100000
v -2.400000 0.000000 0.900000
v -2.400000 1.300000 0.900000
v -2.400000 0.000000 -0.900000
v -2.400000 1.300000 -0.900000
v -1.000000 0.000000 0.900000
v -1.000000 1.300000 0.900000
v -1.000000 0.000000 -0.900000
v -1.000000 1.300000 -0.900000
v 2.200000 -0.000000 1.000000
v 2.200000 1.300000 1.000000
v 2.200000 -0.000000 0.800000
v 2.200000 1.300000 0.800000
v 2.400000 -0.000000 1.000000
v 2.400000 1.300000 1.000000
v 2.400000 -0.000000 0.800000
v 2.400000 1.300000 0.800000
v 2.200000 -0.000000 -0.800000
v 2.200000 1.300000 -0.800000
v 2.200000 -0.000000 -1.000000
v 2.200000 1.300000 -1.000000
v 2.400000 -0.000000 -0.800000
v 2.400000 1.300000 -0.800000
v 2.400000 -0.000000 -1.000000
v 2.400000 1.300000 -1.000000
v -1.000000 0.892201 0.900000
v -2.400000 0.892201 0.900000
v -1.000000 0.398458 0.900000
v -2.400000 0.398458 0.900000
vn -1.0000 -0.0000 -0.0000
vn -0.0000 -0.0000 -1.0000
vn 1.0000 -0.0000 -0.0000
vn -0.0000 -0.0000 1.0000
vn -0.0000 -1.0000 -0.0000
vn -0.0000 1.0000 -0.0000
vt 0.326645 0.244406
vt 0.307282 0.244406
vt 0.307282 -1.459557
vt 0.326645 -1.459557
vt 0.287918 2.459557
vt 0.268555 2.459557
vt 0.268555 -1.459556
vt 0.287918 -1.459556
vt 0.346008 0.244406
vt 0.326645 0.244406
vt 0.326645 -1.459557
vt 0.346008 -1.459557
vt 0.307282 2.459557
vt 0.287918 2.459557
vt 0.307282 -1.459556
vt 0.055560 -1.459557
vt 0.055560 2.459556
vt -0.157436 2.459556
vt -0.157436 -1.459557
vt 0.268555 -1.459557
vt 0.268555 2.459556
vt 0.055560 -1.459557
vt 0.471869 -0.065406
vt 0.433292 -0.065406
vt 0.385490 -0.065406
vt 0.346008 -0.065406
vt 0.471869 -1.459557
vt 0.897859 0.709123
vt 0.771999 0.709123
vt 0.771999 -0.375217
vt 0.897859 -0.375217
vt 0.597730 -0.065406
vt 0.471869 -0.065406
vt 0.511350 -1.459557
vt 0.559153 -1.459557
vt 0.597730 -1.459557
vt 1.000000 0.343750
vt 1.000000 0.656250
vt 0.359375 0.656250
vt 0.359375 0.343750
vt 0.771999 -1.459557
vt 0.771999 -0.375217
vt 0.597730 -0.375217
vt 0.771999 -0.375217
vt 0.771999 0.709123
vt 0.597730 0.709123
vt 0.597730 -0.375217
vt 0.500914 0.438038
vt 0.500914 -0.065406
vt 0.539640 -0.065406
vt 0.539640 0.438038
vt 0.346008 0.438038
vt 0.384735 -0.065406
vt 0.384735 0.438038
vt 0.539640 0.438038
vt 0.539640 -0.065406
vt 0.578367 -0.065406
vt 0.578367 0.438038
vt 0.423461 -0.065406
vt 0.423461 0.438038
vt 0.326645 0.244406
vt 0.326645 0.399312
vt 0.307282 0.399312
vt 0.897859 -0.956113
vt 0.897859 -1.459557
vt 0.936586 -1.459557
vt 0.936586 -0.956113
vt 0.462187 -0.065406
vt 0.462187 0.438038
vt 0.897860 -0.452670
vt 0.897860 -0.956113
vt 0.936586 -0.452670
vt 0.346008 0.399311
vt 0.326645 0.399311
vt 1.000000 1.000000
vt 0.359375 1.000000
s 0
usemtl Material.001
f 1/1/1 2/2/1 4/3/1 3/4/1
f 3/5/2 4/6/2 8/7/2 7/8/2
f 7/9/3 8/10/3 6/11/3 5/12/3
f 5/13/4 6/14/4 2/8/4 1/15/4
f 3/16/5 7/17/5 5/18/5 1/19/5
f 8/20/6 4/21/6 2/17/6 6/22/6
f 9/23/1 36/24/1 34/25/1 10/26/1 12/12/1 11/27/1
f 11/28/2 12/29/2 16/30/2 15/31/2
f 15/32/3 16/33/3 14/27/3 33/34/3 35/35/3 13/36/3
f 11/41/5 15/42/5 13/43/5 9/36/5
f 16/44/6 12/45/6 10/46/6 14/47/6
f 17/48/1 18/49/1 20/50/1 19/51/1
f 19/52/2 20/26/2 24/53/2 23/54/2
f 23/55/3 24/56/3 22/57/3 21/58/3
f 21/54/4 22/53/4 18/59/4 17/60/4
f 19/61/5 23/62/5 21/63/5 17/2/5
f 25/64/1 26/65/1 28/66/1 27/67/1
f 27/60/2 28/59/2 32/68/2 31/69/2
f 31/70/3 32/71/3 30/67/3 29/72/3
f 29/69/4 30/68/4 26/49/4 25/48/4
f 27/9/5 31/73/5 29/74/5 25/1/5
usemtl Material.004
f 13/37/4 35/38/4 36/39/4 9/40/4
f 34/39/4 33/38/4 14/75/4 10/76/4
f 36/39/4 35/38/4 33/75/4 34/76/4
