# Blender 4.0.1
# www.blender.org
mtllib toilet_1.mtl
o toilet_1
v -0.420000 -0.020000 0.267105
v -0.420000 0.593462 0.267105
v -0.420000 -0.020000 -0.437736
v -0.420000 0.593462 -0.437736
v 0.420000 -0.020000 0.267105
v 0.420000 0.593462 0.267105
v 0.420000 -0.020000 -0.437736
v 0.420000 0.593462 -0.437736
v -0.306827 1.122856 1.380506
v -0.756831 1.122856 0.930501
v -0.638231 0.936453 0.988470
v 0.756831 1.122856 0.930501
v 0.306827 1.122856 1.380506
v 0.638231 0.936453 0.988470
v -0.542866 1.327484 0.841874
v -0.218199 1.327484 1.166540
v 0.218199 1.327484 1.166540
v 0.542866 1.327484 0.841874
v -0.756831 1.122856 -0.406018
v -0.406018 1.122856 -0.756831
v -0.588970 0.859030 -0.597809
v 0.406018 1.122856 -0.756831
v 0.756831 1.122856 -0.406018
v 0.588970 0.859030 -0.597809
v -0.317390 1.327484 -0.542866
v -0.542866 1.327484 -0.317390
v 0.542866 1.327484 -0.317390
v 0.317390 1.327484 -0.542866
v 0.756831 1.327484 0.930501
v 0.306827 1.327484 1.380506
v -0.306827 1.327484 1.380506
v -0.756831 1.327484 0.930501
v -0.756831 1.327484 -0.406018
v -0.406018 1.327484 -0.756831
v 0.406018 1.327484 -0.756831
v 0.756831 1.327484 -0.406018
v 0.542866 1.046497 0.841874
v 0.218199 1.046497 1.166540
v -0.218199 1.046497 1.166540
v -0.542866 1.046497 0.841874
v -0.191153 0.532310 -0.355416
v -0.171706 0.532310 -0.374864
v 0.171706 0.532310 -0.374864
v 0.191153 0.532310 -0.355416
v 0.191153 0.532310 0.100161
v -0.191153 0.532310 0.095171
v -0.542866 0.789255 -0.317390
v -0.317390 0.789255 -0.542866
v 0.317390 0.789255 -0.542866
v 0.542866 0.789255 -0.317390
v -0.542866 0.789255 0.626034
v 0.542866 0.789255 0.640204
v -0.191153 0.035030 -0.355416
v -0.171706 0.035030 -0.374864
v 0.171706 0.035030 -0.374864
v 0.191153 0.035030 -0.355416
v -0.191153 0.035030 0.095171
v 0.191153 0.035030 0.100161
v -0.566441 2.980052 -0.870815
v -0.648146 2.898346 -0.836971
v -0.498484 2.980052 -0.802857
v -0.532327 2.898346 -0.721152
v -0.498484 2.980052 -1.436871
v -0.532327 2.898346 -1.518576
v -0.566441 2.980052 -1.368913
v -0.648146 2.898346 -1.402757
v 0.498484 2.980052 -0.802857
v 0.532327 2.898346 -0.721152
v 0.566441 2.980052 -0.870815
v 0.648146 2.898346 -0.836971
v 0.566441 2.980052 -1.368913
v 0.648146 2.898346 -1.402757
v 0.498484 2.980052 -1.436871
v 0.532327 2.898346 -1.518576
v -0.648146 1.048640 -0.836971
v -0.532327 1.048640 -0.721152
v -0.532327 1.048640 -1.518576
v -0.648146 1.048640 -1.402757
v 0.648146 1.048640 -1.402757
v 0.532327 1.048640 -1.518576
v 0.532327 1.048640 -0.721152
v 0.648146 1.048640 -0.836971
v 0.079366 0.551387 -1.393532
v 0.079366 0.551387 -0.428420
v 0.353042 0.352549 -1.393532
v 0.353042 0.352549 -0.428420
v 0.248507 0.030823 -1.393532
v 0.248507 0.030823 -0.428420
v -0.089776 0.030823 -1.393532
v -0.089776 0.030823 -0.428420
v -0.194311 0.352549 -1.393532
v -0.194311 0.352549 -0.428420
v -0.542866 1.849777 -0.540606
v -0.218199 1.525111 -0.540606
v 0.218199 1.525111 -0.540606
v 0.542866 1.849777 -0.540606
v -0.317390 3.234516 -0.540606
v -0.542866 3.009041 -0.540606
v 0.542866 3.009041 -0.540606
v 0.317390 3.234516 -0.540606
v 0.756831 1.761150 -0.615064
v 0.306827 1.311145 -0.615064
v -0.306827 1.311145 -0.615064
v -0.756831 1.761150 -0.615064
v -0.756831 3.097668 -0.615064
v -0.406018 3.448482 -0.615064
v 0.406018 3.448482 -0.615064
v 0.756831 3.097668 -0.615064
v 0.756831 1.761150 -0.712990
v 0.306827 1.311145 -0.712990
v -0.306827 1.311145 -0.712990
v -0.756831 1.761150 -0.712990
v -0.756831 3.097668 -0.712990
v -0.406018 3.448482 -0.712990
v 0.406018 3.448482 -0.712990
v 0.756831 3.097668 -0.712990
v 0.542866 1.849777 -0.712990
v 0.218199 1.525111 -0.712990
v -0.218199 1.525111 -0.712990
v -0.542866 1.849777 -0.712990
v -0.542866 3.009041 -0.712990
v -0.317390 3.234516 -0.712990
v 0.317390 3.234516 -0.712990
v 0.542866 3.009041 -0.712990
v 0.012453 3.011921 -1.255558
v 0.151386 3.011921 -1.154618
v 0.098318 3.011921 -0.991293
v -0.073412 3.011921 -0.991293
v -0.126479 3.011921 -1.154618
vn -0.5774 -0.5774 0.5774
vn -0.6993 -0.5668 0.4356
vn -0.6372 -0.4188 -0.6470
vn -0.5774 -0.5774 -0.5774
vn 0.6372 -0.4188 -0.6470
vn 0.5774 -0.5774 -0.5774
vn 0.6993 -0.5668 0.4356
vn 0.5774 -0.5774 0.5774
vn 0.5668 -0.6921 0.4469
vn 0.2943 -0.4526 0.8418
vn -0.2943 -0.4526 0.8418
vn -0.5668 -0.6921 0.4469
vn 0.2971 0.6303 0.7173
vn -0.2971 0.6303 0.7173
vn 0.5491 0.8042 0.2275
vn 0.5491 0.8042 -0.2275
vn 0.7886 0.3897 -0.4757
vn 0.6543 0.6927 -0.3035
vn 0.8567 0.3976 0.3287
vn -0.9152 -0.2244 0.3347
vn -0.9295 -0.2005 -0.3096
vn -0.6241 -0.4659 -0.6273
vn -0.7173 0.6303 0.2971
vn -0.7173 0.6303 -0.2971
vn 0.9152 -0.2244 0.3347
vn 0.9295 -0.2005 -0.3096
vn 0.7173 0.6303 -0.2971
vn 0.7173 0.6303 0.2971
vn 0.6241 -0.4659 -0.6273
vn -0.3114 -0.1899 -0.9311
vn 0.3114 -0.1899 -0.9311
vn -0.2971 0.6303 -0.7173
vn 0.2971 0.6303 -0.7173
vn -0.5491 0.8042 -0.2275
vn -0.2275 0.8042 -0.5491
vn 0.2275 0.8042 -0.5491
vn 0.2275 0.8042 0.5491
vn -0.2275 0.8042 0.5491
vn -0.5491 0.8042 0.2275
vn -0.5435 0.7076 -0.4516
vn -0.8030 0.4502 0.3906
vn -0.5739 0.5767 -0.5814
vn -0.3776 0.3161 0.8703
vn -0.8567 0.3976 0.3287
vn -0.2443 0.4496 -0.8591
vn 0.2476 0.4493 -0.8584
vn -0.7923 0.3854 -0.4730
vn -0.6467 0.6982 -0.3070
vn 0.3776 0.3161 0.8703
vn 0.8030 0.4502 0.3906
vn 0.3296 0.3601 0.8727
vn -0.3296 0.3601 0.8727
vn 0.5530 0.7018 -0.4491
vn 0.5808 0.5780 -0.5732
vn -0.4778 0.4954 -0.7255
vn -0.3922 -0.8321 -0.3922
vn -0.7173 -0.6303 -0.2971
vn -0.8587 0.3689 -0.3557
vn 0.8587 0.3689 -0.3557
vn 0.7173 -0.6303 -0.2971
vn 0.3922 -0.8321 -0.3922
vn 0.4778 0.4954 -0.7255
vn 0.2971 -0.6303 0.7173
vn 0.3557 0.3689 0.8587
vn -0.3557 0.3689 0.8587
vn -0.2971 -0.6303 0.7173
vn 0.4044 0.8991 -0.1675
vn 0.1675 0.8991 -0.4044
vn -0.1675 0.8991 -0.4044
vn -0.4044 0.8991 -0.1675
vn -0.4044 0.8991 0.1675
vn -0.1675 0.8991 0.4044
vn 0.1675 0.8991 0.4044
vn 0.4044 0.8991 0.1675
vn 0.7173 -0.6303 0.2971
vn 0.8587 0.3689 0.3557
vn -0.7173 -0.6303 0.2971
vn -0.8587 0.3689 0.3557
vn -0.0000 1.0000 -0.0000
vn -0.0000 0.8032 0.5957
vn 0.7639 0.2482 0.5957
vn 0.9511 0.3090 -0.0000
vn 0.4721 -0.6498 0.5957
vn 0.5878 -0.8090 -0.0000
vn -0.4721 -0.6498 0.5957
vn -0.5878 -0.8090 -0.0000
vn -0.7639 0.2482 0.5957
vn -0.9511 0.3090 -0.0000
vn 0.1775 -0.0735 0.9814
vn 0.0735 -0.1775 0.9814
vn 0.3248 -0.7840 0.5290
vn 0.7840 -0.3248 0.5290
vn -0.0735 -0.1775 0.9814
vn -0.1775 -0.0735 0.9814
vn -0.7840 -0.3248 0.5290
vn -0.3248 -0.7840 0.5290
vn -0.1775 0.0735 0.9814
vn -0.0735 0.1775 0.9814
vn -0.3248 0.7840 0.5290
vn -0.7840 0.3248 0.5290
vn 0.0735 0.1775 0.9814
vn 0.1775 0.0735 0.9814
vn 0.7840 0.3248 0.5290
vn 0.3248 0.7840 0.5290
vn -0.0000 -0.0000 -1.0000
vn 0.7173 -0.2971 -0.6303
vn 0.2971 -0.7173 -0.6303
vn -0.2971 -0.7173 -0.6303
vn -0.7173 -0.2971 -0.6303
vn -0.7173 0.2971 -0.6303
vn -0.2971 0.7173 -0.6303
vn 0.2971 0.7173 -0.6303
vn 0.7173 0.2971 -0.6303
vt 0.375000 0.000000
vt 0.625000 0.000000
vt 0.625000 0.250000
vt 0.375000 0.250000
vt 0.625000 0.500000
vt 0.375000 0.500000
vt 0.625000 0.750000
vt 0.375000 0.750000
vt 0.625000 1.000000
vt 0.375000 1.000000
vt 0.125000 0.500000
vt 0.125000 0.750000
vt 0.625000 0.824324
vt 0.625000 0.925676
vt 0.839661 0.551401
vt 0.839661 0.686997
vt 0.839661 0.661751
vt 0.625000 0.052636
vt 0.625000 0.208966
vt 0.625000 0.208966
vt 0.625000 0.052636
vt 0.625000 0.697364
vt 0.625000 0.541034
vt 0.625000 0.697364
vt 0.625000 0.307941
vt 0.625000 0.442059
vt 0.625000 0.307941
vt 0.660339 0.686997
vt 0.713962 0.724973
vt 0.699324 0.750000
vt 0.786038 0.724973
vt 0.875000 0.697364
vt 0.800676 0.750000
vt 0.802421 0.525027
vt 0.817059 0.500000
vt 0.875000 0.541034
vt 0.697579 0.525027
vt 0.660339 0.551401
vt 0.682941 0.500000
vt 0.718429 0.621729
vt 0.718429 0.568441
vt 0.660339 0.663408
vt 0.781571 0.568441
vt 0.778359 0.566166
vt 0.721641 0.566166
vt 0.781571 0.621145
vt 0.611791 0.272337
vt 0.375000 0.272337
vt 0.375000 0.213690
vt 0.611791 0.213690
vt 0.611791 0.536310
vt 0.375000 0.536310
vt 0.375000 0.477663
vt 0.611791 0.477663
vt 0.375000 0.772337
vt 0.611791 0.772337
vt 0.611791 0.977663
vt 0.375000 0.977663
vt 0.640757 0.546921
vt 0.653864 0.525615
vt 0.846136 0.525615
vt 0.859242 0.546921
vt 0.859242 0.703079
vt 0.846136 0.724385
vt 0.653864 0.724385
vt 0.640757 0.703079
vt 0.611791 0.772337
vt 0.375000 0.713690
vt 0.611791 0.713690
vt 0.375000 0.036310
vt 0.611791 0.036310
vt 0.611791 0.213690
vt 0.611791 0.536310
vt 0.611791 0.713690
vt 0.875000 0.713690
vt 0.852663 0.750000
vt 0.852663 0.500000
vt 0.875000 0.536310
vt 0.625000 0.536310
vt 0.647337 0.500000
vt 0.647337 0.750000
vt 0.625000 0.713690
vt 0.611791 0.000000
vt 0.611791 0.036310
vt 1.000000 0.500000
vt 1.000000 1.000000
vt 0.800000 1.000000
vt 0.800000 0.500000
vt 0.600000 1.000000
vt 0.600000 0.500000
vt 0.400000 1.000000
vt 0.400000 0.500000
vt 0.478254 0.324164
vt 0.250000 0.490000
vt 0.021746 0.324164
vt 0.108932 0.055836
vt 0.391068 0.055836
vt 0.200000 1.000000
vt 0.200000 0.500000
vt 0.000000 1.000000
vt 0.000000 0.500000
s 1
usemtl Material.014
f 1/1/1 2/2/2 4/3/3 3/4/4
f 3/4/4 4/3/3 8/5/5 7/6/6
f 7/6/6 8/5/5 6/7/7 5/8/8
f 5/8/8 6/7/7 2/9/2 1/10/1
f 3/11/4 7/6/6 5/8/8 1/12/1
f 2/9/2 6/7/7 14/7/9 13/13/10 9/14/11 11/9/12
f 9/14/11 13/13/10 30/13/13 31/14/14
f 26/15/15 15/16/16 40/16/17 51/17/18 47/15/19
f 4/3/3 2/2/2 11/2/12 10/18/20 19/19/21 21/3/22
f 19/20/21 10/21/20 32/18/23 33/19/24
f 12/22/25 23/23/26 36/23/27 29/24/28
f 6/7/7 8/5/5 24/5/29 23/23/26 12/24/25 14/7/9
f 9/2/11 10/18/20 11/2/12
f 12/22/25 13/7/10 14/7/9
f 12/22/25 29/24/28 30/13/13 13/13/10
f 32/18/23 10/21/20 9/2/11 31/2/14
f 8/5/5 4/3/3 21/3/22 20/25/30 22/26/31 24/5/29
f 19/20/21 20/3/30 21/3/22
f 22/26/31 23/5/26 24/5/29
f 19/20/21 33/19/24 34/25/32 20/27/30
f 36/23/27 23/23/26 22/26/31 35/26/33
f 22/26/31 20/27/30 34/25/32 35/26/33
f 18/28/34 17/29/35 30/30/13 29/22/28
f 16/31/36 15/16/16 32/32/23 31/33/14
f 17/29/35 16/31/36 31/33/14 30/30/13
f 26/15/15 25/34/37 34/35/32 33/36/24
f 28/37/38 27/38/39 36/23/27 35/39/33
f 25/34/37 28/37/38 35/39/33 34/35/32
f 15/16/16 26/15/15 33/36/24 32/32/23
f 27/38/39 18/28/34 29/22/28 36/23/27
f 45/40/40 44/41/41 56/41/23 58/40/42
f 27/38/39 28/37/38 49/37/43 50/38/44
f 16/31/36 17/29/35 38/29/45 39/31/46
f 17/29/35 18/28/34 37/28/47 38/29/45
f 18/28/34 27/38/39 50/38/44 52/42/48 37/28/47
f 28/37/38 25/34/37 48/34/49 49/37/43
f 25/34/37 26/15/15 47/15/19 48/34/49
f 15/16/16 16/31/36 39/31/46 40/16/17
f 52/42/48 51/17/18 40/16/17 39/31/46 38/29/45 37/28/47
f 41/43/50 42/44/51 48/34/49 47/15/19
f 43/45/52 44/41/41 50/38/44 49/37/43
f 42/44/51 43/45/52 49/37/43 48/34/49
f 46/46/53 41/43/50 47/15/19 51/17/18
f 44/41/41 45/40/40 52/42/48 50/38/44
f 45/40/40 46/46/53 51/17/18 52/42/48
f 56/41/23 55/45/14 54/44/13 53/43/28 57/46/54 58/40/42
f 43/45/52 42/44/51 54/44/13 55/45/14
f 42/44/51 41/43/50 53/43/28 54/44/13
f 46/46/53 45/40/40 58/40/42 57/46/54
f 41/43/50 46/46/53 57/46/54 53/43/28
f 44/41/41 43/45/52 55/45/14 56/41/23
f 64/47/55 77/48/56 78/49/57 66/50/58
f 72/51/59 79/52/60 80/53/61 74/54/62
f 81/55/63 68/56/64 62/57/65 76/58/66
f 71/59/67 73/60/68 63/61/69 65/62/70 59/63/71 61/64/72 67/65/73 69/66/74
f 68/67/64 81/55/63 82/68/75 70/69/76
f 75/70/77 60/71/78 66/72/58 78/49/57
f 79/52/60 72/73/59 70/74/76 82/68/75
f 61/64/72 59/63/71 60/75/78 62/76/65
f 65/62/70 63/61/69 64/77/55 66/78/58
f 73/60/68 71/59/67 72/79/59 74/80/62
f 69/66/74 67/65/73 68/81/64 70/82/76
f 59/63/71 65/62/70 66/78/58 60/75/78
f 67/65/73 61/64/72 62/76/65 68/81/64
f 70/74/76 72/73/59 71/59/67 69/66/74
f 74/80/62 64/77/55 63/61/69 73/60/68
f 76/1/66 62/83/65 60/84/78 75/70/77
f 75/70/77 78/49/57 77/48/56 80/53/61 79/52/60 82/68/75 81/55/63 76/58/66
f 83/85/79 84/86/80 86/87/81 85/88/82
f 85/88/82 86/87/81 88/89/83 87/90/84
f 87/90/84 88/89/83 90/91/85 89/92/86
f 86/93/81 84/94/80 92/95/87 90/96/85 88/97/83
f 89/92/86 90/91/85 92/98/87 91/99/88
f 91/99/88 92/98/87 84/100/80 83/101/79
f 96/28/89 95/29/90 102/30/91 101/22/92
f 94/31/93 93/16/94 104/32/95 103/33/96
f 95/29/90 94/31/93 103/33/96 102/30/91
f 98/15/97 97/34/98 106/35/99 105/36/100
f 100/37/101 99/38/102 108/23/103 107/39/104
f 97/34/98 100/37/101 107/39/104 106/35/99
f 93/16/94 98/15/97 105/36/100 104/32/95
f 99/38/102 96/28/89 101/22/92 108/23/103
f 96/28/89 99/38/102 100/37/101 97/34/98 98/15/97 93/16/94 94/31/93 95/29/90
f 117/28/105 109/22/106 110/30/107 118/29/105
f 119/31/105 111/33/108 112/32/109 120/16/105
f 118/29/105 110/30/107 111/33/108 119/31/105
f 121/15/105 113/36/110 114/35/111 122/34/105
f 123/37/105 115/39/112 116/23/113 124/38/105
f 122/34/105 114/35/111 115/39/112 123/37/105
f 120/16/105 112/32/109 113/36/110 121/15/105
f 124/38/105 116/23/113 109/22/106 117/28/105
f 117/28/105 118/29/105 119/31/105 120/16/105 121/15/105 122/34/105 123/37/105 124/38/105
f 103/33/96 111/33/108 110/30/107 102/30/91
f 102/30/91 110/30/107 109/22/106 101/22/92
f 101/22/92 109/22/106 116/23/113 108/23/103
f 107/39/104 115/39/112 114/35/111 106/35/99
f 106/35/99 114/35/111 113/36/110 105/36/100
f 104/32/95 112/32/109 111/33/108 103/33/96
f 105/36/100 113/36/110 112/32/109 104/32/95
f 108/23/103 116/23/113 115/39/112 107/39/104
s 0
usemtl Material.015
f 126/93/79 125/94/79 129/95/79 128/96/79 127/97/79
