# Blender 4.0.1
# www.blender.org
mtllib towel_rack_1.mtl
o towel_rack_1
v -1.820350 0.000000 0.100000
v -1.820350 0.200000 0.100000
v -1.820350 0.000000 -0.100000
v -1.820350 0.200000 -0.100000
v -2.048506 0.000000 -0.170711
v -2.147427 0.000000 -0.029289
v -2.147427 0.200000 -0.029289
v -2.048506 0.200000 -0.170711
v -2.126940 0.000000 -0.641421
v -2.266836 0.000000 -0.641421
v -2.266836 0.200000 -0.641421
v -2.126940 0.200000 -0.641421
v -2.126940 0.000000 -0.999661
v -2.266836 0.000000 -0.999661
v -2.266836 0.200000 -0.999661
v -2.126940 0.200000 -0.999661
v 0.000000 0.000000 -0.100000
v 0.000000 0.200000 -0.100000
v 0.000000 0.000000 0.100000
v 0.000000 0.200000 0.100000
v -1.820350 0.900000 0.100000
v -1.820350 1.100000 0.100000
v -1.820350 0.900000 -0.100000
v -1.820350 1.100000 -0.100000
v -2.048506 0.900000 -0.170711
v -2.147427 0.900000 -0.029289
v -2.147427 1.100000 -0.029289
v -2.048506 1.100000 -0.170711
v -2.126940 0.900000 -0.641421
v -2.266836 0.900000 -0.641421
v -2.266836 1.100000 -0.641421
v -2.126940 1.100000 -0.641421
v -2.126940 0.900000 -0.999661
v -2.266836 0.900000 -0.999661
v -2.266836 1.100000 -0.999661
v -2.126940 1.100000 -0.999661
v 0.000000 0.900000 -0.100000
v 0.000000 1.100000 -0.100000
v 0.000000 0.900000 0.100000
v 0.000000 1.100000 0.100000
v -1.820350 1.800000 0.100000
v -1.820350 2.000000 0.100000
v -1.820350 1.800000 -0.100000
v -1.820350 2.000000 -0.100000
v -2.048506 1.800000 -0.170711
v -2.147427 1.800000 -0.029289
v -2.147427 2.000000 -0.029289
v -2.048506 2.000000 -0.170711
v -2.126940 1.800000 -0.641421
v -2.266836 1.800000 -0.641421
v -2.266836 2.000000 -0.641421
v -2.126940 2.000000 -0.641421
v -2.126940 1.800000 -0.999661
v -2.266836 1.800000 -0.999661
v -2.266836 2.000000 -0.999661
v -2.126940 2.000000 -0.999661
v 0.000000 1.800000 -0.100000
v 0.000000 2.000000 -0.100000
v 0.000000 1.800000 0.100000
v 0.000000 2.000000 0.100000
v -1.820350 2.700000 0.100000
v -1.820350 2.900000 0.100000
v -1.820350 2.700000 -0.100000
v -1.820350 2.900000 -0.100000
v -2.048506 2.700000 -0.170711
v -2.147427 2.700000 -0.029289
v -2.147427 2.900000 -0.029289
v -2.048506 2.900000 -0.170711
v -2.126940 2.700000 -0.641421
v -2.266836 2.700000 -0.641421
v -2.266836 2.900000 -0.641421
v -2.126940 2.900000 -0.641421
v -2.126940 2.700000 -0.999661
v -2.266836 2.700000 -0.999661
v -2.266836 2.900000 -0.999661
v -2.126940 2.900000 -0.999661
v 0.000000 2.700000 -0.100000
v 0.000000 2.900000 -0.100000
v 0.000000 2.700000 0.100000
v 0.000000 2.900000 0.100000
v -1.820350 3.600000 0.100000
v -1.820350 3.800000 0.100000
v -1.820350 3.600000 -0.100000
v -1.820350 3.800000 -0.100000
v -2.048506 3.600000 -0.170711
v -2.147427 3.600000 -0.029289
v -2.147427 3.800000 -0.029289
v -2.048506 3.800000 -0.170711
v -2.126940 3.600000 -0.641421
v -2.266836 3.600000 -0.641421
v -2.266836 3.800000 -0.641421
v -2.126940 3.800000 -0.641421
v -2.126940 3.600000 -0.999661
v -2.266836 3.600000 -0.999661
v -2.266836 3.800000 -0.999661
v -2.126940 3.800000 -0.999661
v 0.000000 3.600000 -0.100000
v 0.000000 3.800000 -0.100000
v 0.000000 3.600000 0.100000
v 0.000000 3.800000 0.100000
v -1.820350 4.500000 0.100000
v -1.820350 4.700000 0.100000
v -1.820350 4.500000 -0.100000
v -1.820350 4.700000 -0.100000
v -2.048506 4.500000 -0.170711
v -2.147427 4.500000 -0.029289
v -2.147427 4.700000 -0.029289
v -2.048506 4.700000 -0.170711
v -2.126940 4.500000 -0.641421
v -2.266836 4.500000 -0.641421
v -2.266836 4.700000 -0.641421
v -2.126940 4.700000 -0.641421
v -2.126940 4.500000 -0.999661
v -2.266836 4.500000 -0.999661
v -2.266836 4.700000 -0.999661
v -2.126940 4.700000 -0.999661
v 0.000000 4.500000 -0.100000
v 0.000000 4.700000 -0.100000
v 0.000000 4.500000 0.100000
v 0.000000 4.700000 0.100000
v -1.820350 5.400000 0.100000
v -1.820350 5.600000 0.100000
v -1.820350 5.400000 -0.100000
v -1.820350 5.600000 -0.100000
v -2.048506 5.400000 -0.170711
v -2.147427 5.400000 -0.029289
v -2.147427 5.600000 -0.029289
v -2.048506 5.600000 -0.170711
v -2.126940 5.400000 -0.641421
v -2.266836 5.400000 -0.641421
v -2.266836 5.600000 -0.641421
v -2.126940 5.600000 -0.641421
v -2.126940 5.400000 -0.999661
v -2.266836 5.400000 -0.999661
v -2.266836 5.600000 -0.999661
v -2.126940 5.600000 -0.999661
v 0.000000 5.400000 -0.100000
v 0.000000 5.600000 -0.100000
v 0.000000 5.400000 0.100000
v 0.000000 5.600000 0.100000
v -1.820350 6.300000 0.100000
v -1.820350 6.500000 0.100000
v -1.820350 6.300000 -0.100000
v -1.820350 6.500000 -0.100000
v -2.048506 6.300000 -0.170711
v -2.147427 6.300000 -0.029289
v -2.147427 6.500000 -0.029289
v -2.048506 6.500000 -0.170711
v -2.126940 6.300000 -0.641421
v -2.266836 6.300000 -0.641421
v -2.266836 6.500000 -0.641421
v -2.126940 6.500000 -0.641421
v -2.126940 6.300000 -0.999661
v -2.266836 6.300000 -0.999661
v -2.266836 6.500000 -0.999661
v -2.126940 6.500000 -0.999661
v 0.000000 6.300000 -0.100000
v 0.000000 6.500000 -0.100000
v 0.000000 6.300000 0.100000
v 0.000000 6.500000 0.100000
v 1.820350 0.000000 0.100000
v 1.820350 0.200000 0.100000
v 1.820350 0.000000 -0.100000
v 1.820350 0.200000 -0.100000
v 2.048506 0.000000 -0.170711
v 2.147427 0.000000 -0.029289
v 2.147427 0.200000 -0.029289
v 2.048506 0.200000 -0.170711
v 2.126940 0.000000 -0.641421
v 2.266836 0.000000 -0.641421
v 2.266836 0.200000 -0.641421
v 2.126940 0.200000 -0.641421
v 2.126940 0.000000 -0.999661
v 2.266836 0.000000 -0.999661
v 2.266836 0.200000 -0.999661
v 2.126940 0.200000 -0.999661
v 1.820350 0.900000 0.100000
v 1.820350 1.100000 0.100000
v 1.820350 0.900000 -0.100000
v 1.820350 1.100000 -0.100000
v 2.048506 0.900000 -0.170711
v 2.147427 0.900000 -0.029289
v 2.147427 1.100000 -0.029289
v 2.048506 1.100000 -0.170711
v 2.126940 0.900000 -0.641421
v 2.266836 0.900000 -0.641421
v 2.266836 1.100000 -0.641421
v 2.126940 1.100000 -0.641421
v 2.126940 0.900000 -0.999661
v 2.266836 0.900000 -0.999661
v 2.266836 1.100000 -0.999661
v 2.126940 1.100000 -0.999661
v 1.820350 1.800000 0.100000
v 1.820350 2.000000 0.100000
v 1.820350 1.800000 -0.100000
v 1.820350 2.000000 -0.100000
v 2.048506 1.800000 -0.170711
v 2.147427 1.800000 -0.029289
v 2.147427 2.000000 -0.029289
v 2.048506 2.000000 -0.170711
v 2.126940 1.800000 -0.641421
v 2.266836 1.800000 -0.641421
v 2.266836 2.000000 -0.641421
v 2.126940 2.000000 -0.641421
v 2.126940 1.800000 -0.999661
v 2.266836 1.800000 -0.999661
v 2.266836 2.000000 -0.999661
v 2.126940 2.000000 -0.999661
v 1.820350 2.700000 0.100000
v 1.820350 2.900000 0.100000
v 1.820350 2.700000 -0.100000
v 1.820350 2.900000 -0.100000
v 2.048506 2.700000 -0.170711
v 2.147427 2.700000 -0.029289
v 2.147427 2.900000 -0.029289
v 2.048506 2.900000 -0.170711
v 2.126940 2.700000 -0.641421
v 2.266836 2.700000 -0.641421
v 2.266836 2.900000 -0.641421
v 2.126940 2.900000 -0.641421
v 2.126940 2.700000 -0.999661
v 2.266836 2.700000 -0.999661
v 2.266836 2.900000 -0.999661
v 2.126940 2.900000 -0.999661
v 1.820350 3.600000 0.100000
v 1.820350 3.800000 0.100000
v 1.820350 3.600000 -0.100000
v 1.820350 3.800000 -0.100000
v 2.048506 3.600000 -0.170711
v 2.147427 3.600000 -0.029289
v 2.147427 3.800000 -0.029289
v 2.048506 3.800000 -0.170711
v 2.126940 3.600000 -0.641421
v 2.266836 3.600000 -0.641421
v 2.266836 3.800000 -0.641421
v 2.126940 3.800000 -0.641421
v 2.126940 3.600000 -0.999661
v 2.266836 3.600000 -0.999661
v 2.266836 3.800000 -0.999661
v 2.126940 3.800000 -0.999661
v 1.820350 4.500000 0.100000
v 1.820350 4.700000 0.100000
v 1.820350 4.500000 -0.100000
v 1.820350 4.700000 -0.100000
v 2.048506 4.500000 -0.170711
v 2.147427 4.500000 -0.029289
v 2.147427 4.700000 -0.029289
v 2.048506 4.700000 -0.170711
v 2.126940 4.500000 -0.641421
v 2.266836 4.500000 -0.641421
v 2.266836 4.700000 -0.641421
v 2.126940 4.700000 -0.641421
v 2.126940 4.500000 -0.999661
v 2.266836 4.500000 -0.999661
v 2.266836 4.700000 -0.999661
v 2.126940 4.700000 -0.999661
v 1.820350 5.400000 0.100000
v 1.820350 5.600000 0.100000
v 1.820350 5.400000 -0.100000
v 1.820350 5.600000 -0.100000
v 2.048506 5.400000 -0.170711
v 2.147427 5.400000 -0.029289
v 2.147427 5.600000 -0.029289
v 2.048506 5.600000 -0.170711
v 2.126940 5.400000 -0.641421
v 2.266836 5.400000 -0.641421
v 2.266836 5.600000 -0.641421
v 2.126940 5.600000 -0.641421
v 2.126940 5.400000 -0.999661
v 2.266836 5.400000 -0.999661
v 2.266836 5.600000 -0.999661
v 2.126940 5.600000 -0.999661
v 1.820350 6.300000 0.100000
v 1.820350 6.500000 0.100000
v 1.820350 6.300000 -0.100000
v 1.820350 6.500000 -0.100000
v 2.048506 6.300000 -0.170711
v 2.147427 6.300000 -0.029289
v 2.147427 6.500000 -0.029289
v 2.048506 6.500000 -0.170711
v 2.126940 6.300000 -0.641421
v 2.266836 6.300000 -0.641421
v 2.266836 6.500000 -0.641421
v 2.126940 6.500000 -0.641421
v 2.126940 6.300000 -0.999661
v 2.266836 6.300000 -0.999661
v 2.266836 6.500000 -0.999661
v 2.126940 6.500000 -0.999661
v -0.055960 2.948799 0.181404
v -0.055960 4.609632 0.181404
v -0.055960 2.948799 0.091545
v -0.055960 4.609632 0.091545
v 1.826957 2.948799 0.181404
v 1.826957 4.609632 0.181404
v 1.826957 2.948799 0.091545
v 1.826957 4.609632 0.091545
v -0.055960 3.630386 -0.098148
v -0.055960 4.609632 -0.098148
v -0.055960 3.630386 -0.188008
v -0.055960 4.609632 -0.188008
v 1.826957 3.630386 -0.098148
v 1.826957 4.609632 -0.098148
v 1.826957 3.630386 -0.188008
v 1.826957 4.609632 -0.188008
v -0.055960 4.694917 -0.048224
v -0.055960 4.694917 0.041620
v 1.826957 4.694916 0.041620
v 1.826957 4.694916 -0.048224
v 1.826957 4.772837 0.086375
v 1.826957 4.772837 -0.092979
v -0.055960 4.772837 0.086375
v -0.055960 4.772837 -0.092979
v -1.798437 1.340601 0.181404
v -1.798437 1.935966 0.181404
v -1.798437 1.340601 0.091545
v -1.798437 1.935966 0.091545
v -0.414964 1.340601 0.181404
v -0.414964 1.935966 0.181404
v -0.414964 1.340601 0.091545
v -0.414964 1.935966 0.091545
v -1.798437 0.956720 -0.098148
v -1.798437 1.935966 -0.098148
v -1.798437 0.956720 -0.188008
v -1.798437 1.935966 -0.188008
v -0.414964 0.956720 -0.098148
v -0.414964 1.935966 -0.098148
v -0.414964 0.956720 -0.188008
v -0.414964 1.935966 -0.188008
v -1.798437 2.021251 -0.048224
v -1.798437 2.021252 0.041620
v -0.414964 2.021251 0.041620
v -0.414963 2.021251 -0.048224
v -0.414964 2.099172 0.086375
v -0.414964 2.099172 -0.092979
v -1.798437 2.099172 0.086375
v -1.798437 2.099171 -0.092979
vn 0.1003 0.7424 -0.6624
vn 0.1003 -0.7424 -0.6624
vn 0.4014 -0.8462 -0.3504
vn 0.4014 0.8462 -0.3504
vn -0.0000 -0.7071 0.7071
vn -0.0000 0.7071 0.7071
vn -0.1394 0.6673 0.7316
vn -0.1394 -0.6673 0.7316
vn -0.0000 0.7071 -0.7071
vn -0.6074 0.6133 0.5049
vn 0.6852 0.7261 -0.0567
vn -0.7241 0.6861 0.0700
vn -0.6074 -0.6133 0.5049
vn 0.6852 -0.7261 -0.0567
vn 0.5774 -0.5774 -0.5774
vn 0.5774 0.5774 -0.5774
vn -0.7241 -0.6861 0.0700
vn -0.5774 -0.5774 -0.5774
vn -0.5774 0.5774 -0.5774
vn -0.0000 -0.7071 -0.7071
vn -0.1003 0.7424 -0.6624
vn -0.4014 0.8462 -0.3504
vn -0.4014 -0.8462 -0.3504
vn -0.1003 -0.7424 -0.6624
vn 0.1394 -0.6673 0.7316
vn 0.1394 0.6673 0.7316
vn 0.6074 0.6133 0.5049
vn 0.7241 0.6861 0.0700
vn -0.6852 0.7261 -0.0567
vn 0.6074 -0.6133 0.5049
vn -0.6852 -0.7261 -0.0567
vn 0.7241 -0.6861 0.0700
vn -0.5774 -0.5774 0.5774
vn -0.6529 0.1974 0.7313
vn -0.7710 -0.1667 -0.6146
vn 0.7710 -0.1667 -0.6146
vn 0.6529 0.1974 0.7313
vn 0.5774 -0.5774 0.5774
vn 0.7710 -0.1667 0.6146
vn 0.6529 0.1974 -0.7313
vn 0.6103 0.6868 -0.3948
vn 0.8378 -0.4736 0.2715
vn -0.7710 -0.1667 0.6146
vn -0.6529 0.1974 -0.7313
vn -0.8378 -0.4736 0.2715
vn -0.6103 0.6868 -0.3948
vn 0.8378 -0.4736 -0.2715
vn -0.8378 -0.4736 -0.2715
vn 0.6103 0.6868 0.3948
vn -0.6103 0.6868 0.3948
vt 0.625000 0.250000
vt 0.375000 0.250000
vt 0.375000 0.879373
vt 0.625000 0.879373
vt 0.625000 1.000000
vt 0.375000 1.000000
vt 0.754373 0.500000
vt 0.875000 0.500000
vt 0.875000 0.750000
vt 0.754373 0.750000
vt 0.125000 0.500000
vt 0.125000 0.750000
vt 0.375000 0.000000
vt 0.625000 0.000000
vt 0.245627 0.500000
vt 0.245627 0.750000
vt 0.625000 0.370627
vt 0.375000 0.370627
vt 0.625000 0.500000
vt 0.375000 0.500000
vt 0.625000 0.750000
vt 0.375000 0.750000
vt 0.625000 0.583333
vt 0.625000 0.666667
vt 0.625000 0.750000
vt 0.625000 0.500000
vt 0.625000 0.083333
vt 0.625000 0.166667
s 1
usemtl Material.016
f 4/1/1 3/2/2 5/2/3 8/1/4
f 19/3/5 20/4/6 2/5/7 1/6/8
f 18/7/9 4/8/1 2/9/7 20/10/6
f 7/9/10 8/8/4 12/8/11 11/9/12
f 1/6/8 2/5/7 7/5/10 6/6/13
f 2/9/7 4/8/1 8/8/4 7/9/10
f 3/11/2 1/12/8 6/12/13 5/11/3
f 12/1/11 9/2/14 13/2/15 16/1/16
f 5/11/3 6/12/13 10/12/17 9/11/14
f 8/1/4 5/2/3 9/2/14 12/1/11
f 6/6/13 7/5/10 11/5/12 10/6/17
f 14/13/18 15/14/19 16/1/16 13/2/15
f 10/6/17 11/5/12 15/5/19 14/6/18
f 11/9/12 12/8/11 16/8/16 15/9/19
f 9/11/14 10/12/17 14/12/18 13/11/15
f 3/11/2 17/15/20 19/16/5 1/12/8
f 3/2/2 4/1/1 18/17/9 17/18/20
f 24/1/1 23/2/2 25/2/3 28/1/4
f 39/3/5 40/4/6 22/5/7 21/6/8
f 38/7/9 24/8/1 22/9/7 40/10/6
f 27/9/10 28/8/4 32/8/11 31/9/12
f 21/6/8 22/5/7 27/5/10 26/6/13
f 22/9/7 24/8/1 28/8/4 27/9/10
f 23/11/2 21/12/8 26/12/13 25/11/3
f 32/1/11 29/2/14 33/2/15 36/1/16
f 25/11/3 26/12/13 30/12/17 29/11/14
f 28/1/4 25/2/3 29/2/14 32/1/11
f 26/6/13 27/5/10 31/5/12 30/6/17
f 34/13/18 35/14/19 36/1/16 33/2/15
f 30/6/17 31/5/12 35/5/19 34/6/18
f 31/9/12 32/8/11 36/8/16 35/9/19
f 29/11/14 30/12/17 34/12/18 33/11/15
f 23/11/2 37/15/20 39/16/5 21/12/8
f 23/2/2 24/1/1 38/17/9 37/18/20
f 44/1/1 43/2/2 45/2/3 48/1/4
f 59/3/5 60/4/6 42/5/7 41/6/8
f 58/7/9 44/8/1 42/9/7 60/10/6
f 47/9/10 48/8/4 52/8/11 51/9/12
f 41/6/8 42/5/7 47/5/10 46/6/13
f 42/9/7 44/8/1 48/8/4 47/9/10
f 43/11/2 41/12/8 46/12/13 45/11/3
f 52/1/11 49/2/14 53/2/15 56/1/16
f 45/11/3 46/12/13 50/12/17 49/11/14
f 48/1/4 45/2/3 49/2/14 52/1/11
f 46/6/13 47/5/10 51/5/12 50/6/17
f 54/13/18 55/14/19 56/1/16 53/2/15
f 50/6/17 51/5/12 55/5/19 54/6/18
f 51/9/12 52/8/11 56/8/16 55/9/19
f 49/11/14 50/12/17 54/12/18 53/11/15
f 43/11/2 57/15/20 59/16/5 41/12/8
f 43/2/2 44/1/1 58/17/9 57/18/20
f 64/1/1 63/2/2 65/2/3 68/1/4
f 79/3/5 80/4/6 62/5/7 61/6/8
f 78/7/9 64/8/1 62/9/7 80/10/6
f 67/9/10 68/8/4 72/8/11 71/9/12
f 61/6/8 62/5/7 67/5/10 66/6/13
f 62/9/7 64/8/1 68/8/4 67/9/10
f 63/11/2 61/12/8 66/12/13 65/11/3
f 72/1/11 69/2/14 73/2/15 76/1/16
f 65/11/3 66/12/13 70/12/17 69/11/14
f 68/1/4 65/2/3 69/2/14 72/1/11
f 66/6/13 67/5/10 71/5/12 70/6/17
f 74/13/18 75/14/19 76/1/16 73/2/15
f 70/6/17 71/5/12 75/5/19 74/6/18
f 71/9/12 72/8/11 76/8/16 75/9/19
f 69/11/14 70/12/17 74/12/18 73/11/15
f 63/11/2 77/15/20 79/16/5 61/12/8
f 63/2/2 64/1/1 78/17/9 77/18/20
f 84/1/1 83/2/2 85/2/3 88/1/4
f 99/3/5 100/4/6 82/5/7 81/6/8
f 98/7/9 84/8/1 82/9/7 100/10/6
f 87/9/10 88/8/4 92/8/11 91/9/12
f 81/6/8 82/5/7 87/5/10 86/6/13
f 82/9/7 84/8/1 88/8/4 87/9/10
f 83/11/2 81/12/8 86/12/13 85/11/3
f 92/1/11 89/2/14 93/2/15 96/1/16
f 85/11/3 86/12/13 90/12/17 89/11/14
f 88/1/4 85/2/3 89/2/14 92/1/11
f 86/6/13 87/5/10 91/5/12 90/6/17
f 94/13/18 95/14/19 96/1/16 93/2/15
f 90/6/17 91/5/12 95/5/19 94/6/18
f 91/9/12 92/8/11 96/8/16 95/9/19
f 89/11/14 90/12/17 94/12/18 93/11/15
f 83/11/2 97/15/20 99/16/5 81/12/8
f 83/2/2 84/1/1 98/17/9 97/18/20
f 104/1/1 103/2/2 105/2/3 108/1/4
f 119/3/5 120/4/6 102/5/7 101/6/8
f 118/7/9 104/8/1 102/9/7 120/10/6
f 107/9/10 108/8/4 112/8/11 111/9/12
f 101/6/8 102/5/7 107/5/10 106/6/13
f 102/9/7 104/8/1 108/8/4 107/9/10
f 103/11/2 101/12/8 106/12/13 105/11/3
f 112/1/11 109/2/14 113/2/15 116/1/16
f 105/11/3 106/12/13 110/12/17 109/11/14
f 108/1/4 105/2/3 109/2/14 112/1/11
f 106/6/13 107/5/10 111/5/12 110/6/17
f 114/13/18 115/14/19 116/1/16 113/2/15
f 110/6/17 111/5/12 115/5/19 114/6/18
f 111/9/12 112/8/11 116/8/16 115/9/19
f 109/11/14 110/12/17 114/12/18 113/11/15
f 103/11/2 117/15/20 119/16/5 101/12/8
f 103/2/2 104/1/1 118/17/9 117/18/20
f 124/1/1 123/2/2 125/2/3 128/1/4
f 139/3/5 140/4/6 122/5/7 121/6/8
f 138/7/9 124/8/1 122/9/7 140/10/6
f 127/9/10 128/8/4 132/8/11 131/9/12
f 121/6/8 122/5/7 127/5/10 126/6/13
f 122/9/7 124/8/1 128/8/4 127/9/10
f 123/11/2 121/12/8 126/12/13 125/11/3
f 132/1/11 129/2/14 133/2/15 136/1/16
f 125/11/3 126/12/13 130/12/17 129/11/14
f 128/1/4 125/2/3 129/2/14 132/1/11
f 126/6/13 127/5/10 131/5/12 130/6/17
f 134/13/18 135/14/19 136/1/16 133/2/15
f 130/6/17 131/5/12 135/5/19 134/6/18
f 131/9/12 132/8/11 136/8/16 135/9/19
f 129/11/14 130/12/17 134/12/18 133/11/15
f 123/11/2 137/15/20 139/16/5 121/12/8
f 123/2/2 124/1/1 138/17/9 137/18/20
f 144/1/1 143/2/2 145/2/3 148/1/4
f 159/3/5 160/4/6 142/5/7 141/6/8
f 158/7/9 144/8/1 142/9/7 160/10/6
f 147/9/10 148/8/4 152/8/11 151/9/12
f 141/6/8 142/5/7 147/5/10 146/6/13
f 142/9/7 144/8/1 148/8/4 147/9/10
f 143/11/2 141/12/8 146/12/13 145/11/3
f 152/1/11 149/2/14 153/2/15 156/1/16
f 145/11/3 146/12/13 150/12/17 149/11/14
f 148/1/4 145/2/3 149/2/14 152/1/11
f 146/6/13 147/5/10 151/5/12 150/6/17
f 154/13/18 155/14/19 156/1/16 153/2/15
f 150/6/17 151/5/12 155/5/19 154/6/18
f 151/9/12 152/8/11 156/8/16 155/9/19
f 149/11/14 150/12/17 154/12/18 153/11/15
f 143/11/2 157/15/20 159/16/5 141/12/8
f 143/2/2 144/1/1 158/17/9 157/18/20
f 164/1/21 168/1/22 165/2/23 163/2/24
f 19/3/5 161/6/25 162/5/26 20/4/6
f 18/7/9 20/10/6 162/9/26 164/8/21
f 167/9/27 171/9/28 172/8/29 168/8/22
f 161/6/25 166/6/30 167/5/27 162/5/26
f 162/9/26 167/9/27 168/8/22 164/8/21
f 163/11/24 165/11/23 166/12/30 161/12/25
f 172/1/29 176/1/19 173/2/18 169/2/31
f 165/11/23 169/11/31 170/12/32 166/12/30
f 168/1/22 172/1/29 169/2/31 165/2/23
f 166/6/30 170/6/32 171/5/28 167/5/27
f 174/13/15 173/2/18 176/1/19 175/14/16
f 170/6/32 174/6/15 175/5/16 171/5/28
f 171/9/28 175/9/16 176/8/19 172/8/29
f 169/11/31 173/11/18 174/12/15 170/12/32
f 163/11/24 161/12/25 19/16/5 17/15/20
f 163/2/24 17/18/20 18/17/9 164/1/21
f 180/1/21 184/1/22 181/2/23 179/2/24
f 39/3/5 177/6/25 178/5/26 40/4/6
f 38/7/9 40/10/6 178/9/26 180/8/21
f 183/9/27 187/9/28 188/8/29 184/8/22
f 177/6/25 182/6/30 183/5/27 178/5/26
f 178/9/26 183/9/27 184/8/22 180/8/21
f 179/11/24 181/11/23 182/12/30 177/12/25
f 188/1/29 192/1/19 189/2/18 185/2/31
f 181/11/23 185/11/31 186/12/32 182/12/30
f 184/1/22 188/1/29 185/2/31 181/2/23
f 182/6/30 186/6/32 187/5/28 183/5/27
f 190/13/15 189/2/18 192/1/19 191/14/16
f 186/6/32 190/6/15 191/5/16 187/5/28
f 187/9/28 191/9/16 192/8/19 188/8/29
f 185/11/31 189/11/18 190/12/15 186/12/32
f 179/11/24 177/12/25 39/16/5 37/15/20
f 179/2/24 37/18/20 38/17/9 180/1/21
f 196/1/21 200/1/22 197/2/23 195/2/24
f 59/3/5 193/6/25 194/5/26 60/4/6
f 58/7/9 60/10/6 194/9/26 196/8/21
f 199/9/27 203/9/28 204/8/29 200/8/22
f 193/6/25 198/6/30 199/5/27 194/5/26
f 194/9/26 199/9/27 200/8/22 196/8/21
f 195/11/24 197/11/23 198/12/30 193/12/25
f 204/1/29 208/1/19 205/2/18 201/2/31
f 197/11/23 201/11/31 202/12/32 198/12/30
f 200/1/22 204/1/29 201/2/31 197/2/23
f 198/6/30 202/6/32 203/5/28 199/5/27
f 206/13/15 205/2/18 208/1/19 207/14/16
f 202/6/32 206/6/15 207/5/16 203/5/28
f 203/9/28 207/9/16 208/8/19 204/8/29
f 201/11/31 205/11/18 206/12/15 202/12/32
f 195/11/24 193/12/25 59/16/5 57/15/20
f 195/2/24 57/18/20 58/17/9 196/1/21
f 212/1/21 216/1/22 213/2/23 211/2/24
f 79/3/5 209/6/25 210/5/26 80/4/6
f 78/7/9 80/10/6 210/9/26 212/8/21
f 215/9/27 219/9/28 220/8/29 216/8/22
f 209/6/25 214/6/30 215/5/27 210/5/26
f 210/9/26 215/9/27 216/8/22 212/8/21
f 211/11/24 213/11/23 214/12/30 209/12/25
f 220/1/29 224/1/19 221/2/18 217/2/31
f 213/11/23 217/11/31 218/12/32 214/12/30
f 216/1/22 220/1/29 217/2/31 213/2/23
f 214/6/30 218/6/32 219/5/28 215/5/27
f 222/13/15 221/2/18 224/1/19 223/14/16
f 218/6/32 222/6/15 223/5/16 219/5/28
f 219/9/28 223/9/16 224/8/19 220/8/29
f 217/11/31 221/11/18 222/12/15 218/12/32
f 211/11/24 209/12/25 79/16/5 77/15/20
f 211/2/24 77/18/20 78/17/9 212/1/21
f 228/1/21 232/1/22 229/2/23 227/2/24
f 99/3/5 225/6/25 226/5/26 100/4/6
f 98/7/9 100/10/6 226/9/26 228/8/21
f 231/9/27 235/9/28 236/8/29 232/8/22
f 225/6/25 230/6/30 231/5/27 226/5/26
f 226/9/26 231/9/27 232/8/22 228/8/21
f 227/11/24 229/11/23 230/12/30 225/12/25
f 236/1/29 240/1/19 237/2/18 233/2/31
f 229/11/23 233/11/31 234/12/32 230/12/30
f 232/1/22 236/1/29 233/2/31 229/2/23
f 230/6/30 234/6/32 235/5/28 231/5/27
f 238/13/15 237/2/18 240/1/19 239/14/16
f 234/6/32 238/6/15 239/5/16 235/5/28
f 235/9/28 239/9/16 240/8/19 236/8/29
f 233/11/31 237/11/18 238/12/15 234/12/32
f 227/11/24 225/12/25 99/16/5 97/15/20
f 227/2/24 97/18/20 98/17/9 228/1/21
f 244/1/21 248/1/22 245/2/23 243/2/24
f 119/3/5 241/6/25 242/5/26 120/4/6
f 118/7/9 120/10/6 242/9/26 244/8/21
f 247/9/27 251/9/28 252/8/29 248/8/22
f 241/6/25 246/6/30 247/5/27 242/5/26
f 242/9/26 247/9/27 248/8/22 244/8/21
f 243/11/24 245/11/23 246/12/30 241/12/25
f 252/1/29 256/1/19 253/2/18 249/2/31
f 245/11/23 249/11/31 250/12/32 246/12/30
f 248/1/22 252/1/29 249/2/31 245/2/23
f 246/6/30 250/6/32 251/5/28 247/5/27
f 254/13/15 253/2/18 256/1/19 255/14/16
f 250/6/32 254/6/15 255/5/16 251/5/28
f 251/9/28 255/9/16 256/8/19 252/8/29
f 249/11/31 253/11/18 254/12/15 250/12/32
f 243/11/24 241/12/25 119/16/5 117/15/20
f 243/2/24 117/18/20 118/17/9 244/1/21
f 260/1/21 264/1/22 261/2/23 259/2/24
f 139/3/5 257/6/25 258/5/26 140/4/6
f 138/7/9 140/10/6 258/9/26 260/8/21
f 263/9/27 267/9/28 268/8/29 264/8/22
f 257/6/25 262/6/30 263/5/27 258/5/26
f 258/9/26 263/9/27 264/8/22 260/8/21
f 259/11/24 261/11/23 262/12/30 257/12/25
f 268/1/29 272/1/19 269/2/18 265/2/31
f 261/11/23 265/11/31 266/12/32 262/12/30
f 264/1/22 268/1/29 265/2/31 261/2/23
f 262/6/30 266/6/32 267/5/28 263/5/27
f 270/13/15 269/2/18 272/1/19 271/14/16
f 266/6/32 270/6/15 271/5/16 267/5/28
f 267/9/28 271/9/16 272/8/19 268/8/29
f 265/11/31 269/11/18 270/12/15 266/12/32
f 259/11/24 257/12/25 139/16/5 137/15/20
f 259/2/24 137/18/20 138/17/9 260/1/21
f 276/1/21 280/1/22 277/2/23 275/2/24
f 159/3/5 273/6/25 274/5/26 160/4/6
f 158/7/9 160/10/6 274/9/26 276/8/21
f 279/9/27 283/9/28 284/8/29 280/8/22
f 273/6/25 278/6/30 279/5/27 274/5/26
f 274/9/26 279/9/27 280/8/22 276/8/21
f 275/11/24 277/11/23 278/12/30 273/12/25
f 284/1/29 288/1/19 285/2/18 281/2/31
f 277/11/23 281/11/31 282/12/32 278/12/30
f 280/1/22 284/1/29 281/2/31 277/2/23
f 278/6/30 282/6/32 283/5/28 279/5/27
f 286/13/15 285/2/18 288/1/19 287/14/16
f 282/6/32 286/6/15 287/5/16 283/5/28
f 283/9/28 287/9/16 288/8/19 284/8/29
f 281/11/31 285/11/18 286/12/15 282/12/32
f 275/11/24 273/12/25 159/16/5 157/15/20
f 275/2/24 157/18/20 158/17/9 276/1/21
usemtl Material.017
f 289/13/33 290/14/34 292/1/35 291/2/18
f 291/2/18 292/1/35 296/19/36 295/20/15
f 295/20/15 296/19/36 294/21/37 293/22/38
f 293/22/38 294/21/37 290/5/34 289/6/33
f 291/11/18 295/20/15 293/22/38 289/12/33
f 302/21/39 304/19/40 310/23/41 308/24/42
f 297/13/33 298/14/43 300/1/44 299/2/18
f 299/2/18 300/1/44 304/19/40 303/20/15
f 303/20/15 304/19/40 302/21/39 301/22/38
f 301/22/38 302/21/39 298/5/43 297/6/33
f 299/11/18 303/20/15 301/22/38 297/12/33
f 298/5/43 302/21/39 308/24/42 305/25/45
f 304/19/40 300/1/44 312/26/46 310/23/41
f 300/1/44 298/14/43 305/27/45 312/28/46
f 305/25/45 308/24/42 307/23/47 306/26/48
f 306/26/48 307/23/47 296/19/36 292/1/35
f 308/24/42 310/23/41 309/24/49 307/23/47
f 307/23/47 309/24/49 294/21/37 296/19/36
f 310/23/41 312/26/46 311/25/50 309/24/49
f 309/24/49 311/25/50 290/5/34 294/21/37
f 312/28/46 305/27/45 306/28/48 311/27/50
f 311/27/50 306/28/48 292/1/35 290/14/34
f 313/13/33 314/14/34 316/1/35 315/2/18
f 315/2/18 316/1/35 320/19/36 319/20/15
f 319/20/15 320/19/36 318/21/37 317/22/38
f 317/22/38 318/21/37 314/5/34 313/6/33
f 315/11/18 319/20/15 317/22/38 313/12/33
f 326/21/39 328/19/40 334/23/41 332/24/42
f 321/13/33 322/14/43 324/1/44 323/2/18
f 323/2/18 324/1/44 328/19/40 327/20/15
f 327/20/15 328/19/40 326/21/39 325/22/38
f 325/22/38 326/21/39 322/5/43 321/6/33
f 323/11/18 327/20/15 325/22/38 321/12/33
f 322/5/43 326/21/39 332/24/42 329/25/45
f 328/19/40 324/1/44 336/26/46 334/23/41
f 324/1/44 322/14/43 329/27/45 336/28/46
f 329/25/45 332/24/42 331/23/47 330/26/48
f 330/26/48 331/23/47 320/19/36 316/1/35
f 332/24/42 334/23/41 333/24/49 331/23/47
f 331/23/47 333/24/49 318/21/37 320/19/36
f 334/23/41 336/26/46 335/25/50 333/24/49
f 333/24/49 335/25/50 314/5/34 318/21/37
f 336/28/46 329/27/45 330/28/48 335/27/50
f 335/27/50 330/28/48 316/1/35 314/14/34
