# Blender 4.0.1
# www.blender.org
mtllib tv_shelf_1.mtl
o tv_shelf_1
v -0.700000 0.000000 1.300000
v -0.700000 3.000000 1.300000
v -0.700000 0.000000 -1.300000
v -0.700000 3.000000 -1.300000
v 0.800000 0.000000 1.300000
v 0.800000 3.000000 1.300000
v 0.800000 0.000000 -1.300000
v 0.800000 3.000000 -1.300000
v -0.700000 1.013039 1.300000
v -0.700000 1.013039 -1.300000
v 0.800000 1.013039 -1.300000
v 0.800000 1.013039 1.300000
v -0.700000 0.506519 -1.300000
v 0.800000 0.506519 -1.300000
v 0.800000 0.506519 1.300000
v -0.700000 0.506519 1.300000
v -0.700000 2.552620 1.300000
v -0.700000 2.552620 -1.300000
v 0.800000 2.552620 -1.300000
v 0.800000 2.552620 1.300000
v 0.800000 0.506519 0.001179
v 0.800000 0.000000 0.001179
v 0.800000 1.013039 0.001179
v 0.800000 2.612702 -1.239918
v 0.800000 2.939918 -1.239918
v 0.800000 2.939918 1.239918
v 0.800000 2.612702 1.239918
v 0.800000 0.566602 -1.239918
v 0.800000 0.952956 -1.239918
v 0.800000 0.952956 -0.058903
v 0.800000 0.566602 -0.058903
v 0.800000 0.060082 -1.239918
v 0.800000 0.446437 -1.239918
v 0.800000 0.446437 -0.058903
v 0.800000 0.060082 -0.058903
v 0.800000 1.073121 -1.239918
v 0.800000 2.492537 -1.239918
v 0.800000 2.492537 1.239918
v 0.800000 1.073121 1.239918
v 0.800000 1.073121 0.001179
v 0.800000 0.060082 0.061262
v 0.800000 0.446437 0.061262
v 0.800000 0.446437 1.239918
v 0.800000 0.060082 1.239918
v 0.800000 0.566602 0.061262
v 0.800000 0.952956 0.061262
v 0.800000 0.952956 1.239918
v 0.800000 0.566602 1.239918
v -0.700000 0.952956 1.239918
v -0.700000 0.952956 0.061262
v -0.700000 0.446437 1.239918
v -0.700000 0.446437 0.061262
v -0.700000 0.566602 0.061262
v -0.700000 0.566602 1.239918
v -0.700000 0.060082 0.061262
v -0.700000 0.060082 1.239918
v -0.700000 2.939918 -1.239918
v -0.700000 2.612702 -1.239918
v -0.700000 0.952956 -1.239918
v -0.700000 0.566602 -1.239918
v -0.700000 2.612702 1.239918
v -0.700000 0.446437 -1.239918
v -0.700000 0.060082 -1.239918
v -0.700000 0.566602 -0.058903
v -0.700000 2.492537 -1.239918
v -0.700000 1.073121 -1.239918
v -0.700000 2.939918 1.239918
v -0.700000 0.060082 -0.058903
v -0.700000 0.952956 -0.058903
v -0.700000 0.446437 -0.058903
v -0.700000 2.492537 1.239918
v -0.700000 1.073121 1.239918
v -0.700000 1.073121 0.001179
vn -0.0000 -0.0000 -1.0000
vn -0.0000 -0.0000 1.0000
vn -0.0000 -1.0000 -0.0000
vn -0.0000 1.0000 -0.0000
vn 1.0000 -0.0000 -0.0000
vn -1.0000 -0.0000 -0.0000
vt -0.302471 -3.294943
vt 0.511236 -2.809561
vt -0.302471 -2.809561
vt 0.511236 -3.294943
vt 1.324944 -2.809561
vt 0.203957 1.583764
vt -0.030646 1.583764
vt -0.030646 -0.583764
vt 0.908617 1.583764
vt 0.438986 -0.583764
vt 0.908616 -0.583764
vt 0.511236 -1.139203
vt 1.324944 -0.589659
vt 0.511236 -0.589659
vt -0.302471 -1.139203
vt -0.302471 -0.589659
vt 0.511236 -0.040114
vt -0.302471 -0.040114
vt 1.324944 -0.040114
vt 1.324944 -1.139203
vt -1.114410 1.005757
vt -1.044453 0.918937
vt -1.033601 1.005757
vt -1.114410 -2.751292
vt -1.103558 0.918937
vt -1.033601 -2.751292
vt -1.103558 -2.664472
vt -1.044453 -2.664472
vt -0.755511 1.005757
vt -0.674872 0.918937
vt -0.664019 1.005757
vt -0.755511 -0.874472
vt -0.744658 0.918937
vt -0.664019 -0.874472
vt -0.744658 -0.787651
vt -0.674872 -0.787651
vt -0.583380 0.918937
vt -0.572528 1.005757
vt -0.653167 0.918937
vt -0.583380 -0.787652
vt -0.653167 -0.787651
vt -0.572528 -0.874472
vt -0.766363 0.918937
vt -1.022748 0.918937
vt -0.755511 -2.751293
vt -1.022749 -2.664472
vt -0.766363 -2.664472
vt -0.766363 -0.874472
vt -0.653167 -0.961292
vt -0.583380 -0.961292
vt -0.664019 -2.751293
vt -0.572528 -2.751293
vt -0.653167 -2.664472
vt -0.583380 -2.664472
vt -0.674872 -0.961292
vt -0.744658 -0.961292
vt -0.744658 -2.664472
vt -0.674872 -2.664472
vt -0.502571 -2.664472
vt -0.561675 -2.664472
vt -0.491719 1.005757
vt -0.502571 0.918937
vt 0.395575 3.751293
vt 0.182678 1.583764
vt 0.395575 1.583764
vt 0.608473 3.751293
vt 0.608473 1.583764
vt -0.213628 1.005757
vt -0.132990 0.918937
vt -0.122137 1.005757
vt -0.213628 -2.751293
vt -0.132990 -2.664472
vt -0.202776 -2.664472
vt -0.132990 -0.784244
vt -0.202776 -0.957884
vt -0.132990 -0.957884
vt -0.030646 1.005757
vt -0.111285 0.918937
vt -0.041499 0.918937
vt -0.122137 -2.751293
vt -0.041499 -2.664472
vt -0.111285 -2.664472
vt -0.111285 -0.784244
vt -0.111285 -0.957884
vt -0.041499 -0.957884
vt 0.821370 1.583764
vt 0.608473 3.751293
vt 0.608473 1.583764
vt 0.908617 -0.583764
vt 1.132367 1.583764
vt -0.480866 -2.664472
vt -0.491719 -2.751293
vt -0.224481 0.918937
vt -0.224481 -0.871064
vt 1.034268 1.583764
vt 0.821370 3.751293
vt 1.970754 -0.583764
vt 2.040540 -2.751293
vt 2.040540 -0.583764
vt 2.017793 -0.583764
vt 2.087579 1.583764
vt 2.017793 1.583764
vt 1.302731 3.751292
vt 1.243626 1.583764
vt 1.302731 1.583764
vt 2.110326 -0.583764
vt 1.104054 3.751293
vt 1.034268 1.583764
vt 1.104054 1.583764
vt 1.501045 -2.751293
vt 1.053119 -0.583764
vt 1.053119 -2.751293
vt -0.126989 3.173286
vt -0.196775 1.005758
vt -0.126989 1.005758
vt 1.757430 -2.751293
vt 1.757430 -0.583764
vt 1.757430 -0.583764
vt 1.501045 -2.751293
vt 1.757430 -2.751293
vt 1.804469 1.583764
vt 1.356543 -0.583764
vt 1.804469 -0.583764
vt -0.410099 1.005757
vt -0.196775 3.173286
vt -0.410098 3.173286
vt 2.017793 1.583764
vt 2.017793 -0.583764
vt 1.132367 -0.583764
vt 1.356543 1.583764
vt 1.361835 3.751293
vt 1.302731 3.751293
vt 0.182678 3.751293
vt 0.182678 1.583764
vt 1.104054 1.583764
vt 1.173840 3.751293
vt -0.666484 3.173286
vt -0.666484 1.005757
vt 1.173840 1.583764
vt 1.243626 3.751293
vt -0.057203 1.005758
vt -0.057202 3.173286
vt -0.410099 3.173286
vt 1.324944 -3.294943
vt 0.438986 -0.583764
vt 0.438986 1.583764
vt -0.561675 0.918937
vt 0.182678 3.751293
vt -0.202776 0.918937
vt -0.202776 -0.784244
vt -0.030646 -2.751293
vt -0.041499 -0.784243
vt -0.224481 -2.664472
vt -0.480866 0.918937
vt 1.034268 3.751293
vt 1.970754 -2.751293
vt 2.087579 -0.583764
vt 1.243626 3.751292
vt 2.110326 -2.751293
vt 1.501045 -0.583764
vt -0.196775 3.173286
vt 1.501045 -0.583764
vt 1.356543 1.583764
vt -0.196775 1.005757
vt 1.804470 1.583764
vt 1.356543 -0.583764
vt 1.361835 1.583764
vt -0.030646 3.751293
vt -1.114410 3.173286
s 0
usemtl Material.001
f 4/1/1 19/2/1 18/3/1
f 6/4/2 17/5/2 20/2/2
f 22/6/3 5/7/3 1/8/3
f 4/9/4 6/10/4 8/11/4
f 12/12/2 16/13/2 15/14/2
f 10/15/1 14/14/1 13/16/1
f 13/16/1 7/17/1 3/18/1
f 15/14/2 1/19/2 5/17/2
f 20/2/2 9/20/2 12/12/2
f 18/3/1 11/12/1 10/15/1
f 8/21/5 24/22/5 19/23/5
f 6/24/5 25/25/5 8/21/5
f 20/26/5 26/27/5 6/24/5
f 19/23/5 27/28/5 20/26/5
f 11/29/5 28/30/5 14/31/5
f 23/32/5 29/33/5 11/29/5
f 21/34/5 30/35/5 23/32/5
f 14/31/5 31/36/5 21/34/5
f 14/31/5 32/37/5 7/38/5
f 21/34/5 33/39/5 14/31/5
f 21/34/5 35/40/5 34/41/5
f 7/38/5 35/40/5 22/42/5
f 19/23/5 36/43/5 11/29/5
f 20/26/5 37/44/5 19/23/5
f 12/45/5 38/46/5 20/26/5
f 23/32/5 39/47/5 12/45/5
f 23/32/5 36/43/5 40/48/5
f 22/42/5 42/49/5 41/50/5
f 15/51/5 42/49/5 21/34/5
f 5/52/5 43/53/5 15/51/5
f 22/42/5 44/54/5 5/52/5
f 23/32/5 45/55/5 21/34/5
f 12/45/5 46/56/5 23/32/5
f 15/51/5 47/57/5 12/45/5
f 21/34/5 48/58/5 15/51/5
f 4/52/6 58/59/6 57/60/6
f 17/61/6 2/38/6 61/62/6
f 46/63/3 49/64/3 50/65/3
f 42/66/3 51/65/3 52/67/3
f 9/68/6 54/69/6 16/70/6
f 10/71/6 60/72/6 59/73/6
f 53/74/6 69/75/6 64/76/6
f 1/77/6 51/78/6 56/79/6
f 13/80/6 63/81/6 62/82/6
f 52/83/6 70/84/6 68/85/6
f 45/86/4 54/87/4 48/88/4
f 39/89/4 73/90/4 72/9/4
f 10/71/6 65/91/6 18/92/6
f 72/93/6 73/94/6 9/68/6
f 41/95/4 56/96/4 44/86/4
f 46/97/2 53/98/2 45/99/2
f 43/100/1 56/101/1 51/102/1
f 24/103/2 57/104/2 58/105/2
f 47/98/1 54/106/1 49/99/1
f 28/107/2 59/108/2 60/109/2
f 24/110/4 61/111/4 27/112/4
f 32/113/2 62/114/2 63/115/2
f 31/116/4 60/97/4 64/117/4
f 36/118/2 65/119/2 66/120/2
f 25/121/3 67/122/3 57/123/3
f 35/124/4 63/125/4 68/126/4
f 29/127/3 69/123/3 59/128/3
f 40/129/4 66/130/4 73/90/4
f 26/105/1 61/131/1 67/132/1
f 33/133/3 70/7/3 62/134/3
f 30/135/1 64/136/1 69/107/1
f 37/137/3 71/21/3 65/138/3
f 34/139/1 68/140/1 70/136/1
f 42/113/2 55/141/2 41/142/2
f 38/138/1 72/143/1 71/137/1
f 4/1/1 8/4/1 19/2/1
f 6/4/2 2/144/2 17/5/2
f 1/8/3 3/145/3 22/6/3
f 3/145/3 7/146/3 22/6/3
f 4/9/4 2/146/4 6/10/4
f 12/12/2 9/20/2 16/13/2
f 10/15/1 11/12/1 14/14/1
f 13/16/1 14/14/1 7/17/1
f 15/14/2 16/13/2 1/19/2
f 20/2/2 17/5/2 9/20/2
f 18/3/1 19/2/1 11/12/1
f 8/21/5 25/25/5 24/22/5
f 6/24/5 26/27/5 25/25/5
f 20/26/5 27/28/5 26/27/5
f 19/23/5 24/22/5 27/28/5
f 11/29/5 29/33/5 28/30/5
f 23/32/5 30/35/5 29/33/5
f 21/34/5 31/36/5 30/35/5
f 14/31/5 28/30/5 31/36/5
f 14/31/5 33/39/5 32/37/5
f 21/34/5 34/41/5 33/39/5
f 21/34/5 22/42/5 35/40/5
f 7/38/5 32/37/5 35/40/5
f 19/23/5 37/44/5 36/43/5
f 20/26/5 38/46/5 37/44/5
f 12/45/5 39/47/5 38/46/5
f 23/32/5 40/48/5 39/47/5
f 23/32/5 11/29/5 36/43/5
f 22/42/5 21/34/5 42/49/5
f 15/51/5 43/53/5 42/49/5
f 5/52/5 44/54/5 43/53/5
f 22/42/5 41/50/5 44/54/5
f 23/32/5 46/56/5 45/55/5
f 12/45/5 47/57/5 46/56/5
f 15/51/5 48/58/5 47/57/5
f 21/34/5 45/55/5 48/58/5
f 4/52/6 18/92/6 58/59/6
f 58/59/6 18/92/6 17/61/6
f 2/38/6 4/52/6 57/60/6
f 2/38/6 57/60/6 67/147/6
f 61/62/6 58/59/6 17/61/6
f 2/38/6 67/147/6 61/62/6
f 46/63/3 47/148/3 49/64/3
f 42/66/3 43/63/3 51/65/3
f 9/68/6 49/149/6 54/69/6
f 10/71/6 13/80/6 60/72/6
f 60/72/6 13/80/6 64/76/6
f 13/80/6 16/70/6 64/76/6
f 16/70/6 54/69/6 53/74/6
f 50/150/6 49/149/6 9/68/6
f 50/150/6 9/68/6 69/75/6
f 9/68/6 10/71/6 69/75/6
f 10/71/6 59/73/6 69/75/6
f 64/76/6 16/70/6 53/74/6
f 53/74/6 50/150/6 69/75/6
f 1/77/6 16/70/6 51/78/6
f 13/80/6 3/151/6 63/81/6
f 63/81/6 3/151/6 68/85/6
f 3/151/6 1/77/6 68/85/6
f 1/77/6 56/79/6 55/152/6
f 52/83/6 51/78/6 16/70/6
f 52/83/6 16/70/6 70/84/6
f 16/70/6 13/80/6 70/84/6
f 13/80/6 62/82/6 70/84/6
f 68/85/6 1/77/6 55/152/6
f 55/152/6 52/83/6 68/85/6
f 45/86/4 53/96/4 54/87/4
f 39/89/4 40/129/4 73/90/4
f 10/71/6 66/153/6 65/91/6
f 66/153/6 10/71/6 73/94/6
f 10/71/6 9/68/6 73/94/6
f 17/61/6 18/92/6 65/91/6
f 17/61/6 65/91/6 71/154/6
f 17/61/6 71/154/6 9/68/6
f 71/154/6 72/93/6 9/68/6
f 41/95/4 55/155/4 56/96/4
f 46/97/2 50/156/2 53/98/2
f 43/100/1 44/157/1 56/101/1
f 24/103/2 25/158/2 57/104/2
f 47/98/1 48/159/1 54/106/1
f 28/107/2 29/155/2 59/108/2
f 24/110/4 58/160/4 61/111/4
f 32/113/2 33/161/2 62/114/2
f 31/116/4 28/156/4 60/97/4
f 36/118/2 37/162/2 65/119/2
f 25/121/3 26/163/3 67/122/3
f 35/124/4 32/164/4 63/125/4
f 29/127/3 30/165/3 69/123/3
f 40/129/4 36/166/4 66/130/4
f 26/105/1 27/167/1 61/131/1
f 33/133/3 34/168/3 70/7/3
f 30/135/1 31/139/1 64/136/1
f 37/137/3 38/169/3 71/21/3
f 34/139/1 35/104/1 68/140/1
f 42/113/2 52/115/2 55/141/2
f 38/138/1 39/124/1 72/143/1
