# Blender 4.0.1
# www.blender.org
mtllib washing_machine_1.mtl
o washing_machine_1
v -1.000000 0.000000 1.000000
v -1.000000 2.000000 1.000000
v -1.000000 0.000000 -1.000000
v -1.000000 2.000000 -1.000000
v 1.000000 0.000000 1.000000
v 1.000000 2.000000 1.000000
v 1.000000 0.000000 -1.000000
v 1.000000 2.000000 -1.000000
v -1.000000 2.583828 1.000000
v -1.000000 2.583828 -1.000000
v 1.000000 2.583828 -1.000000
v 1.000000 2.583828 1.000000
v 1.000000 2.000000 1.132771
v -1.000000 2.000000 1.132771
v 1.000000 2.380541 1.132771
v -1.000000 2.380541 1.132771
v 0.000000 1.912662 0.933956
v 0.000000 1.771423 1.203065
v 0.513007 1.700168 0.933956
v 0.413136 1.600297 1.203065
v 0.725502 1.187161 0.933956
v 0.584263 1.187161 1.203065
v 0.513007 0.674154 0.933956
v 0.413136 0.774025 1.203065
v 0.000000 0.461659 0.933956
v 0.000000 0.602898 1.203065
v -0.513007 0.674154 0.933956
v -0.413136 0.774025 1.203065
v -0.725502 1.187161 0.933956
v -0.584263 1.187161 1.203065
v -0.513007 1.700168 0.933956
v -0.413136 1.600297 1.203065
v 0.692866 2.386257 0.959586
v 0.692866 2.386257 1.226433
v 0.819759 2.294064 0.959586
v 0.819759 2.294064 1.226433
v 0.771290 2.144892 0.959586
v 0.771290 2.144892 1.226433
v 0.614441 2.144892 0.959586
v 0.614441 2.144892 1.226433
v 0.565972 2.294064 0.959586
v 0.565972 2.294064 1.226433
v 0.513007 1.700168 1.203065
v 0.000000 1.912663 1.203065
v 0.725502 1.187161 1.203065
v 0.513007 0.674154 1.203065
v 0.000000 0.461659 1.203065
v -0.513007 0.674154 1.203065
v -0.725502 1.187161 1.203065
v -0.513007 1.700168 1.203065
v 0.413136 1.600297 1.014068
v 0.000000 1.771423 1.014068
v 0.584263 1.187161 1.014068
v 0.413136 0.774025 1.014068
v 0.000000 0.602898 1.014068
v -0.413136 0.774025 1.014068
v -0.584263 1.187161 1.014068
v -0.413136 1.600297 1.014068
v 0.383354 0.932086 1.154807
v 0.613722 0.932086 1.154807
v 0.383354 1.413658 1.154807
v 0.613722 1.413658 1.154807
vn -1.0000 -0.0000 -0.0000
vn -0.0000 -0.0000 -1.0000
vn 1.0000 -0.0000 -0.0000
vn -0.0000 -0.0000 1.0000
vn -0.0000 -1.0000 -0.0000
vn -0.0000 1.0000 -0.0000
vn -0.5774 -0.5774 0.5774
vn 0.5774 -0.5774 0.5774
vn 0.6482 0.2172 0.7298
vn -0.6482 0.2172 0.7298
vn 0.6140 0.6941 0.3757
vn -0.6140 0.6941 0.3757
vn -0.0000 0.7764 0.6303
vn 0.5490 0.5490 0.6303
vn 0.7071 0.7071 -0.0000
vn 0.7764 -0.0000 0.6303
vn 0.5490 -0.5490 0.6303
vn 0.7071 -0.7071 -0.0000
vn -0.0000 -0.7764 0.6303
vn -0.5490 -0.5490 0.6303
vn -0.7071 -0.7071 -0.0000
vn -0.7764 -0.0000 0.6303
vn -0.5944 -0.0000 0.8042
vn -0.4203 -0.4203 0.8042
vn -0.5490 0.5490 0.6303
vn -0.7071 0.7071 -0.0000
vn -0.0000 0.8032 -0.5957
vn -0.0000 0.8032 0.5957
vn 0.7639 0.2482 0.5957
vn 0.7639 0.2482 -0.5957
vn 0.4721 -0.6498 0.5957
vn 0.4721 -0.6498 -0.5957
vn -0.4721 -0.6498 0.5957
vn -0.4721 -0.6498 -0.5957
vn -0.7639 0.2482 0.5957
vn -0.7639 0.2482 -0.5957
vn -0.0000 -0.5944 0.8042
vn -0.4203 0.4203 0.8042
vn -0.0000 0.5944 0.8042
vn 0.4203 0.4203 0.8042
vn 0.5944 -0.0000 0.8042
vn 0.4203 -0.4203 0.8042
vt 1.000000 1.000000
vt 0.218750 1.000000
vt 0.218750 0.000000
vt 1.000000 0.000000
vt 0.000000 1.000000
vt 0.000000 0.218750
vt 1.000000 0.218750
vt 0.058126 0.058126
vt 0.941874 0.058126
vt 0.941874 0.941874
vt 0.058126 0.941874
vt 0.170319 0.170319
vt 0.829682 0.170319
vt 0.829682 0.829682
vt 0.170319 0.829682
vt 0.000000 0.000000
vt 0.625000 0.000000
vt 0.000000 0.483661
vt 1.018602 0.483661
vt 1.018602 0.968996
vt 0.000000 0.968996
vt 1.009843 0.372047
vt 0.009843 0.372047
vt 0.009843 0.522539
vt 1.009843 0.522540
vt 0.625000 1.000000
vt 0.625000 0.750000
vt 0.507812 0.183594
vt 0.503806 0.238849
vt 0.503806 0.291483
vt 0.490647 0.291483
vt 0.490647 0.238849
vt 0.477489 0.291483
vt 0.477489 0.238849
vt 0.464330 0.291483
vt 0.464330 0.238849
vt 0.451172 0.291483
vt 0.451172 0.238849
vt 0.438013 0.291483
vt 0.438013 0.238849
vt 0.424855 0.291483
vt 0.424855 0.238849
vt 0.445201 0.212532
vt 0.439242 0.226918
vt 0.411696 0.291483
vt 0.411696 0.238849
vt 0.398538 0.291483
vt 0.398538 0.238849
vt 1.000000 0.500000
vt 0.800000 1.000000
vt 0.800000 0.500000
vt 0.600000 1.000000
vt 0.600000 0.500000
vt 0.400000 1.000000
vt 0.400000 0.500000
vt 0.478254 0.324164
vt 0.250000 0.490000
vt 0.021746 0.324164
vt 0.108932 0.055836
vt 0.391068 0.055836
vt 0.200000 1.000000
vt 0.200000 0.500000
vt 0.000000 1.000000
vt 0.000000 0.500000
vt 0.750000 0.490000
vt 0.978254 0.324164
vt 0.891068 0.055836
vt 0.608932 0.055836
vt 0.521746 0.324164
vt 0.424855 0.232878
vt 0.442719 0.230396
vt 0.424855 0.237796
vt 0.450119 0.212532
vt 0.439242 0.198145
vt 0.442719 0.194667
vt 0.424855 0.192186
vt 0.424855 0.187267
vt 0.410468 0.198145
vt 0.406990 0.194667
vt 0.404509 0.212532
vt 0.399590 0.212532
vt 0.410468 0.226918
vt 0.406990 0.230396
vt 0.500000 1.000000
vt 0.853553 0.853553
vt 1.000000 0.500000
vt 0.853553 0.146447
vt 0.500000 0.000000
vt 0.146447 0.146447
vt 0.000000 0.500000
vt 0.146447 0.853553
vt 0.361375 0.111793
vt 0.554914 0.111793
vt 0.554914 0.305333
vt 0.361375 0.305333
s 0
usemtl Material.018
f 9/17/1 2/17/1 14/17/1 16/17/1
s 1
f 14/18/7 13/19/8 15/20/9 16/21/10
f 12/22/11 9/23/12 16/24/10 15/25/9
s 0
f 2/26/5 6/27/5 13/27/5 14/26/5
f 6/28/3 12/28/3 15/28/3 13/28/3
s 1
f 17/29/6 44/30/13 43/31/14 19/32/15
f 19/32/15 43/31/14 45/33/16 21/34/3
f 21/34/3 45/33/16 46/35/17 23/36/18
f 23/36/18 46/35/17 47/37/19 25/38/5
f 25/38/5 47/37/19 48/39/20 27/40/21
f 27/40/21 48/39/20 49/41/22 29/42/1
f 22/43/23 20/44/24 51/44/20 53/43/22
f 29/42/1 49/41/22 50/45/25 31/46/26
f 31/46/26 50/45/25 44/47/13 17/48/6
f 33/65/27 35/66/30 37/67/32 39/68/34 41/69/36
f 18/70/37 20/44/24 43/71/14 44/72/13
f 20/44/24 22/43/23 45/73/16 43/71/14
f 22/43/23 24/74/38 46/75/17 45/73/16
f 24/74/38 26/76/39 47/77/19 46/75/17
f 26/76/39 28/78/40 48/79/20 47/77/19
f 28/78/40 30/80/41 49/81/22 48/79/20
f 30/80/41 32/82/42 50/83/25 49/81/22
f 32/82/42 18/70/37 44/72/13 50/83/25
f 32/82/42 30/80/41 57/80/16 58/82/17
f 28/78/40 26/76/39 55/76/13 56/78/14
f 24/74/38 22/43/23 53/43/22 54/74/25
f 20/44/24 18/70/37 52/70/19 51/44/20
f 18/70/37 32/82/42 58/82/17 52/70/19
f 30/80/41 28/78/40 56/78/14 57/80/16
f 26/76/39 24/74/38 54/74/25 55/76/13
s 0
f 59/92/4 60/93/4 62/94/4 61/95/4
usemtl Material.019
f 1/1/1 2/2/1 4/3/1 3/4/1
f 3/5/2 4/6/2 8/7/2 7/1/2
f 7/5/3 8/6/3 6/7/3 5/1/3
f 5/8/4 6/9/4 2/10/4 1/11/4
f 3/12/5 7/13/5 5/14/5 1/15/5
f 8/7/2 4/6/2 10/16/2 11/4/2
f 11/16/6 10/4/6 9/1/6 12/5/6
f 6/7/3 8/6/3 11/16/3 12/4/3
f 4/3/1 2/2/1 9/5/1 10/16/1
s 1
usemtl Material.020
f 51/84/20 52/85/19 58/86/17 57/87/16 56/88/14 55/89/13 54/90/25 53/91/22
usemtl Material.021
f 33/49/27 34/1/28 36/50/29 35/51/30
f 35/51/30 36/50/29 38/52/31 37/53/32
f 37/53/32 38/52/31 40/54/33 39/55/34
f 36/56/29 34/57/28 42/58/35 40/59/33 38/60/31
f 39/55/34 40/54/33 42/61/35 41/62/36
f 41/62/36 42/61/35 34/63/28 33/64/27
