# Blender 4.0.1
# www.blender.org
mtllib gas_station_roof.mtl
o gas_station_roof
v 0.000000 0.000000 1.000000
v 0.000000 5.000000 1.000000
v 0.000000 0.000000 0.000000
v 0.000000 5.000000 0.000000
v 1.000000 0.000000 1.000000
v 1.000000 5.000000 1.000000
v 1.000000 0.000000 0.000000
v 1.000000 5.000000 0.000000
v -3.000000 0.000000 1.000000
v -3.000000 5.000000 1.000000
v -3.000000 0.000000 0.000000
v -3.000000 5.000000 0.000000
v -2.000000 0.000000 1.000000
v -2.000000 5.000000 1.000000
v -2.000000 0.000000 0.000000
v -2.000000 5.000000 0.000000
v 3.000000 0.000000 1.000000
v 3.000000 5.000000 1.000000
v 3.000000 0.000000 0.000000
v 3.000000 5.000000 0.000000
v 4.000000 0.000000 1.000000
v 4.000000 5.000000 1.000000
v 4.000000 0.000000 0.000000
v 4.000000 5.000000 0.000000
v -6.000000 0.000000 1.000000
v -6.000000 5.000000 1.000000
v -6.000000 0.000000 0.000000
v -6.000000 5.000000 0.000000
v -5.000000 0.000000 1.000000
v -5.000000 5.000000 1.000000
v -5.000000 0.000000 0.000000
v -5.000000 5.000000 0.000000
v 0.000000 5.500000 1.000000
v 0.000000 5.500000 0.000000
v 1.000000 5.500000 0.000000
v 1.000000 5.500000 1.000000
v -3.000000 5.500000 1.000000
v -3.000000 5.500000 0.000000
v -2.000000 5.500000 0.000000
v -2.000000 5.500000 1.000000
v 3.000000 5.500000 1.000000
v 3.000000 5.500000 0.000000
v 4.000000 5.500000 0.000000
v 4.000000 5.500000 1.000000
v -6.000000 5.500000 1.000000
v -6.000000 5.500000 0.000000
v -5.000000 5.500000 0.000000
v -5.000000 5.500000 1.000000
v 1.000000 5.000000 5.000000
v 0.000000 5.000000 5.000000
v -2.000000 5.000000 5.000000
v -3.000000 5.000000 5.000000
v 4.000000 5.000000 5.000000
v 3.000000 5.000000 5.000000
v -5.000000 5.000000 5.000000
v -6.000000 5.000000 5.000000
v 1.000000 5.500000 5.700000
v 0.000000 5.500000 5.700000
v -2.000000 5.500000 5.700000
v -3.000000 5.500000 5.700000
v 4.000000 5.500000 5.700000
v 3.000000 5.500000 5.700000
v -5.000000 5.500000 5.700000
v -6.000000 5.500000 5.700000
v 0.000000 5.000000 -4.000000
v 1.000000 5.000000 -4.000000
v -3.000000 5.000000 -4.000000
v -2.000000 5.000000 -4.000000
v 3.000000 5.000000 -4.000000
v 4.000000 5.000000 -4.000000
v -6.000000 5.000000 -4.000000
v -5.000000 5.000000 -4.000000
v 0.000000 5.500000 -4.600000
v 1.000000 5.500000 -4.600000
v -3.000000 5.500000 -4.600000
v -2.000000 5.500000 -4.600000
v 3.000000 5.500000 -4.600000
v 4.000000 5.500000 -4.600000
v -6.000000 5.500000 -4.600000
v -5.000000 5.500000 -4.600000
v -7.000000 5.500000 6.000000
v -7.000000 6.600000 6.000000
v -7.000000 5.500000 -5.000000
v -7.000000 6.600000 -5.000000
v 5.000000 5.500000 6.000000
v 5.000000 6.600000 6.000000
v 5.000000 5.500000 -5.000000
v 5.000000 6.600000 -5.000000
v -7.000000 6.000000 7.000000
v -7.000000 6.600000 7.000000
v 5.000000 6.600000 7.000000
v 5.000000 6.000000 7.000000
v -7.000000 6.600000 -6.000000
v -7.000000 6.000000 -6.000000
v 5.000000 6.000000 -6.000000
v 5.000000 6.600000 -6.000000
v -7.000000 5.500000 6.000000
v -7.000000 6.600000 6.000000
v -7.000000 5.500000 -5.000000
v -7.000000 6.600000 -5.000000
v -7.000000 6.000000 7.000000
v -7.000000 6.600000 7.000000
v -7.000000 6.600000 -6.000000
v -7.000000 6.000000 -6.000000
vn -1.0000 -0.0000 -0.0000
vn -0.0000 -0.0000 -1.0000
vn 1.0000 -0.0000 -0.0000
vn -0.0000 -0.0000 1.0000
vn -0.0000 -1.0000 -0.0000
vn -0.0000 1.0000 -0.0000
vn -0.0000 -0.8137 0.5812
vn -0.0000 -0.7682 -0.6402
vn -0.0000 -0.8944 0.4472
vn -0.0000 -0.8944 -0.4472
vt 0.000000 0.000000
vt 4.000000 0.000000
vt 4.000000 1.000000
vt 0.000000 1.000000
vt 0.125000 0.500000
vt 0.375000 0.500000
vt 0.375000 0.750000
vt 0.125000 0.750000
vt -3.192077 -0.571454
vt -3.192077 0.040806
vt -3.498207 0.040806
vt -3.498207 -0.571454
vt -0.743038 -0.571454
vt -0.130778 -0.571454
vt -0.130778 1.877585
vt -0.743038 1.877585
vt 2.012131 -1.183715
vt 2.012131 -0.571455
vt 1.706002 -0.571455
vt 1.706002 -1.183715
vt 0.481481 -1.183714
vt -0.130778 -1.183714
vt -0.130778 -3.632753
vt 0.481481 -3.632753
vt 0.481481 -0.571454
vt -0.743038 -1.183714
vt 1.093741 -0.571454
vt 1.093741 -1.183714
vt 1.706001 -0.571454
vt 1.706001 -1.183714
vt 2.318261 -1.183714
vt 2.318261 -0.571454
vt 2.012131 -0.571454
vt 2.012131 -1.183714
vt 2.012131 -3.632753
vt 2.318261 -3.632753
vt 2.624391 -1.183715
vt 2.624391 -0.571455
vt 2.318261 -0.571455
vt 2.318261 -1.183715
vt 2.930521 -1.183715
vt 2.930521 -0.571455
vt 1.706001 -3.632754
vt 2.012131 -3.632754
vt 3.236651 -1.183714
vt 3.236651 -0.571455
vt 2.930521 -0.571454
vt 2.930521 -1.183714
vt 3.542781 -0.571455
vt 3.542781 1.877585
vt 3.236651 1.877585
vt 4.461170 -0.877584
vt 3.848911 -0.877584
vt 3.848911 -3.326624
vt 4.461170 -3.326624
vt 3.542781 -1.183714
vt 0.481481 1.877585
vt 0.481481 4.326624
vt -0.130778 4.326624
vt 2.318261 1.877585
vt 2.012131 1.877585
vt 3.848911 -1.183714
vt 3.848911 -0.571454
vt 3.542781 -0.571454
vt 3.542781 -1.183714
vt 3.848911 -3.632753
vt 4.461170 -3.632753
vt 4.461170 -0.571454
vt 3.848911 -0.571454
vt -3.192077 -3.632753
vt -3.192077 -3.020494
vt -3.498207 -3.020494
vt -3.498207 -3.632753
vt -0.130778 2.183715
vt -0.743038 2.183715
vt 2.012131 1.877585
vt 1.706002 1.877585
vt 1.093741 -3.632753
vt 3.542781 -3.632753
vt 4.461170 1.877585
vt 3.848911 1.877585
vt 2.624391 1.877585
vt 2.318261 1.877585
vt -0.743038 -3.632753
vt -0.743038 -3.020494
vt 2.930521 1.877585
vt -0.130778 4.632754
vt -0.743038 4.632754
vt 1.706001 -3.632753
vt 2.930521 -3.632753
vt 3.236651 -3.632753
vt 2.930520 1.877585
vt 2.930520 2.489845
vt 2.624391 2.489845
vt 2.624391 1.877585
vt -3.192077 2.489844
vt -3.192077 3.102104
vt -3.498207 3.102104
vt -3.498207 2.489845
vt 2.624391 1.877585
vt 2.624391 2.489845
vt 2.318261 2.489845
vt -2.885947 2.489844
vt -2.885947 3.102104
vt 1.706001 1.877585
vt 1.093741 1.877585
vt 2.318261 -3.632754
vt 2.624391 -3.632754
vt 1.093741 4.326624
vt 2.930521 1.877585
vt -3.192077 2.489845
vt -3.498207 2.489845
vt 2.930521 -3.632754
vt 1.706001 4.326624
vt 2.318261 1.877585
vt 2.318261 4.326624
vt 0.875000 0.500000
vt 0.625000 0.500000
vt 0.995225 5.165265
vt 0.007107 5.165266
vt 0.007107 -4.165265
vt 0.995224 -4.165265
vt -3.604652 -3.229652
vt 4.104652 -3.229652
vt 4.104652 4.479652
vt -3.604652 4.479652
vt 0.875000 0.750000
vt 0.625000 0.750000
vt 0.195931 5.013760
vt 0.005138 5.013760
vt 0.005138 -4.013760
vt 0.195931 -4.013760
vt 0.990903 -4.013760
vt 0.990903 5.013760
vt 0.007107 -5.013495
vt 0.546080 -5.013495
vt 0.204406 5.072733
vt 0.011132 5.072733
vt 0.011131 -4.072733
vt 0.204405 -4.072733
vt 0.546080 6.013495
vt 0.007107 6.013495
vt 1.009713 -4.072733
vt 1.009713 5.072733
vt 1.004994 5.193843
vt -0.015064 5.193844
vt -0.015064 -4.193843
vt 1.004994 -4.193843
vt 0.541331 6.047269
vt -0.015064 6.047269
vt -0.015064 -5.047269
vt 0.541331 -5.047269
s 0
usemtl Material.006
f 1/1/1 2/2/1 4/3/1 3/4/1
f 3/1/2 4/2/2 8/3/2 7/4/2
f 7/1/3 8/2/3 6/3/3 5/4/3
f 5/1/4 6/2/4 2/3/4 1/4/4
f 3/5/5 7/6/5 5/7/5 1/8/5
f 9/1/1 10/2/1 12/3/1 11/4/1
f 11/1/2 12/2/2 16/3/2 15/4/2
f 15/1/3 16/2/3 14/3/3 13/4/3
f 13/1/4 14/2/4 10/3/4 9/4/4
f 11/5/5 15/6/5 13/7/5 9/8/5
f 17/1/1 18/2/1 20/3/1 19/4/1
f 19/1/2 20/2/2 24/3/2 23/4/2
f 23/1/3 24/2/3 22/3/3 21/4/3
f 21/1/4 22/2/4 18/3/4 17/4/4
f 19/5/5 23/6/5 21/7/5 17/8/5
f 25/1/1 26/2/1 28/3/1 27/4/1
f 27/1/2 28/2/2 32/3/2 31/4/2
f 31/1/3 32/2/3 30/3/3 29/4/3
f 29/1/4 30/2/4 26/3/4 25/4/4
f 27/5/5 31/6/5 29/7/5 25/8/5
f 84/117/6 88/118/6 96/118/6 93/117/6
f 87/119/3 88/120/3 86/121/3 85/122/3
f 88/118/6 84/117/6 82/127/6 86/128/6
f 92/129/4 91/130/4 90/131/4 89/132/4
f 81/133/9 85/134/9 92/129/9 89/132/9
f 86/128/6 82/127/6 90/127/6 91/128/6
f 85/122/3 86/121/3 91/135/3 92/136/3
f 94/137/2 93/138/2 96/139/2 95/140/2
f 88/120/3 87/119/3 95/141/3 96/142/3
f 87/143/10 83/144/10 94/137/10 95/140/10
f 97/145/1 98/146/1 100/147/1 99/148/1
f 98/146/1 97/145/1 101/149/1 102/150/1
f 99/148/1 100/147/1 103/151/1 104/152/1
usemtl Material.007
f 30/9/3 32/10/3 47/11/3 48/12/3
f 38/13/6 39/14/6 76/15/6 75/16/6
f 12/17/1 10/18/1 37/19/1 38/20/1
f 36/21/6 33/22/6 58/23/6 57/24/6
f 35/25/6 34/14/6 33/22/6 36/21/6
f 39/14/6 38/13/6 37/26/6 40/22/6
f 43/27/6 42/25/6 41/21/6 44/28/6
f 47/29/6 46/27/6 45/28/6 48/30/6
f 6/31/3 8/32/3 35/33/3 36/34/3
f 6/31/3 36/34/3 57/35/3 49/36/3
f 28/37/1 26/38/1 45/39/1 46/40/1
f 4/41/1 2/42/1 33/38/1 34/37/1
f 12/17/1 38/20/1 75/43/1 67/44/1
f 22/45/3 24/46/3 43/47/3 44/48/3
f 41/46/1 18/49/1 54/50/1 62/51/1
f 18/52/5 22/53/5 53/54/5 54/55/5
f 20/56/1 18/49/1 41/46/1 42/45/1
f 24/15/5 20/57/5 69/58/5 70/59/5
f 35/33/3 8/32/3 66/60/3 74/61/3
f 14/62/3 16/63/3 39/64/3 40/65/3
f 54/55/7 53/54/7 61/66/7 62/67/7
f 52/68/7 51/69/7 59/53/7 60/52/7
f 56/70/7 55/71/7 63/72/7 64/73/7
f 50/74/7 49/75/7 57/16/7 58/15/7
f 37/19/1 10/18/1 52/76/1 60/77/1
f 44/28/6 41/21/6 62/24/6 61/78/6
f 14/62/3 40/65/3 59/79/3 51/66/3
f 10/80/5 14/81/5 51/69/5 52/68/5
f 45/39/1 26/38/1 56/82/1 64/83/1
f 26/84/5 30/85/5 55/71/5 56/70/5
f 33/38/1 2/42/1 50/86/1 58/82/1
f 40/22/6 37/26/6 60/84/6 59/23/6
f 2/87/5 6/88/5 49/75/5 50/74/5
f 48/30/6 45/28/6 64/78/6 63/89/6
f 30/9/3 48/12/3 63/72/3 55/71/3
f 22/45/3 44/48/3 61/90/3 53/91/3
f 70/92/8 69/93/8 77/94/8 78/95/8
f 68/96/8 67/97/8 75/98/8 76/99/8
f 72/100/8 71/101/8 79/102/8 80/60/8
f 66/103/8 65/104/8 73/97/8 74/96/8
f 20/56/1 42/45/1 77/91/1 69/79/1
f 46/27/6 47/29/6 80/105/6 79/106/6
f 28/37/1 46/40/1 79/107/1 71/108/1
f 16/57/5 12/106/5 67/109/5 68/58/5
f 43/47/3 24/46/3 70/51/3 78/110/3
f 47/11/3 32/10/3 72/111/3 80/112/3
f 4/41/1 34/37/1 73/108/1 65/113/1
f 32/106/5 28/105/5 71/114/5 72/109/5
f 34/14/6 35/25/6 74/57/6 73/15/6
f 39/64/3 16/63/3 68/81/3 76/50/3
f 8/105/5 4/115/5 65/116/5 66/114/5
f 42/25/6 43/27/6 78/106/6 77/57/6
f 83/123/5 87/124/5 85/125/5 81/126/5
