# Blender 4.0.1
# www.blender.org
mtllib tile_house_wall_corner_inner.mtl
o house_wall_corner_inner
v -1.000000 4.000000 1.000000
v -1.000000 0.400000 1.000000
v -1.000000 0.000000 0.882551
v -1.000000 0.400000 0.882551
v 1.000000 4.000000 1.000000
v 1.000000 4.000000 -1.000000
v 1.000000 0.400000 -1.000000
v 1.000000 0.400000 1.000000
v 0.882551 0.400000 -1.000000
v 0.882551 0.000000 -1.000000
v 0.882551 0.400000 1.000000
v 0.882551 0.000000 0.882551
v 0.882551 0.400000 0.882551
v 0.993103 0.400000 0.882551
vn -0.0000 -0.0000 -1.0000
vn -0.0000 1.0000 -0.0000
vn -1.0000 0.0010 -0.0000
vn -1.0000 -0.0000 -0.0000
vt 0.281250 0.000000
vt 0.750000 0.000000
vt 0.750000 1.000000
vt 0.250000 1.000000
vt 0.250000 0.000000
vt 0.500000 0.125000
vt 1.000000 0.125000
vt 1.000000 0.250000
vt 0.500000 0.250000
vt 1.000000 0.500000
vt 0.500000 0.500000
vt 0.500000 0.468750
vt 1.000000 0.468750
vt 0.740234 0.000000
vt 0.500000 0.375000
vt 1.000000 0.375000
vt 0.527344 0.500000
vt 0.500000 0.472656
vt 0.527344 0.472656
s 0
usemtl Material.001
f 11/1/1 2/2/1 1/3/1 5/4/1 8/5/1
f 14/14/3 8/2/3 5/3/3 6/4/3 7/5/3
usemtl Material.002
f 12/6/1 3/7/1 4/8/1 13/9/1
f 13/10/2 4/11/2 2/12/2 11/13/2
f 9/11/4 10/15/4 12/16/4 13/10/4
f 14/10/2 7/11/2 9/12/2 13/13/2
f 14/17/2 13/11/2 11/18/2 8/19/2
