# Blender 4.0.1
# www.blender.org
mtllib tile_house_wall_corner_outer.mtl
o house_wall_corner_outer
v 1.016764 0.400000 0.882537
v 1.016764 0.400000 0.999986
v 0.899315 0.400000 0.999986
v 0.899315 0.400000 0.882587
v 1.016764 0.000000 0.882537
v 0.899315 0.000000 0.999986
v 0.899315 0.000000 0.882587
vn -0.0000 1.0000 -0.0000
vn -0.0004 -0.0000 -1.0000
vn -1.0000 -0.0000 -0.0000
vt 0.527344 0.500000
vt 0.500000 0.500000
vt 0.500000 0.472656
vt 0.527344 0.472656
vt 1.000000 0.125000
vt 0.976562 0.125000
vt 0.976562 0.000000
vt 1.000000 0.000000
s 0
usemtl Material.002
f 4/1/1 3/2/1 2/3/1 1/4/1
f 4/5/2 1/6/2 5/7/2 7/8/2
f 3/5/3 4/6/3 7/7/3 6/8/3
