# Blender 4.0.1
# www.blender.org
mtllib tile_house_wall_endcap.mtl
o house_wall_endcap
v -1.000000 4.000000 -1.000000
v -1.000000 0.400000 -1.000000
v -0.882551 0.000000 -1.000000
v -0.882551 0.400000 -1.000000
v 1.000000 4.000000 -1.000000
v 1.000000 0.400000 -1.000000
v 0.882551 0.400000 -1.000000
v 0.882551 0.000000 -1.000000
v 0.882551 0.400000 1.000000
v -1.000000 4.000000 1.000000
v 1.000000 4.000000 1.000000
v -1.000000 0.400000 1.000000
v -1.000000 0.400000 0.882551
v -0.882551 0.000000 0.882551
v -0.882551 0.400000 0.993103
v -0.882551 0.400000 0.882551
v 1.000000 0.400000 1.000000
v 1.000000 0.400000 0.882551
v 0.882551 0.000000 0.882551
v 0.882551 0.400000 0.882551
vn 1.0000 -0.0000 -0.0000
vn -0.0000 1.0000 -0.0000
vn -1.0000 -0.0000 -0.0000
vn -0.0000 -0.0000 -1.0000
vt 0.250000 0.000000
vt 0.750000 0.000000
vt 0.750000 1.000000
vt 0.250000 1.000000
vt 0.529362 0.375000
vt 1.000000 0.375000
vt 1.000000 0.500000
vt 0.529362 0.500000
vt 0.998276 0.500000
vt 0.970638 0.500000
vt 0.970638 0.464844
vt 1.000000 0.464844
vt 0.500000 0.500000
vt 0.500000 0.464844
vt 0.720638 0.000000
vt 0.500000 0.375000
vt 0.970638 0.375000
vt 0.970638 0.500000
vt 0.529362 0.464844
vt 0.529362 0.500000
vt 0.529362 0.466908
vt 0.279362 0.000000
vt 0.529362 0.375000
vt 0.970638 0.375000
vt 0.970638 0.464844
vt 0.529362 0.464844
s 0
usemtl Material.001
f 12/1/1 2/2/1 1/3/1 10/4/1
f 18/15/3 17/2/3 11/3/3 5/4/3 6/1/3
f 12/2/4 10/3/4 11/4/4 17/1/4 9/22/4
usemtl Material.002
f 14/5/1 3/6/1 4/7/1 16/8/1
f 15/9/2 16/10/2 13/11/2 12/12/2
f 16/10/2 4/13/2 2/14/2 12/12/2 13/11/2
f 7/13/3 8/16/3 19/17/3 20/18/3
f 18/19/2 6/12/2 7/7/2 20/20/2
f 20/20/2 9/13/2 17/14/2 18/21/2
f 19/23/4 14/24/4 16/10/4 20/20/4
f 12/14/2 9/25/2 20/18/2 16/8/2 15/26/2
