# Blender 4.0.1
# www.blender.org
mtllib tile_fence_short.mtl
o Cube
v -1.000000 0.000000 1.000000
v -1.000000 2.000000 1.000000
v -1.000000 0.000000 0.997823
v -1.000000 2.000000 0.997823
v 1.000000 0.000000 1.000000
v 1.000000 2.000000 1.000000
v 1.000000 0.000000 0.997823
v 1.000000 2.000000 0.997823
vn -0.0000 -0.0000 -1.0000
vn -0.0000 -0.0000 1.0000
vt 1.000000 -0.000000
vt 1.000000 1.000000
vt 0.000000 1.000000
vt -0.000000 0.000000
s 0
usemtl Material.001
f 3/1/1 4/2/1 8/3/1 7/4/1
f 5/1/2 6/2/2 2/3/2 1/4/2
