# Blender 4.0.1
# www.blender.org
mtllib oak_tree_01.mtl
o oak_tree_1
v -0.000000 -0.008610 -0.327511
v -0.000000 2.627562 -0.327511
v 0.311482 -0.008610 -0.101206
v 0.311482 2.627562 -0.101206
v 0.192506 -0.008610 0.264962
v 0.192506 2.627562 0.264962
v -0.192506 -0.008610 0.264962
v -0.192506 2.627562 0.264962
v -0.311482 -0.008610 -0.101206
v -0.311482 2.627562 -0.101206
v 1.012513 4.211312 -0.730069
v 1.314918 3.178838 -1.032474
v 1.012513 2.146364 -0.730069
v 1.314918 4.211312 0.000000
v 1.742583 3.178838 0.000000
v 1.314918 2.146364 0.000000
v 1.012513 4.211312 0.730069
v 1.314918 3.178838 1.032474
v 1.012513 2.146364 0.730069
v 0.282444 4.211312 1.032474
v 0.282444 3.178838 1.460139
v 0.282444 2.146364 1.032474
v -0.447626 4.211312 0.730069
v -0.750030 3.178838 1.032474
v -0.447626 2.146364 0.730069
v 0.282444 1.718699 0.000000
v -0.750030 4.211312 0.000000
v -1.177695 3.178838 0.000000
v -0.750030 2.146364 0.000000
v -0.447626 4.211312 -0.730069
v -0.750030 3.178838 -1.032474
v -0.447626 2.146364 -0.730069
v 0.282444 4.638977 0.000000
v 0.282444 4.211312 -1.032474
v 0.282444 3.178838 -1.460139
v 0.282444 2.146364 -1.032474
v -0.628373 4.444624 -0.840757
v -0.412637 3.708056 -1.056493
v -0.628373 2.971488 -0.840757
v -0.412637 4.444624 -0.319926
v -0.107541 3.708056 -0.319926
v -0.412637 2.971488 -0.319926
v -0.628373 4.444624 0.200906
v -0.412637 3.708056 0.416642
v -0.628373 2.971488 0.200906
v -1.149205 4.444624 0.416642
v -1.149205 3.708056 0.721738
v -1.149205 2.971488 0.416642
v -1.670037 4.444624 0.200906
v -1.885773 3.708056 0.416642
v -1.670037 2.971488 0.200906
v -1.149205 2.666392 -0.319926
v -1.885773 4.444624 -0.319926
v -2.190869 3.708056 -0.319926
v -1.885773 2.971488 -0.319926
v -1.670037 4.444624 -0.840757
v -1.885773 3.708056 -1.056493
v -1.670037 2.971488 -0.840757
v -1.149205 4.749720 -0.319926
v -1.149205 4.444624 -1.056493
v -1.149205 3.708056 -1.361589
v -1.149205 2.971488 -1.056493
v -0.521691 3.218552 -0.276470
v -0.025048 2.776296 -0.398998
v 0.124266 2.153088 -0.183187
v -0.409760 3.326009 0.175806
v 0.133246 2.928264 0.240616
v 0.236196 2.260545 0.269088
v -0.608996 3.242566 0.602386
v -0.148516 2.810258 0.843892
v 0.036960 2.177103 0.695669
v -1.002689 3.017103 0.753386
v -0.705282 2.491405 1.057439
v -0.356732 1.951640 0.846669
v -1.360218 2.781693 0.540353
v -1.210905 2.158485 0.756164
v -0.714262 1.716230 0.633635
v -0.161216 1.713994 0.244544
v -1.472149 2.674236 0.088077
v -1.369198 2.006517 0.116549
v -0.826192 1.608772 0.181360
v -1.272913 2.757679 -0.338503
v -1.087436 2.124523 -0.486726
v -0.626956 1.692215 -0.245221
v -1.074736 3.220787 0.112622
v -0.879220 2.983142 -0.489504
v -0.530671 2.443376 -0.700273
v -0.233264 1.917678 -0.396221
v 0.789162 2.077193 -0.148463
v 0.873119 2.028276 -0.077102
v 0.198868 1.504356 -0.090794
v 0.633751 1.695946 -0.174758
v 0.263613 1.431502 -0.019841
v 0.698496 1.623092 -0.103804
v 0.250725 1.469213 0.093939
v 0.685608 1.660803 0.009976
v 0.178015 1.565374 0.093305
v 0.612898 1.756964 0.009341
v 0.145966 1.587093 -0.020867
v 0.580849 1.778683 -0.104830
v 0.838828 2.044539 0.037325
v 0.733680 2.103508 0.036684
v 0.702984 2.123689 -0.078140
vn 0.5878 -0.0000 -0.8090
vn 0.9511 -0.0000 0.3090
vn -0.0000 -0.0000 1.0000
vn -0.0000 1.0000 -0.0000
vn -0.9511 -0.0000 0.3090
vn -0.5878 -0.0000 -0.8090
vn -0.0000 -1.0000 -0.0000
vn -0.0000 -0.6630 -0.7486
vn 0.5294 -0.6630 -0.5294
vn -0.0000 -0.0000 -1.0000
vn 0.5294 0.6630 -0.5294
vn 0.7071 -0.0000 -0.7071
vn -0.0000 0.6630 -0.7486
vn 0.7486 -0.6630 -0.0000
vn 1.0000 -0.0000 -0.0000
vn 0.7486 0.6630 -0.0000
vn 0.5294 -0.6630 0.5294
vn 0.7071 -0.0000 0.7071
vn 0.5294 0.6630 0.5294
vn -0.0000 -0.6630 0.7486
vn -0.0000 0.6630 0.7486
vn -0.5294 0.6630 0.5294
vn -0.5294 -0.6630 0.5294
vn -0.7071 -0.0000 0.7071
vn -0.7486 -0.6630 -0.0000
vn -0.7486 0.6630 -0.0000
vn -1.0000 -0.0000 -0.0000
vn -0.5294 -0.6630 -0.5294
vn -0.5294 0.6630 -0.5294
vn -0.7071 -0.0000 -0.7071
vn 0.5170 -0.8527 0.0747
vn 0.4167 -0.5857 -0.6952
vn 0.8452 -0.3036 -0.4399
vn -0.2688 0.5450 -0.7942
vn 0.6711 0.3496 -0.6537
vn 0.0988 -0.0272 -0.9947
vn -0.5170 0.8527 -0.0747
vn 0.1596 0.8271 -0.5389
vn 0.9793 -0.1749 0.1021
vn 0.8503 0.5216 0.0702
vn 0.2938 0.9559 0.0031
vn 0.7405 -0.2748 0.6132
vn 0.5314 0.3881 0.7530
vn 0.0550 0.8559 0.5142
vn 0.2688 -0.5450 0.7942
vn -0.0988 0.0272 0.9947
vn -0.4167 0.5857 0.6952
vn -0.8452 0.3036 0.4399
vn -0.1596 -0.8271 0.5389
vn -0.6711 -0.3496 0.6537
vn -0.2938 -0.9559 -0.0031
vn -0.9793 0.1749 -0.1021
vn -0.8503 -0.5216 -0.0702
vn -0.0550 -0.8559 -0.5142
vn -0.7405 0.2748 -0.6132
vn -0.5314 -0.3881 -0.7530
vn -0.0420 -0.0640 0.9971
vn 0.1298 -0.6302 -0.7655
vn 0.6051 -0.2102 -0.7679
vn 0.4332 -0.8398 0.3274
vn 0.8736 -0.3712 0.3146
vn 0.1403 0.1126 0.9837
vn -0.5707 0.2857 -0.7698
vn 0.4889 0.8720 0.0226
vn -0.3446 0.8997 0.2679
vn -0.9076 0.2985 0.2951
vn -0.3588 0.4580 -0.8133
vn -0.7933 -0.5991 0.1087
vn -0.0672 -0.0442 0.9968
vn 0.5745 -0.1791 -0.7987
vn 0.8875 -0.3978 0.2324
vn -0.5278 0.2497 -0.8119
vn -0.9053 0.2911 0.3095
vt 1.978724 1.489362
vt 1.387234 0.010638
vt 1.978724 0.010638
vt 1.387234 1.489362
vt 0.795745 0.010638
vt 0.795745 1.489362
vt 0.204255 0.010638
vt 0.250000 0.490000
vt 0.108932 0.055836
vt 0.391068 0.055836
vt 0.204255 1.489362
vt -0.387234 0.010638
vt -0.387234 1.489362
vt -0.978724 0.010638
vt 0.978254 0.324164
vt 0.608932 0.055836
vt 0.521746 0.324164
vt 4.410015 -3.000684
vt 4.455344 -1.031879
vt 3.600694 -1.132169
vt 4.463334 0.937198
vt 3.297679 2.770308
vt 3.468390 0.821352
vt 4.474741 2.906249
vt 0.471746 4.000684
vt 2.706452 -1.413428
vt 2.492594 0.518232
vt 2.275711 2.449355
vt 1.701160 -1.740991
vt 1.518379 0.204628
vt 1.373612 2.155169
vt 0.536473 -1.906249
vt 0.525065 0.062803
vt 0.517074 2.031880
vt -0.337575 2.132170
vt -3.466524 -3.000684
vt -0.640590 -1.770308
vt -0.469879 0.178649
vt -1.662559 -1.449354
vt -1.231818 2.413429
vt -1.445676 0.481769
vt -2.564657 -1.155169
vt -2.237110 2.740993
vt -2.419891 0.795372
vt -3.421195 -1.031879
vt -3.401797 2.906249
vt -3.413205 0.937198
vt 2.944332 -1.687060
vt 2.972651 -0.457045
vt 2.438708 -0.519701
vt 2.977643 0.773140
vt 2.249398 1.918380
vt 2.356050 0.700765
vt 2.984770 2.003310
vt 0.483890 2.687060
vt 1.880027 -0.695419
vt 1.746419 0.511390
vt 1.610921 1.717864
vt 1.137776 0.315466
vt 1.047333 1.534070
vt 0.517201 0.226860
vt 0.524328 -1.003309
vt 1.251969 -0.900064
vt 0.512209 1.457045
vt -0.021735 1.519702
vt -1.976553 -1.687060
vt -0.211044 -0.918380
vt -0.104393 0.299235
vt -0.714023 0.488610
vt -0.849522 -0.717863
vt -0.580415 1.695419
vt -1.322667 0.684535
vt -1.413110 -0.534070
vt -1.208474 1.900065
vt -1.948233 -0.457045
vt -1.936114 2.003310
vt -1.943241 0.773140
vt 2.500085 -1.291398
vt 2.523281 -0.283905
vt 2.085933 -0.335227
vt 2.527370 0.723726
vt 1.628324 -0.479155
vt 1.113888 -0.646778
vt 0.517885 -0.731345
vt 0.946273 1.346996
vt 0.512048 0.276274
vt 1.020354 0.348850
vt 0.484763 2.291398
vt 0.507959 1.283906
vt 0.070611 1.335227
vt -1.530560 -1.291398
vt -0.084451 -0.661780
vt 0.002907 0.335556
vt -0.607420 -0.497539
vt -0.386998 1.479155
vt -0.496435 0.490671
vt -1.069049 -0.346996
vt -0.901434 1.646778
vt -0.994969 0.651150
vt -1.507364 -0.283905
vt -1.497437 1.731345
vt -1.503275 0.723726
vt 0.422269 0.944326
vt 0.577731 0.944326
vt 0.888653 0.944326
vt 0.733192 0.555674
vt 0.888653 0.555674
vt 0.733192 0.944326
vt 0.577731 0.555674
vt 0.422269 0.555674
vt 0.266808 0.944326
vt 0.111347 0.944326
vt 0.266808 0.555674
vt 0.111347 0.555674
vt 0.478254 0.324164
vt 0.021746 0.324164
vt -0.978724 1.489362
vt 0.750000 0.490000
vt 0.891068 0.055836
vt 2.018229 0.664445
s 0
usemtl Material.001
f 2/1/1 3/2/1 1/3/1
f 4/4/2 5/5/2 3/2/2
f 6/6/3 7/7/3 5/5/3
f 2/8/4 8/9/4 6/10/4
f 8/11/5 9/12/5 7/7/5
f 10/13/6 1/14/6 9/12/6
f 3/15/7 7/16/7 9/17/7
f 98/103/57 101/104/57 102/103/57
f 92/105/58 93/106/58 91/107/58
f 92/105/59 90/108/59 94/108/59
f 93/106/60 96/104/60 95/109/60
f 96/104/61 90/108/61 101/104/61
f 95/109/62 98/103/62 97/110/62
f 100/111/63 89/112/63 92/112/63
f 89/8/64 102/9/64 101/10/64
f 97/110/65 100/111/65 99/113/65
f 100/111/66 102/103/66 103/111/66
f 100/111/67 91/114/67 99/113/67
f 93/15/68 97/16/68 99/17/68
f 2/1/1 4/4/1 3/2/1
f 4/4/2 6/6/2 5/5/2
f 6/6/3 8/11/3 7/7/3
f 6/10/4 4/115/4 2/8/4
f 2/8/4 10/116/4 8/9/4
f 8/11/5 10/13/5 9/12/5
f 10/13/6 2/117/6 1/14/6
f 9/17/7 1/118/7 3/15/7
f 3/15/7 5/119/7 7/16/7
f 98/103/69 96/104/69 101/104/69
f 92/105/58 94/108/58 93/106/58
f 92/105/70 89/105/70 90/108/70
f 93/106/60 94/108/60 96/104/60
f 96/104/71 94/108/71 90/108/71
f 95/109/62 96/104/62 98/103/62
f 100/111/72 103/111/72 89/112/72
f 101/10/64 90/115/64 89/8/64
f 89/8/64 103/116/64 102/9/64
f 97/110/65 98/103/65 100/111/65
f 100/111/73 98/103/73 102/103/73
f 100/111/67 92/112/67 91/114/67
f 99/17/68 91/118/68 93/15/68
f 93/15/68 95/119/68 97/16/68
s 1
usemtl Material.003
f 26/18/7 36/19/8 13/20/9
f 35/21/10 11/22/11 12/23/12
f 35/21/10 13/20/9 36/19/8
f 34/24/13 33/25/4 11/22/11
f 26/18/7 13/20/9 16/26/14
f 11/22/11 15/27/15 12/23/12
f 12/23/12 16/26/14 13/20/9
f 11/22/11 33/25/4 14/28/16
f 26/18/7 16/26/14 19/29/17
f 14/28/16 18/30/18 15/27/15
f 15/27/15 19/29/17 16/26/14
f 14/28/16 33/25/4 17/31/19
f 26/18/7 19/29/17 22/32/20
f 17/31/19 21/33/3 18/30/18
f 18/30/18 22/32/20 19/29/17
f 17/31/19 33/25/4 20/34/21
f 20/34/21 33/25/4 23/35/22
f 26/36/7 22/32/20 25/37/23
f 21/33/3 23/35/22 24/38/24
f 21/33/3 25/37/23 22/32/20
f 24/38/24 29/39/25 25/37/23
f 23/35/22 33/25/4 27/40/26
f 26/36/7 25/37/23 29/39/25
f 23/35/22 28/41/27 24/38/24
f 28/41/27 32/42/28 29/39/25
f 27/40/26 33/25/4 30/43/29
f 26/36/7 29/39/25 32/42/28
f 27/40/26 31/44/30 28/41/27
f 31/44/30 36/45/8 32/42/28
f 30/43/29 33/25/4 34/46/13
f 26/36/7 32/42/28 36/45/8
f 30/43/29 35/47/10 31/44/30
f 52/48/7 62/49/8 39/50/9
f 61/51/10 37/52/11 38/53/12
f 61/51/10 39/50/9 62/49/8
f 60/54/13 59/55/4 37/52/11
f 52/48/7 39/50/9 42/56/14
f 37/52/11 41/57/15 38/53/12
f 38/23/12 42/26/14 39/20/9
f 37/52/11 59/55/4 40/58/16
f 52/18/7 42/26/14 45/29/17
f 40/58/16 44/59/18 41/57/15
f 41/27/15 45/29/17 42/26/14
f 40/58/16 59/55/4 43/60/19
f 52/18/7 45/29/17 48/32/20
f 43/60/19 47/61/3 44/59/18
f 44/59/18 48/62/20 45/63/17
f 43/60/19 59/55/4 46/64/21
f 46/64/21 59/55/4 49/65/22
f 52/66/7 48/62/20 51/67/23
f 46/64/21 50/68/24 47/61/3
f 47/61/3 51/67/23 48/62/20
f 51/67/23 54/69/27 55/70/25
f 49/65/22 59/55/4 53/71/26
f 52/66/7 51/67/23 55/70/25
f 49/65/22 54/69/27 50/68/24
f 55/70/25 57/72/30 58/73/28
f 53/71/26 59/55/4 56/74/29
f 52/66/7 55/70/25 58/73/28
f 53/71/26 57/72/30 54/69/27
f 57/72/30 62/75/8 58/73/28
f 56/74/29 59/55/4 60/76/13
f 52/66/7 58/73/28 62/75/8
f 56/74/29 61/77/10 57/72/30
f 78/78/31 88/79/32 65/80/33
f 86/24/34 64/23/35 87/21/36
f 87/81/36 65/80/33 88/79/32
f 86/24/34 85/25/37 63/22/38
f 78/18/31 65/20/33 68/26/39
f 63/22/38 67/27/40 64/23/35
f 64/23/35 68/26/39 65/20/33
f 63/22/38 85/25/37 66/28/41
f 78/78/31 68/82/39 71/83/42
f 66/28/41 70/30/43 67/27/40
f 68/26/39 70/30/43 71/29/42
f 66/28/41 85/25/37 69/31/44
f 78/78/31 71/83/42 74/84/45
f 69/85/44 73/86/46 70/87/43
f 70/87/43 74/84/45 71/83/42
f 69/85/44 85/88/37 72/89/47
f 72/89/47 85/88/37 75/90/48
f 78/91/31 74/84/45 77/92/49
f 72/89/47 76/93/50 73/86/46
f 73/86/46 77/92/49 74/84/45
f 76/93/50 81/94/51 77/92/49
f 75/90/48 85/88/37 79/95/52
f 78/91/31 77/92/49 81/94/51
f 76/93/50 79/95/52 80/96/53
f 80/96/53 84/97/54 81/94/51
f 79/95/52 85/88/37 82/98/55
f 78/91/31 81/94/51 84/97/54
f 79/95/52 83/99/56 80/96/53
f 83/99/56 88/100/32 84/97/54
f 82/43/55 85/25/37 86/46/34
f 78/91/31 84/97/54 88/100/32
f 83/99/56 86/101/34 87/102/36
f 35/21/10 34/24/13 11/22/11
f 35/21/10 12/23/12 13/20/9
f 11/22/11 14/28/16 15/27/15
f 12/23/12 15/27/15 16/26/14
f 14/28/16 17/31/19 18/30/18
f 15/27/15 18/30/18 19/29/17
f 17/31/19 20/34/21 21/33/3
f 18/30/18 21/33/3 22/32/20
f 21/33/3 20/34/21 23/35/22
f 21/33/3 24/38/24 25/37/23
f 24/38/24 28/41/27 29/39/25
f 23/35/22 27/40/26 28/41/27
f 28/41/27 31/44/30 32/42/28
f 27/40/26 30/43/29 31/44/30
f 31/44/30 35/47/10 36/45/8
f 30/43/29 34/46/13 35/47/10
f 61/51/10 60/54/13 37/52/11
f 61/51/10 38/53/12 39/50/9
f 37/52/11 40/58/16 41/57/15
f 38/23/12 41/27/15 42/26/14
f 40/58/16 43/60/19 44/59/18
f 41/27/15 44/30/18 45/29/17
f 43/60/19 46/64/21 47/61/3
f 44/59/18 47/61/3 48/62/20
f 46/64/21 49/65/22 50/68/24
f 47/61/3 50/68/24 51/67/23
f 51/67/23 50/68/24 54/69/27
f 49/65/22 53/71/26 54/69/27
f 55/70/25 54/69/27 57/72/30
f 53/71/26 56/74/29 57/72/30
f 57/72/30 61/77/10 62/75/8
f 56/74/29 60/76/13 61/77/10
f 86/24/34 63/22/38 64/23/35
f 87/81/36 64/120/35 65/80/33
f 63/22/38 66/28/41 67/27/40
f 64/23/35 67/27/40 68/26/39
f 66/28/41 69/31/44 70/30/43
f 68/26/39 67/27/40 70/30/43
f 69/85/44 72/89/47 73/86/46
f 70/87/43 73/86/46 74/84/45
f 72/89/47 75/90/48 76/93/50
f 73/86/46 76/93/50 77/92/49
f 76/93/50 80/96/53 81/94/51
f 76/93/50 75/90/48 79/95/52
f 80/96/53 83/99/56 84/97/54
f 79/95/52 82/98/55 83/99/56
f 83/99/56 87/102/36 88/100/32
f 83/99/56 82/98/55 86/101/34
