# Blender 4.0.1
# www.blender.org
mtllib tree_pine_01.mtl
o pine_tree_1
v -0.000000 0.947902 -1.281787
v 0.906360 0.947902 -0.906360
v 1.245788 0.947902 -0.055189
v 0.869857 0.947902 0.873242
v -0.035650 0.947902 1.248400
v -0.971388 0.947902 0.905009
v -1.281787 0.947902 0.000000
v -0.879061 0.947902 -0.853916
v 0.000000 3.601839 0.000000
v 0.000038 1.809925 -1.087598
v 0.733199 1.809925 -0.800654
v 1.081978 1.809925 -0.070589
v 0.854410 1.809925 0.763751
v -0.169244 1.809925 1.058959
v -0.805479 1.809925 0.805479
v -1.139120 1.809925 0.000000
v -0.851404 1.809925 -0.896610
v 0.000000 4.376746 0.000000
v -0.068141 2.737150 -0.970148
v 0.741852 2.737150 -0.742294
v 0.954026 2.737150 0.025895
v 0.673590 2.737150 0.812593
v -0.091115 2.737150 1.025352
v -0.707107 2.737150 0.707107
v -0.960036 2.737150 0.067012
v -0.666381 2.737150 -0.745350
v 0.000000 4.582764 0.000000
v -0.000000 -0.009238 -0.363441
v -0.000000 1.192229 -0.363441
v 0.345653 -0.009238 -0.112309
v 0.345653 1.192229 -0.112309
v 0.213625 -0.009238 0.294030
v 0.213625 1.192229 0.294030
v -0.213625 -0.009238 0.294030
v -0.213625 1.192229 0.294030
v -0.345653 -0.009238 -0.112309
v -0.345653 1.192229 -0.112309
v -0.402740 3.093335 0.402740
vn 0.3495 0.4075 -0.8437
vn 0.8490 0.4056 -0.3386
vn 0.8523 0.3929 0.3451
vn 0.3517 0.3946 0.8489
vn -0.3146 0.4075 0.8573
vn -0.8604 0.4155 0.2951
vn -0.0000 -1.0000 -0.0000
vn -0.8288 0.4003 -0.3909
vn -0.4014 0.3983 -0.8247
vn 0.3390 0.3670 -0.8662
vn 0.8400 0.3651 -0.4013
vn 0.8959 0.3709 0.2444
vn 0.2592 0.3537 0.8987
vn -0.3427 0.3775 0.8603
vn -0.8548 0.3794 0.3541
vn -0.8771 0.3892 -0.2815
vn -0.2023 0.3821 -0.9017
vn 0.2426 0.4444 -0.8624
vn 0.8640 0.4433 -0.2386
vn 0.8453 0.4412 0.3013
vn 0.2376 0.4627 0.8541
vn -0.4079 0.4587 0.7894
vn -0.8328 0.4451 0.3291
vn -0.8489 0.4304 -0.3069
vn -0.3140 0.4508 -0.8356
vn 0.5878 -0.0000 -0.8090
vn 0.9511 -0.0000 0.3090
vn -0.0000 -0.0000 1.0000
vn -0.9511 -0.0000 0.3090
vn -0.5878 -0.0000 -0.8090
vt -0.214257 -0.214257
vt 1.214257 -0.214257
vt 1.214257 1.214257
vt 0.500000 1.214257
vt 1.005056 1.005056
vt 1.214257 0.500000
vt 1.005056 -0.005056
vt 0.500000 -0.214257
vt -0.005056 -0.005056
vt -0.214257 0.500000
vt -0.005056 1.005056
vt 1.214257 0.500000
vt 0.500000 -0.214257
vt 2.712341 -0.356171
vt 2.712341 1.856170
vt 1.827405 1.856170
vt 1.827405 -0.356171
vt 0.942468 1.856170
vt 0.942468 -0.356171
vt 0.057532 1.856170
vt 0.057532 -0.356171
vt -0.827404 1.856170
vt -0.827404 -0.356171
vt -1.712341 1.856170
vt -1.712341 -0.356171
s 0
usemtl Material.001
f 1/1/1 9/2/1 2/3/1
f 2/1/2 9/2/2 3/3/2
f 3/1/3 9/2/3 4/3/3
f 4/1/4 9/2/4 5/3/4
f 5/1/5 9/2/5 6/3/5
f 6/1/6 9/2/6 7/3/6
f 1/4/7 2/5/7 3/6/7 4/7/7 5/8/7 6/9/7 7/10/7 8/11/7
f 7/1/8 9/2/8 8/3/8
f 8/1/9 9/2/9 1/3/9
f 10/1/10 18/2/10 11/3/10
f 11/1/11 18/2/11 12/3/11
f 12/1/12 18/2/12 13/3/12
f 13/1/13 18/2/13 14/3/13
f 14/1/14 18/2/14 38/12/14 15/3/14
f 15/1/15 38/13/15 18/2/15 16/3/15
f 10/4/7 11/5/7 12/6/7 13/7/7 14/8/7 15/9/7 16/10/7 17/11/7
f 16/1/16 18/2/16 17/3/16
f 17/1/17 18/2/17 10/3/17
f 19/1/18 27/2/18 20/3/18
f 20/1/19 27/2/19 21/3/19
f 21/1/20 27/2/20 22/3/20
f 22/1/21 27/2/21 23/3/21
f 23/1/22 27/2/22 24/3/22
f 24/1/23 27/2/23 25/3/23
f 19/4/7 20/5/7 21/6/7 22/7/7 23/8/7 24/9/7 25/10/7 26/11/7
f 25/1/24 27/2/24 26/3/24
f 26/1/25 27/2/25 19/3/25
usemtl Material.002
f 28/14/26 29/15/26 31/16/26 30/17/26
f 30/17/27 31/16/27 33/18/27 32/19/27
f 32/19/28 33/18/28 35/20/28 34/21/28
f 34/21/29 35/20/29 37/22/29 36/23/29
f 36/23/30 37/22/30 29/24/30 28/25/30
